SplineFontDB: 3.2
FontName: OCRA-LEA
FullName: OCRA-LEA
FamilyName: OCRA-LEA
Weight: Book
Copyright: Jakadak (c)
Version: 1
ItalicAngle: 0
UnderlinePosition: -171
UnderlineWidth: 170
Ascent: 1638
Descent: 410
InvalidEm: 0
sfntRevision: 0x00010000
LayerCount: 2
Layer: 0 1 "Back" 1
Layer: 1 1 "Fore" 0
XUID: [1021 400 1947487990 26217]
StyleMap: 0x0040
FSType: 8
OS2Version: 1
OS2_WeightWidthSlopeOnly: 0
OS2_UseTypoMetrics: 0
CreationTime: 1610455583
ModificationTime: 1627292992
PfmFamily: 17
TTFWeight: 400
TTFWidth: 5
LineGap: 0
VLineGap: 0
Panose: 2 1 5 9 2 1 2 1 3 3
OS2TypoAscent: 1329
OS2TypoAOffset: 0
OS2TypoDescent: -360
OS2TypoDOffset: 0
OS2TypoLinegap: 502
OS2WinAscent: 1757
OS2WinAOffset: 0
OS2WinDescent: 362
OS2WinDOffset: 0
HheadAscent: 1757
HheadAOffset: 0
HheadDescent: -362
HheadDOffset: 0
OS2SubXSize: 1434
OS2SubYSize: 1331
OS2SubXOff: 0
OS2SubYOff: 178
OS2SupXSize: 1434
OS2SupYSize: 1331
OS2SupXOff: 0
OS2SupYOff: 483
OS2StrikeYSize: 125
OS2StrikeYPos: 530
OS2FamilyClass: 2063
OS2Vendor: 'MONO'
OS2CodePages: 20000001.00000000
OS2UnicodeRanges: 00000003.00000000.00000000.00000000
MarkAttachClasses: 1
DEI: 91125
TtTable: prep
PUSHW_1
 -64
PUSHB_4
 202
 21
 24
 54
PUSHW_1
 -64
NPUSHB
 9
 201
 21
 24
 54
 128
 196
 224
 196
 2
PUSHW_1
 -64
PUSHB_6
 196
 10
 11
 54
 135
 127
PUSHW_1
 1000
PUSHB_7
 31
 147
 127
 50
 31
 129
 127
PUSHW_1
 1000
NPUSHB
 56
 31
 144
 127
 160
 127
 2
 31
 194
 1
 111
 194
 127
 194
 2
 127
 190
 1
 0
 183
 1
 0
 183
 96
 183
 144
 183
 160
 183
 4
 0
 181
 144
 181
 160
 181
 3
 30
 120
 22
 29
 119
 22
 28
 118
 22
 27
 117
 22
 26
 116
 22
 25
 115
 22
 112
 22
PUSHW_1
 2048
NPUSHB
 24
 29
 108
 111
 22
 23
 28
 108
 111
 23
 27
 108
 111
 25
 107
 110
 22
 27
 107
 110
 127
 114
 26
 106
 20
PUSHW_1
 2048
NPUSHB
 255
 29
 102
 105
 20
 21
 28
 102
 105
 21
 27
 102
 105
 25
 101
 104
 20
 27
 101
 104
 133
 113
 26
 153
 67
 250
 33
 151
 67
 250
 33
 147
 67
 250
 33
 145
 67
 250
 33
 141
 67
 250
 33
 139
 67
 250
 33
 137

StartChar: .notdef
Encoding: 65536 -1 0
Width: 2048
Flags: W
LayerCount: 2
Fore
SplineSet
256 0 m 1,0,-1
 256 1536 l 1,1,-1
 1792 1536 l 1,2,-1
 1792 0 l 1,3,-1
 256 0 l 1,0,-1
384 128 m 1,4,-1
 1664 128 l 1,5,-1
 1664 1408 l 1,6,-1
 384 1408 l 1,7,-1
 384 128 l 1,4,-1
EndSplineSet
EndChar

StartChar: Amacron
Encoding: 256 256 3
Width: 1237
Flags: W
LayerCount: 2
Fore
SplineSet
889 1598 m 2,0,1
 924 1598 924 1598 949.5 1573 c 128,-1,2
 975 1548 975 1548 975 1514 c 0,3,4
 975 1478 975 1478 949.5 1454 c 128,-1,5
 924 1430 924 1430 889 1430 c 2,6,-1
 369 1430 l 2,7,8
 335 1430 335 1430 310 1455 c 128,-1,9
 285 1480 285 1480 285 1514 c 256,10,11
 285 1548 285 1548 310 1573 c 128,-1,12
 335 1598 335 1598 369 1598 c 2,13,-1
 889 1598 l 2,0,1
212 117 m 2,14,-1
 552 1266 l 2,15,16
 572 1329 572 1329 636 1329 c 0,17,18
 698 1329 698 1329 714 1276 c 2,19,-1
 1049 109 l 2,20,21
 1053 96 1053 96 1053 84 c 0,22,23
 1053 49 1053 49 1029 24.5 c 128,-1,24
 1005 0 1005 0 974 0 c 0,25,26
 908 0 908 0 890 61 c 2,27,-1
 822 289 l 1,28,-1
 439 289 l 1,29,-1
 365 45 l 2,30,31
 362 29 362 29 340 14.5 c 128,-1,32
 318 0 318 0 292 0 c 0,33,34
 255 0 255 0 231 25 c 128,-1,35
 207 50 207 50 207 86 c 0,36,37
 207 101 207 101 212 117 c 2,14,-1
634 940 m 1,38,-1
 490 459 l 1,39,-1
 773 459 l 1,40,-1
 634 940 l 1,38,-1
EndSplineSet
EndChar

StartChar: amacron
Encoding: 257 257 4
Width: 1237
Flags: W
LayerCount: 2
Fore
SplineSet
889 1283 m 2,0,1
 924 1283 924 1283 949.5 1258.5 c 128,-1,2
 975 1234 975 1234 975 1199 c 256,3,4
 975 1164 975 1164 949.5 1139.5 c 128,-1,5
 924 1115 924 1115 889 1115 c 2,6,-1
 369 1115 l 2,7,8
 335 1115 335 1115 310 1140 c 128,-1,9
 285 1165 285 1165 285 1199 c 0,10,11
 285 1234 285 1234 310 1258.5 c 128,-1,12
 335 1283 335 1283 369 1283 c 2,13,-1
 889 1283 l 2,0,1
457 606 m 2,14,-1
 786 606 l 2,15,16
 813 606 813 606 864 594 c 1,17,-1
 862 713 l 2,18,19
 862 748 862 748 837.5 772.5 c 128,-1,20
 813 797 813 797 778 797 c 2,21,-1
 459 797 l 2,22,23
 425 797 425 797 400 822 c 128,-1,24
 375 847 375 847 375 881 c 0,25,26
 375 916 375 916 399.5 940.5 c 128,-1,27
 424 965 424 965 459 965 c 2,28,-1
 778 965 l 2,29,30
 882 965 882 965 955.5 892 c 128,-1,31
 1029 819 1029 819 1032 713 c 2,32,-1
 1053 84 l 2,33,34
 1053 49 1053 49 1028 24.5 c 128,-1,35
 1003 0 1003 0 969 0 c 0,36,37
 933 0 933 0 908 24.5 c 128,-1,38
 883 49 883 49 883 84 c 1,39,-1
 741 0 l 1,40,-1
 457 0 l 2,41,42
 351 0 351 0 277 74 c 128,-1,43
 203 148 203 148 203 254 c 2,44,-1
 203 352 l 2,45,46
 203 457 203 457 277.5 531.5 c 128,-1,47
 352 606 352 606 457 606 c 2,14,-1
877 279 m 1,48,-1
 872 350 l 2,49,50
 871 386 871 386 847 410 c 128,-1,51
 823 434 823 434 788 434 c 2,52,-1
 457 434 l 2,53,54
 422 434 422 434 397.5 409.5 c 128,-1,55
 373 385 373 385 373 350 c 2,56,-1
 373 256 l 2,57,58
 373 222 373 222 398 197 c 128,-1,59
 423 172 423 172 457 172 c 2,60,-1
 694 172 l 1,61,-1
 877 279 l 1,48,-1
EndSplineSet
EndChar

StartChar: Abreve
Encoding: 258 258 5
Width: 1237
Flags: W
LayerCount: 2
Fore
SplineSet
941 1747 m 0,0,1
 976 1747 976 1747 1001.5 1725.5 c 128,-1,2
 1027 1704 1027 1704 1027 1675 c 0,3,4
 1027 1608 1027 1608 906 1522 c 128,-1,5
 785 1436 785 1436 637 1436 c 0,6,7
 490 1436 490 1436 369 1522 c 128,-1,8
 248 1608 248 1608 248 1675 c 0,9,10
 248 1704 248 1704 273.5 1725.5 c 128,-1,11
 299 1747 299 1747 334 1747 c 0,12,13
 375 1747 375 1747 400 1723 c 0,14,15
 509 1606 509 1606 637 1606 c 0,16,17
 766 1606 766 1606 875 1723 c 0,18,19
 900 1747 900 1747 941 1747 c 0,0,1
212 117 m 2,20,-1
 552 1266 l 2,21,22
 572 1329 572 1329 636 1329 c 0,23,24
 698 1329 698 1329 714 1276 c 2,25,-1
 1049 109 l 2,26,27
 1053 96 1053 96 1053 84 c 0,28,29
 1053 49 1053 49 1029 24.5 c 128,-1,30
 1005 0 1005 0 974 0 c 0,31,32
 908 0 908 0 890 61 c 2,33,-1
 822 289 l 1,34,-1
 439 289 l 1,35,-1
 365 45 l 2,36,37
 362 29 362 29 340 14.5 c 128,-1,38
 318 0 318 0 292 0 c 0,39,40
 255 0 255 0 231 25 c 128,-1,41
 207 50 207 50 207 86 c 0,42,43
 207 101 207 101 212 117 c 2,20,-1
634 940 m 1,44,-1
 490 459 l 1,45,-1
 773 459 l 1,46,-1
 634 940 l 1,44,-1
EndSplineSet
EndChar

StartChar: abreve
Encoding: 259 259 6
Width: 1237
Flags: W
LayerCount: 2
Fore
SplineSet
941 1408 m 0,0,1
 976 1408 976 1408 1001.5 1386.5 c 128,-1,2
 1027 1365 1027 1365 1027 1336 c 0,3,4
 1027 1269 1027 1269 906 1183 c 128,-1,5
 785 1097 785 1097 637 1097 c 0,6,7
 490 1097 490 1097 369 1183 c 128,-1,8
 248 1269 248 1269 248 1336 c 0,9,10
 248 1365 248 1365 273.5 1386.5 c 128,-1,11
 299 1408 299 1408 334 1408 c 0,12,13
 375 1408 375 1408 400 1384 c 0,14,15
 509 1267 509 1267 637 1267 c 0,16,17
 766 1267 766 1267 875 1384 c 0,18,19
 900 1408 900 1408 941 1408 c 0,0,1
457 606 m 2,20,-1
 786 606 l 2,21,22
 813 606 813 606 864 594 c 1,23,-1
 862 713 l 2,24,25
 862 748 862 748 837.5 772.5 c 128,-1,26
 813 797 813 797 778 797 c 2,27,-1
 459 797 l 2,28,29
 425 797 425 797 400 822 c 128,-1,30
 375 847 375 847 375 881 c 0,31,32
 375 916 375 916 399.5 940.5 c 128,-1,33
 424 965 424 965 459 965 c 2,34,-1
 778 965 l 2,35,36
 882 965 882 965 955.5 892 c 128,-1,37
 1029 819 1029 819 1032 713 c 2,38,-1
 1053 84 l 2,39,40
 1053 49 1053 49 1028 24.5 c 128,-1,41
 1003 0 1003 0 969 0 c 0,42,43
 933 0 933 0 908 24.5 c 128,-1,44
 883 49 883 49 883 84 c 1,45,-1
 741 0 l 1,46,-1
 457 0 l 2,47,48
 351 0 351 0 277 74 c 128,-1,49
 203 148 203 148 203 254 c 2,50,-1
 203 352 l 2,51,52
 203 457 203 457 277.5 531.5 c 128,-1,53
 352 606 352 606 457 606 c 2,20,-1
877 279 m 1,54,-1
 872 350 l 2,55,56
 871 386 871 386 847 410 c 128,-1,57
 823 434 823 434 788 434 c 2,58,-1
 457 434 l 2,59,60
 422 434 422 434 397.5 409.5 c 128,-1,61
 373 385 373 385 373 350 c 2,62,-1
 373 256 l 2,63,64
 373 222 373 222 398 197 c 128,-1,65
 423 172 423 172 457 172 c 2,66,-1
 694 172 l 1,67,-1
 877 279 l 1,54,-1
EndSplineSet
EndChar

StartChar: Aogonek
Encoding: 260 260 7
Width: 1237
Flags: W
LayerCount: 2
Fore
SplineSet
1053 84 m 1,0,-1
 1053 -68 l 1,1,-1
 1153 -68 l 2,2,3
 1188 -68 1188 -68 1212.5 -93.5 c 128,-1,4
 1237 -119 1237 -119 1237 -154 c 0,5,6
 1237 -188 1237 -188 1212 -213 c 128,-1,7
 1187 -238 1187 -238 1153 -238 c 2,8,-1
 969 -238 l 1,9,-1
 910 -213 l 1,10,11
 885 -198 885 -198 885 -152 c 2,12,-1
 885 84 l 1,13,-1
 1053 84 l 1,0,-1
212 117 m 2,14,-1
 552 1266 l 2,15,16
 572 1329 572 1329 636 1329 c 0,17,18
 698 1329 698 1329 714 1276 c 2,19,-1
 1049 109 l 2,20,21
 1053 96 1053 96 1053 84 c 0,22,23
 1053 49 1053 49 1029 24.5 c 128,-1,24
 1005 0 1005 0 974 0 c 0,25,26
 908 0 908 0 890 61 c 2,27,-1
 822 289 l 1,28,-1
 439 289 l 1,29,-1
 365 45 l 2,30,31
 362 29 362 29 340 14.5 c 128,-1,32
 318 0 318 0 292 0 c 0,33,34
 255 0 255 0 231 25 c 128,-1,35
 207 50 207 50 207 86 c 0,36,37
 207 101 207 101 212 117 c 2,14,-1
634 940 m 1,38,-1
 490 459 l 1,39,-1
 773 459 l 1,40,-1
 634 940 l 1,38,-1
EndSplineSet
EndChar

StartChar: aogonek
Encoding: 261 261 8
Width: 1237
Flags: W
LayerCount: 2
Fore
SplineSet
1053 84 m 1,0,-1
 1053 -106 l 1,1,-1
 1173 -106 l 2,2,3
 1208 -106 1208 -106 1232.5 -131.5 c 128,-1,4
 1257 -157 1257 -157 1257 -192 c 0,5,6
 1257 -226 1257 -226 1232 -251 c 128,-1,7
 1207 -276 1207 -276 1173 -276 c 2,8,-1
 969 -276 l 2,9,10
 954 -276 954 -276 910 -251 c 0,11,12
 885 -237 885 -237 885 -190 c 2,13,-1
 885 84 l 1,14,-1
 1053 84 l 1,0,-1
457 606 m 2,15,-1
 786 606 l 2,16,17
 813 606 813 606 864 594 c 1,18,-1
 862 713 l 2,19,20
 862 748 862 748 837.5 772.5 c 128,-1,21
 813 797 813 797 778 797 c 2,22,-1
 459 797 l 2,23,24
 425 797 425 797 400 822 c 128,-1,25
 375 847 375 847 375 881 c 0,26,27
 375 916 375 916 399.5 940.5 c 128,-1,28
 424 965 424 965 459 965 c 2,29,-1
 778 965 l 2,30,31
 882 965 882 965 955.5 892 c 128,-1,32
 1029 819 1029 819 1032 713 c 2,33,-1
 1053 84 l 2,34,35
 1053 49 1053 49 1028 24.5 c 128,-1,36
 1003 0 1003 0 969 0 c 0,37,38
 933 0 933 0 908 24.5 c 128,-1,39
 883 49 883 49 883 84 c 1,40,-1
 741 0 l 1,41,-1
 457 0 l 2,42,43
 351 0 351 0 277 74 c 128,-1,44
 203 148 203 148 203 254 c 2,45,-1
 203 352 l 2,46,47
 203 457 203 457 277.5 531.5 c 128,-1,48
 352 606 352 606 457 606 c 2,15,-1
877 279 m 1,49,-1
 872 350 l 2,50,51
 871 386 871 386 847 410 c 128,-1,52
 823 434 823 434 788 434 c 2,53,-1
 457 434 l 2,54,55
 422 434 422 434 397.5 409.5 c 128,-1,56
 373 385 373 385 373 350 c 2,57,-1
 373 256 l 2,58,59
 373 222 373 222 398 197 c 128,-1,60
 423 172 423 172 457 172 c 2,61,-1
 694 172 l 1,62,-1
 877 279 l 1,49,-1
EndSplineSet
EndChar

StartChar: Cacute
Encoding: 262 262 9
Width: 1237
Flags: W
LayerCount: 2
Fore
SplineSet
668 168 m 2,0,-1
 971 168 l 2,1,2
 1006 168 1006 168 1031.5 143.5 c 128,-1,3
 1057 119 1057 119 1057 84 c 256,4,5
 1057 49 1057 49 1031.5 24.5 c 128,-1,6
 1006 0 1006 0 971 0 c 2,7,-1
 657 0 l 2,8,9
 597 0 597 0 533 38 c 128,-1,10
 469 76 469 76 444 123 c 2,11,-1
 250 498 l 2,12,13
 211 579 211 579 211 664 c 0,14,15
 211 758 211 758 248 827 c 2,16,-1
 444 1198 l 2,17,18
 472 1250 472 1250 531 1289.5 c 128,-1,19
 590 1329 590 1329 645 1329 c 2,20,-1
 977 1329 l 2,21,22
 1012 1329 1012 1329 1036.5 1304 c 128,-1,23
 1061 1279 1061 1279 1061 1245 c 0,24,25
 1061 1210 1061 1210 1036.5 1184.5 c 128,-1,26
 1012 1159 1012 1159 977 1159 c 2,27,-1
 657 1159 l 2,28,29
 617 1159 617 1159 592 1112 c 2,30,-1
 406 764 l 2,31,32
 384 723 384 723 384 667 c 0,33,34
 384 608 384 608 408 563 c 2,35,-1
 586 221 l 2,36,37
 611 168 611 168 668 168 c 2,0,-1
735 1685 m 2,38,39
 753 1693 753 1693 772 1693 c 0,40,41
 808 1693 808 1693 831 1666.5 c 128,-1,42
 854 1640 854 1640 854 1607 c 0,43,44
 854 1553 854 1553 807 1531 c 2,45,-1
 502 1390 l 2,46,47
 484 1382 484 1382 465 1382 c 0,48,49
 429 1382 429 1382 406 1408.5 c 128,-1,50
 383 1435 383 1435 383 1468 c 0,51,52
 383 1522 383 1522 430 1544 c 2,53,-1
 735 1685 l 2,38,39
EndSplineSet
EndChar

StartChar: cacute
Encoding: 263 263 10
Width: 1237
Flags: W
LayerCount: 2
Fore
SplineSet
971 0 m 2,0,-1
 612 0 l 2,1,2
 517 0 517 0 450 57 c 2,3,-1
 287 199 l 2,4,5
 209 264 209 264 209 375 c 2,6,-1
 209 594 l 1,7,8
 205 701 205 701 297 780 c 2,9,-1
 444 907 l 2,10,11
 515 965 515 965 596 965 c 2,12,-1
 973 965 l 2,13,14
 1008 965 1008 965 1032.5 940.5 c 128,-1,15
 1057 916 1057 916 1057 881 c 0,16,17
 1057 845 1057 845 1032.5 821 c 128,-1,18
 1008 797 1008 797 973 797 c 2,19,-1
 612 797 l 2,20,21
 578 797 578 797 547 770 c 2,22,-1
 412 655 l 2,23,24
 379 627 379 627 379 580 c 2,25,-1
 379 375 l 2,26,27
 379 342 379 342 405 319 c 2,28,-1
 553 193 l 2,29,30
 581 168 581 168 627 168 c 2,31,-1
 971 168 l 2,32,33
 1005 168 1005 168 1030 143.5 c 128,-1,34
 1055 119 1055 119 1055 84 c 256,35,36
 1055 49 1055 49 1030.5 24.5 c 128,-1,37
 1006 0 1006 0 971 0 c 2,0,-1
858 1321 m 2,38,39
 876 1329 876 1329 895 1329 c 0,40,41
 931 1329 931 1329 954 1302.5 c 128,-1,42
 977 1276 977 1276 977 1243 c 0,43,44
 977 1189 977 1189 930 1167 c 2,45,-1
 625 1026 l 2,46,47
 607 1018 607 1018 588 1018 c 0,48,49
 552 1018 552 1018 529 1044.5 c 128,-1,50
 506 1071 506 1071 506 1104 c 0,51,52
 506 1158 506 1158 553 1180 c 2,53,-1
 858 1321 l 2,38,39
EndSplineSet
EndChar

StartChar: Ccircumflex
Encoding: 264 264 11
Width: 1237
Flags: W
LayerCount: 2
Fore
SplineSet
668 168 m 2,0,-1
 971 168 l 2,1,2
 1006 168 1006 168 1031.5 143.5 c 128,-1,3
 1057 119 1057 119 1057 84 c 256,4,5
 1057 49 1057 49 1031.5 24.5 c 128,-1,6
 1006 0 1006 0 971 0 c 2,7,-1
 657 0 l 2,8,9
 597 0 597 0 533 38 c 128,-1,10
 469 76 469 76 444 123 c 2,11,-1
 250 498 l 2,12,13
 211 579 211 579 211 664 c 0,14,15
 211 758 211 758 248 827 c 2,16,-1
 444 1198 l 2,17,18
 472 1250 472 1250 531 1289.5 c 128,-1,19
 590 1329 590 1329 645 1329 c 2,20,-1
 977 1329 l 2,21,22
 1012 1329 1012 1329 1036.5 1304 c 128,-1,23
 1061 1279 1061 1279 1061 1245 c 0,24,25
 1061 1210 1061 1210 1036.5 1184.5 c 128,-1,26
 1012 1159 1012 1159 977 1159 c 2,27,-1
 657 1159 l 2,28,29
 617 1159 617 1159 592 1112 c 2,30,-1
 406 764 l 2,31,32
 384 723 384 723 384 667 c 0,33,34
 384 608 384 608 408 563 c 2,35,-1
 586 221 l 2,36,37
 611 168 611 168 668 168 c 2,0,-1
744 1515 m 1,38,-1
 474 1390 l 2,39,40
 457 1382 457 1382 438 1382 c 0,41,42
 402 1382 402 1382 378.5 1408.5 c 128,-1,43
 355 1435 355 1435 355 1468 c 0,44,45
 355 1522 355 1522 402 1544 c 2,46,-1
 708 1685 l 2,47,48
 728 1693 728 1693 744 1693 c 0,49,50
 764 1693 764 1693 781 1685 c 2,51,-1
 1087 1544 l 2,52,53
 1134 1520 1134 1520 1134 1468 c 0,54,55
 1134 1435 1134 1435 1110.5 1408.5 c 128,-1,56
 1087 1382 1087 1382 1051 1382 c 0,57,58
 1033 1382 1033 1382 1015 1390 c 2,59,-1
 744 1515 l 1,38,-1
EndSplineSet
EndChar

StartChar: ccircumflex
Encoding: 265 265 12
Width: 1237
Flags: W
LayerCount: 2
Fore
SplineSet
971 0 m 2,0,-1
 612 0 l 2,1,2
 517 0 517 0 450 57 c 2,3,-1
 287 199 l 2,4,5
 209 264 209 264 209 375 c 2,6,-1
 209 594 l 1,7,8
 205 701 205 701 297 780 c 2,9,-1
 444 907 l 2,10,11
 515 965 515 965 596 965 c 2,12,-1
 973 965 l 2,13,14
 1008 965 1008 965 1032.5 940.5 c 128,-1,15
 1057 916 1057 916 1057 881 c 0,16,17
 1057 845 1057 845 1032.5 821 c 128,-1,18
 1008 797 1008 797 973 797 c 2,19,-1
 612 797 l 2,20,21
 578 797 578 797 547 770 c 2,22,-1
 412 655 l 2,23,24
 379 627 379 627 379 580 c 2,25,-1
 379 375 l 2,26,27
 379 342 379 342 405 319 c 2,28,-1
 553 193 l 2,29,30
 581 168 581 168 627 168 c 2,31,-1
 971 168 l 2,32,33
 1005 168 1005 168 1030 143.5 c 128,-1,34
 1055 119 1055 119 1055 84 c 256,35,36
 1055 49 1055 49 1030.5 24.5 c 128,-1,37
 1006 0 1006 0 971 0 c 2,0,-1
681 1151 m 1,38,-1
 411 1026 l 2,39,40
 394 1018 394 1018 375 1018 c 0,41,42
 339 1018 339 1018 315.5 1044.5 c 128,-1,43
 292 1071 292 1071 292 1104 c 0,44,45
 292 1158 292 1158 339 1180 c 2,46,-1
 645 1321 l 2,47,48
 665 1329 665 1329 681 1329 c 0,49,50
 701 1329 701 1329 718 1321 c 2,51,-1
 1024 1180 l 2,52,53
 1071 1156 1071 1156 1071 1104 c 0,54,55
 1071 1071 1071 1071 1047.5 1044.5 c 128,-1,56
 1024 1018 1024 1018 988 1018 c 0,57,58
 970 1018 970 1018 952 1026 c 2,59,-1
 681 1151 l 1,38,-1
EndSplineSet
EndChar

StartChar: Cdotaccent
Encoding: 266 266 13
Width: 1237
Flags: W
LayerCount: 2
Fore
SplineSet
854 1478 m 2,0,1
 854 1444 854 1444 830 1418 c 0,2,3
 809 1396 809 1396 770 1396 c 0,4,5
 726 1396 726 1396 711 1421 c 0,6,7
 687 1460 687 1460 687 1478 c 2,8,-1
 687 1527 l 2,9,10
 687 1562 687 1562 711 1586 c 0,11,12
 734 1611 734 1611 770 1611 c 0,13,14
 807 1612 807 1612 830 1586 c 0,15,16
 854 1560 854 1560 854 1527 c 2,17,-1
 854 1478 l 2,0,1
668 168 m 2,18,-1
 971 168 l 2,19,20
 1006 168 1006 168 1031.5 143.5 c 128,-1,21
 1057 119 1057 119 1057 84 c 256,22,23
 1057 49 1057 49 1031.5 24.5 c 128,-1,24
 1006 0 1006 0 971 0 c 2,25,-1
 657 0 l 2,26,27
 597 0 597 0 533 38 c 128,-1,28
 469 76 469 76 444 123 c 2,29,-1
 250 498 l 2,30,31
 211 579 211 579 211 664 c 0,32,33
 211 758 211 758 248 827 c 2,34,-1
 444 1198 l 2,35,36
 472 1250 472 1250 531 1289.5 c 128,-1,37
 590 1329 590 1329 645 1329 c 2,38,-1
 977 1329 l 2,39,40
 1012 1329 1012 1329 1036.5 1304 c 128,-1,41
 1061 1279 1061 1279 1061 1245 c 0,42,43
 1061 1210 1061 1210 1036.5 1184.5 c 128,-1,44
 1012 1159 1012 1159 977 1159 c 2,45,-1
 657 1159 l 2,46,47
 617 1159 617 1159 592 1112 c 2,48,-1
 406 764 l 2,49,50
 384 723 384 723 384 667 c 0,51,52
 384 608 384 608 408 563 c 2,53,-1
 586 221 l 2,54,55
 611 168 611 168 668 168 c 2,18,-1
EndSplineSet
EndChar

StartChar: cdotaccent
Encoding: 267 267 14
Width: 1237
Flags: W
LayerCount: 2
Fore
SplineSet
826 1102 m 2,0,1
 826 1068 826 1068 802 1042 c 0,2,3
 781 1020 781 1020 742 1021 c 0,4,5
 698 1020 698 1020 683 1046 c 0,6,7
 659 1084 659 1084 659 1102 c 2,8,-1
 659 1152 l 2,9,10
 659 1186 659 1186 683 1211 c 0,11,12
 706 1235 706 1235 742 1236 c 0,13,14
 779 1236 779 1236 802 1211 c 0,15,16
 826 1184 826 1184 826 1152 c 2,17,-1
 826 1102 l 2,0,1
971 0 m 2,18,-1
 612 0 l 2,19,20
 517 0 517 0 450 57 c 2,21,-1
 287 199 l 2,22,23
 209 264 209 264 209 375 c 2,24,-1
 209 594 l 1,25,26
 205 701 205 701 297 780 c 2,27,-1
 444 907 l 2,28,29
 515 965 515 965 596 965 c 2,30,-1
 973 965 l 2,31,32
 1008 965 1008 965 1032.5 940.5 c 128,-1,33
 1057 916 1057 916 1057 881 c 0,34,35
 1057 845 1057 845 1032.5 821 c 128,-1,36
 1008 797 1008 797 973 797 c 2,37,-1
 612 797 l 2,38,39
 578 797 578 797 547 770 c 2,40,-1
 412 655 l 2,41,42
 379 627 379 627 379 580 c 2,43,-1
 379 375 l 2,44,45
 379 342 379 342 405 319 c 2,46,-1
 553 193 l 2,47,48
 581 168 581 168 627 168 c 2,49,-1
 971 168 l 2,50,51
 1005 168 1005 168 1030 143.5 c 128,-1,52
 1055 119 1055 119 1055 84 c 256,53,54
 1055 49 1055 49 1030.5 24.5 c 128,-1,55
 1006 0 1006 0 971 0 c 2,18,-1
EndSplineSet
EndChar

StartChar: Ccaron
Encoding: 268 268 15
Width: 1237
Flags: W
LayerCount: 2
Fore
SplineSet
668 168 m 2,0,-1
 971 168 l 2,1,2
 1006 168 1006 168 1031.5 143.5 c 128,-1,3
 1057 119 1057 119 1057 84 c 256,4,5
 1057 49 1057 49 1031.5 24.5 c 128,-1,6
 1006 0 1006 0 971 0 c 2,7,-1
 657 0 l 2,8,9
 597 0 597 0 533 38 c 128,-1,10
 469 76 469 76 444 123 c 2,11,-1
 250 498 l 2,12,13
 211 579 211 579 211 664 c 0,14,15
 211 758 211 758 248 827 c 2,16,-1
 444 1198 l 2,17,18
 472 1250 472 1250 531 1289.5 c 128,-1,19
 590 1329 590 1329 645 1329 c 2,20,-1
 977 1329 l 2,21,22
 1012 1329 1012 1329 1036.5 1304 c 128,-1,23
 1061 1279 1061 1279 1061 1245 c 0,24,25
 1061 1210 1061 1210 1036.5 1184.5 c 128,-1,26
 1012 1159 1012 1159 977 1159 c 2,27,-1
 657 1159 l 2,28,29
 617 1159 617 1159 592 1112 c 2,30,-1
 406 764 l 2,31,32
 384 723 384 723 384 667 c 0,33,34
 384 608 384 608 408 563 c 2,35,-1
 586 221 l 2,36,37
 611 168 611 168 668 168 c 2,0,-1
750 1560 m 1,38,-1
 1021 1685 l 2,39,40
 1038 1693 1038 1693 1057 1693 c 0,41,42
 1093 1693 1093 1693 1116.5 1666.5 c 128,-1,43
 1140 1640 1140 1640 1140 1607 c 0,44,45
 1140 1553 1140 1553 1093 1531 c 2,46,-1
 787 1390 l 2,47,48
 767 1382 767 1382 750 1382 c 0,49,50
 731 1382 731 1382 714 1390 c 2,51,-1
 408 1531 l 2,52,53
 361 1555 361 1555 361 1607 c 0,54,55
 361 1640 361 1640 384.5 1666.5 c 128,-1,56
 408 1693 408 1693 444 1693 c 0,57,58
 462 1693 462 1693 480 1685 c 2,59,-1
 750 1560 l 1,38,-1
EndSplineSet
EndChar

StartChar: ccaron
Encoding: 269 269 16
Width: 1237
Flags: W
LayerCount: 2
Fore
SplineSet
971 0 m 2,0,-1
 612 0 l 2,1,2
 517 0 517 0 450 57 c 2,3,-1
 287 199 l 2,4,5
 209 264 209 264 209 375 c 2,6,-1
 209 594 l 1,7,8
 205 701 205 701 297 780 c 2,9,-1
 444 907 l 2,10,11
 515 965 515 965 596 965 c 2,12,-1
 973 965 l 2,13,14
 1008 965 1008 965 1032.5 940.5 c 128,-1,15
 1057 916 1057 916 1057 881 c 0,16,17
 1057 845 1057 845 1032.5 821 c 128,-1,18
 1008 797 1008 797 973 797 c 2,19,-1
 612 797 l 2,20,21
 578 797 578 797 547 770 c 2,22,-1
 412 655 l 2,23,24
 379 627 379 627 379 580 c 2,25,-1
 379 375 l 2,26,27
 379 342 379 342 405 319 c 2,28,-1
 553 193 l 2,29,30
 581 168 581 168 627 168 c 2,31,-1
 971 168 l 2,32,33
 1005 168 1005 168 1030 143.5 c 128,-1,34
 1055 119 1055 119 1055 84 c 256,35,36
 1055 49 1055 49 1030.5 24.5 c 128,-1,37
 1006 0 1006 0 971 0 c 2,0,-1
717 1199 m 1,38,-1
 988 1324 l 2,39,40
 1005 1332 1005 1332 1024 1332 c 0,41,42
 1060 1332 1060 1332 1083.5 1305.5 c 128,-1,43
 1107 1279 1107 1279 1107 1246 c 0,44,45
 1107 1192 1107 1192 1060 1170 c 2,46,-1
 754 1029 l 2,47,48
 734 1021 734 1021 717 1021 c 0,49,50
 698 1021 698 1021 681 1029 c 2,51,-1
 375 1170 l 2,52,53
 328 1194 328 1194 328 1246 c 0,54,55
 328 1279 328 1279 351.5 1305.5 c 128,-1,56
 375 1332 375 1332 411 1332 c 0,57,58
 429 1332 429 1332 447 1324 c 2,59,-1
 717 1199 l 1,38,-1
EndSplineSet
EndChar

StartChar: Dcaron
Encoding: 270 270 17
Width: 1237
Flags: W
LayerCount: 2
Fore
SplineSet
627 1556 m 1,0,-1
 898 1681 l 2,1,2
 915 1689 915 1689 934 1689 c 0,3,4
 970 1689 970 1689 993.5 1662.5 c 128,-1,5
 1017 1636 1017 1636 1017 1622 c 0,6,7
 1017 1549 1017 1549 970 1527 c 2,8,-1
 664 1386 l 2,9,10
 647 1378 647 1378 627 1378 c 0,11,12
 608 1378 608 1378 591 1386 c 2,13,-1
 285 1527 l 2,14,15
 238 1549 238 1549 238 1603 c 0,16,17
 238 1636 238 1636 261.5 1662.5 c 128,-1,18
 285 1689 285 1689 321 1689 c 0,19,20
 340 1689 340 1689 357 1681 c 2,21,-1
 627 1556 l 1,0,-1
289 1329 m 2,22,-1
 621 1329 l 2,23,24
 686 1328 686 1328 747.5 1287 c 128,-1,25
 809 1246 809 1246 838 1188 c 2,26,-1
 1004 852 l 2,27,28
 1051 761 1051 761 1051 662 c 0,29,30
 1051 570 1051 570 1001 473 c 2,31,-1
 834 141 l 2,32,33
 802 77 802 77 742 38.5 c 128,-1,34
 682 0 682 0 608 0 c 2,35,-1
 287 0 l 2,36,37
 252 0 252 0 227.5 25 c 128,-1,38
 203 50 203 50 203 84 c 0,39,40
 203 119 203 119 227.5 144.5 c 128,-1,41
 252 170 252 170 287 170 c 2,42,-1
 375 170 l 1,43,-1
 375 1159 l 1,44,-1
 289 1159 l 2,45,46
 254 1159 254 1159 229.5 1184.5 c 128,-1,47
 205 1210 205 1210 205 1245 c 0,48,49
 205 1279 205 1279 229.5 1304 c 128,-1,50
 254 1329 254 1329 289 1329 c 2,22,-1
543 1159 m 1,51,-1
 543 168 l 1,52,-1
 602 168 l 2,53,54
 658 168 658 168 686 223 c 2,55,-1
 852 553 l 2,56,57
 883 618 883 618 883 662 c 0,58,59
 883 717 883 717 858 766 c 2,60,-1
 686 1108 l 2,61,62
 659 1159 659 1159 598 1159 c 2,63,-1
 543 1159 l 1,51,-1
EndSplineSet
EndChar

StartChar: dcaron
Encoding: 271 271 18
Width: 1237
Flags: W
LayerCount: 2
Fore
SplineSet
1046 1319 m 2,0,-1
 1146 1319 l 2,1,2
 1167 1319 1167 1319 1182 1304 c 128,-1,3
 1197 1289 1197 1289 1197 1268 c 0,4,5
 1197 1262 1197 1262 1195 1256 c 2,6,-1
 1094 909 l 2,7,8
 1082 871 1082 871 1045 871 c 0,9,10
 1023 871 1023 871 1008 886.5 c 128,-1,11
 993 902 993 902 993 925 c 2,12,-1
 993 1263 l 2,13,14
 993 1287 993 1287 1007.5 1303 c 128,-1,15
 1022 1319 1022 1319 1046 1319 c 2,0,-1
722 848 m 1,16,-1
 722 1245 l 2,17,18
 722 1280 722 1280 746 1304.5 c 128,-1,19
 770 1329 770 1329 804 1329 c 0,20,21
 839 1329 839 1329 864.5 1304.5 c 128,-1,22
 890 1280 890 1280 890 1245 c 2,23,-1
 890 84 l 2,24,25
 890 49 890 49 865 24.5 c 128,-1,26
 840 0 840 0 806 0 c 0,27,28
 770 0 770 0 746 24.5 c 128,-1,29
 722 49 722 49 722 84 c 2,30,-1
 722 121 l 1,31,32
 599 0 599 0 492 0 c 2,33,-1
 349 0 l 2,34,35
 263 0 263 0 177 74 c 2,36,-1
 107 133 l 2,37,38
 83 156 83 156 61.5 210 c 128,-1,39
 40 264 40 264 40 311 c 2,40,-1
 40 653 l 2,41,42
 40 710 40 710 64 763.5 c 128,-1,43
 88 817 88 817 120 844 c 2,44,-1
 189 903 l 2,45,46
 263 967 263 967 363 967 c 2,47,-1
 484 967 l 2,48,49
 583 967 583 967 664 897 c 2,50,-1
 722 848 l 1,16,-1
478 797 m 2,51,-1
 361 797 l 2,52,53
 324 797 324 797 294 770 c 2,54,-1
 240 723 l 2,55,56
 212 698 212 698 212 659 c 2,57,-1
 212 303 l 2,58,59
 212 268 212 268 245 240 c 2,60,-1
 300 193 l 2,61,62
 326 170 326 170 355 170 c 2,63,-1
 492 170 l 2,64,65
 519 170 519 170 556 201 c 2,66,-1
 689 311 l 2,67,68
 722 340 722 340 722 383 c 2,69,-1
 722 565 l 2,70,71
 722 626 722 626 687 655 c 2,72,-1
 550 772 l 2,73,74
 523 797 523 797 478 797 c 2,51,-1
EndSplineSet
EndChar

StartChar: Dcroat
Encoding: 272 272 19
Width: 1237
Flags: W
LayerCount: 2
Fore
SplineSet
375 1159 m 1,0,-1
 289 1159 l 2,1,2
 254 1159 254 1159 229.5 1184.5 c 128,-1,3
 205 1210 205 1210 205 1245 c 0,4,5
 205 1279 205 1279 229.5 1304 c 128,-1,6
 254 1329 254 1329 289 1329 c 2,7,-1
 621 1329 l 2,8,9
 686 1328 686 1328 747.5 1287 c 128,-1,10
 809 1246 809 1246 838 1188 c 2,11,-1
 1004 852 l 2,12,13
 1051 761 1051 761 1051 662 c 0,14,15
 1051 570 1051 570 1001 473 c 2,16,-1
 834 141 l 2,17,18
 802 77 802 77 742 38.5 c 128,-1,19
 682 0 682 0 608 0 c 2,20,-1
 287 0 l 2,21,22
 252 0 252 0 227.5 25 c 128,-1,23
 203 50 203 50 203 84 c 0,24,25
 203 119 203 119 227.5 144.5 c 128,-1,26
 252 170 252 170 287 170 c 2,27,-1
 375 170 l 1,28,-1
 375 584 l 1,29,-1
 287 584 l 2,30,31
 253 584 253 584 228 608.5 c 128,-1,32
 203 633 203 633 203 668 c 0,33,34
 203 702 203 702 228 727 c 128,-1,35
 253 752 253 752 287 752 c 2,36,-1
 375 752 l 1,37,-1
 375 1159 l 1,0,-1
543 168 m 1,38,-1
 602 168 l 2,39,40
 658 168 658 168 686 223 c 2,41,-1
 852 553 l 2,42,43
 883 618 883 618 883 662 c 0,44,45
 883 717 883 717 858 766 c 2,46,-1
 686 1108 l 2,47,48
 659 1159 659 1159 598 1159 c 2,49,-1
 543 1159 l 1,50,-1
 543 752 l 1,51,-1
 627 752 l 2,52,53
 662 752 662 752 687.5 727.5 c 128,-1,54
 713 703 713 703 713 668 c 256,55,56
 713 633 713 633 687.5 608.5 c 128,-1,57
 662 584 662 584 627 584 c 2,58,-1
 543 584 l 1,59,-1
 543 168 l 1,38,-1
EndSplineSet
EndChar

StartChar: dcroat
Encoding: 273 273 20
Width: 1236
Flags: W
LayerCount: 2
Fore
SplineSet
885 1026 m 1,0,-1
 797 1026 l 2,1,2
 763 1026 763 1026 738 1051 c 128,-1,3
 713 1076 713 1076 713 1110 c 256,4,5
 713 1144 713 1144 738 1169 c 128,-1,6
 763 1194 763 1194 797 1194 c 2,7,-1
 1053 1194 l 1,8,-1
 1137 1194 l 2,9,10
 1172 1194 1172 1194 1197.5 1170 c 128,-1,11
 1223 1146 1223 1146 1223 1110 c 0,12,13
 1223 1076 1223 1076 1197.5 1051 c 128,-1,14
 1172 1026 1172 1026 1137 1026 c 2,15,-1
 885 1026 l 1,0,-1
883 848 m 1,16,-1
 883 1245 l 2,17,18
 883 1280 883 1280 907 1304.5 c 128,-1,19
 931 1329 931 1329 965 1329 c 0,20,21
 1000 1329 1000 1329 1025.5 1304.5 c 128,-1,22
 1051 1280 1051 1280 1051 1245 c 2,23,-1
 1051 84 l 2,24,25
 1051 49 1051 49 1026 24.5 c 128,-1,26
 1001 0 1001 0 967 0 c 0,27,28
 931 0 931 0 907 24.5 c 128,-1,29
 883 49 883 49 883 84 c 2,30,-1
 883 121 l 1,31,32
 760 0 760 0 653 0 c 2,33,-1
 510 0 l 2,34,35
 424 0 424 0 338 74 c 2,36,-1
 268 133 l 2,37,38
 244 156 244 156 222.5 210 c 128,-1,39
 201 264 201 264 201 311 c 2,40,-1
 201 653 l 2,41,42
 201 710 201 710 225 763.5 c 128,-1,43
 249 817 249 817 281 844 c 2,44,-1
 350 903 l 2,45,46
 424 967 424 967 524 967 c 2,47,-1
 645 967 l 2,48,49
 744 967 744 967 825 897 c 2,50,-1
 883 848 l 1,16,-1
639 797 m 2,51,-1
 522 797 l 2,52,53
 485 797 485 797 455 770 c 2,54,-1
 401 723 l 2,55,56
 373 698 373 698 373 659 c 2,57,-1
 373 303 l 2,58,59
 373 268 373 268 406 240 c 2,60,-1
 461 193 l 2,61,62
 487 170 487 170 516 170 c 2,63,-1
 653 170 l 2,64,65
 680 170 680 170 717 201 c 2,66,-1
 850 311 l 2,67,68
 883 340 883 340 883 383 c 2,69,-1
 883 565 l 2,70,71
 883 626 883 626 848 655 c 2,72,-1
 711 772 l 2,73,74
 684 797 684 797 639 797 c 2,51,-1
EndSplineSet
EndChar

StartChar: Emacron
Encoding: 274 274 21
Width: 1237
Flags: W
LayerCount: 2
Fore
SplineSet
889 1598 m 2,0,1
 924 1598 924 1598 949.5 1573 c 128,-1,2
 975 1548 975 1548 975 1514 c 0,3,4
 975 1478 975 1478 949.5 1454 c 128,-1,5
 924 1430 924 1430 889 1430 c 2,6,-1
 369 1430 l 2,7,8
 335 1430 335 1430 310 1455 c 128,-1,9
 285 1480 285 1480 285 1514 c 256,10,11
 285 1548 285 1548 310 1573 c 128,-1,12
 335 1598 335 1598 369 1598 c 2,13,-1
 889 1598 l 2,0,1
969 1159 m 2,14,-1
 375 1159 l 1,15,-1
 375 750 l 1,16,-1
 631 750 l 2,17,18
 665 750 665 750 690 725 c 128,-1,19
 715 700 715 700 715 666 c 0,20,21
 715 630 715 630 690.5 605 c 128,-1,22
 666 580 666 580 631 580 c 2,23,-1
 375 580 l 1,24,-1
 375 168 l 1,25,-1
 971 168 l 2,26,27
 1005 168 1005 168 1030 143.5 c 128,-1,28
 1055 119 1055 119 1055 84 c 256,29,30
 1055 49 1055 49 1029.5 24.5 c 128,-1,31
 1004 0 1004 0 969 0 c 2,32,-1
 207 0 l 1,33,-1
 207 1329 l 1,34,-1
 969 1329 l 2,35,36
 1004 1329 1004 1329 1029.5 1303.5 c 128,-1,37
 1055 1278 1055 1278 1055 1243 c 0,38,39
 1055 1209 1055 1209 1029.5 1184 c 128,-1,40
 1004 1159 1004 1159 969 1159 c 2,14,-1
EndSplineSet
EndChar

StartChar: emacron
Encoding: 275 275 22
Width: 1237
Flags: W
LayerCount: 2
Fore
SplineSet
889 1283 m 2,0,1
 924 1283 924 1283 949.5 1258.5 c 128,-1,2
 975 1234 975 1234 975 1199 c 256,3,4
 975 1164 975 1164 949.5 1139.5 c 128,-1,5
 924 1115 924 1115 889 1115 c 2,6,-1
 369 1115 l 2,7,8
 335 1115 335 1115 310 1140 c 128,-1,9
 285 1165 285 1165 285 1199 c 0,10,11
 285 1234 285 1234 310 1258.5 c 128,-1,12
 335 1283 335 1283 369 1283 c 2,13,-1
 889 1283 l 2,0,1
1053 649 m 2,14,-1
 1053 446 l 2,15,16
 1053 412 1053 412 1028 387 c 128,-1,17
 1003 362 1003 362 969 362 c 2,18,-1
 375 362 l 1,19,-1
 375 313 l 2,20,21
 375 270 375 270 412 240 c 2,22,-1
 461 199 l 2,23,24
 501 168 501 168 537 168 c 2,25,-1
 969 168 l 2,26,27
 1003 168 1003 168 1028 143.5 c 128,-1,28
 1053 119 1053 119 1053 84 c 0,29,30
 1053 50 1053 50 1027.5 25 c 128,-1,31
 1002 0 1002 0 969 0 c 2,32,-1
 526 0 l 2,33,34
 482 0 482 0 433.5 18.5 c 128,-1,35
 385 37 385 37 362 57 c 2,36,-1
 287 123 l 2,37,38
 252 151 252 151 228.5 201 c 128,-1,39
 205 251 205 251 205 293 c 2,40,-1
 205 678 l 2,41,42
 205 711 205 711 230.5 767 c 128,-1,43
 256 823 256 823 295 854 c 2,44,-1
 365 909 l 2,45,46
 434 965 434 965 518 965 c 2,47,-1
 754 965 l 2,48,49
 843 965 843 965 922 891 c 2,50,-1
 985 831 l 2,51,52
 1053 770 1053 770 1053 649 c 2,14,-1
377 662 m 2,53,-1
 377 532 l 1,54,-1
 887 532 l 1,55,-1
 887 649 l 2,56,57
 887 696 887 696 858 721 c 2,58,-1
 809 764 l 2,59,60
 771 795 771 795 741 795 c 2,61,-1
 530 795 l 2,62,63
 491 795 491 795 459 768 c 2,64,-1
 410 727 l 2,65,66
 377 702 377 702 377 662 c 2,53,-1
EndSplineSet
EndChar

StartChar: Ebreve
Encoding: 276 276 23
Width: 1237
Flags: W
LayerCount: 2
Fore
SplineSet
941 1747 m 0,0,1
 976 1747 976 1747 1001.5 1725.5 c 128,-1,2
 1027 1704 1027 1704 1027 1675 c 0,3,4
 1027 1608 1027 1608 906 1522 c 128,-1,5
 785 1436 785 1436 637 1436 c 0,6,7
 490 1436 490 1436 369 1522 c 128,-1,8
 248 1608 248 1608 248 1675 c 0,9,10
 248 1704 248 1704 273.5 1725.5 c 128,-1,11
 299 1747 299 1747 334 1747 c 0,12,13
 375 1747 375 1747 400 1723 c 0,14,15
 509 1606 509 1606 637 1606 c 0,16,17
 766 1606 766 1606 875 1723 c 0,18,19
 900 1747 900 1747 941 1747 c 0,0,1
969 1159 m 2,20,-1
 375 1159 l 1,21,-1
 375 750 l 1,22,-1
 631 750 l 2,23,24
 665 750 665 750 690 725 c 128,-1,25
 715 700 715 700 715 666 c 0,26,27
 715 630 715 630 690.5 605 c 128,-1,28
 666 580 666 580 631 580 c 2,29,-1
 375 580 l 1,30,-1
 375 168 l 1,31,-1
 971 168 l 2,32,33
 1005 168 1005 168 1030 143.5 c 128,-1,34
 1055 119 1055 119 1055 84 c 256,35,36
 1055 49 1055 49 1029.5 24.5 c 128,-1,37
 1004 0 1004 0 969 0 c 2,38,-1
 207 0 l 1,39,-1
 207 1329 l 1,40,-1
 969 1329 l 2,41,42
 1004 1329 1004 1329 1029.5 1303.5 c 128,-1,43
 1055 1278 1055 1278 1055 1243 c 0,44,45
 1055 1209 1055 1209 1029.5 1184 c 128,-1,46
 1004 1159 1004 1159 969 1159 c 2,20,-1
EndSplineSet
EndChar

StartChar: ebreve
Encoding: 277 277 24
Width: 1237
Flags: W
LayerCount: 2
Fore
SplineSet
941 1408 m 0,0,1
 976 1408 976 1408 1001.5 1386.5 c 128,-1,2
 1027 1365 1027 1365 1027 1336 c 0,3,4
 1027 1269 1027 1269 906 1183 c 128,-1,5
 785 1097 785 1097 637 1097 c 0,6,7
 490 1097 490 1097 369 1183 c 128,-1,8
 248 1269 248 1269 248 1336 c 0,9,10
 248 1365 248 1365 273.5 1386.5 c 128,-1,11
 299 1408 299 1408 334 1408 c 0,12,13
 375 1408 375 1408 400 1384 c 0,14,15
 509 1267 509 1267 637 1267 c 0,16,17
 766 1267 766 1267 875 1384 c 0,18,19
 900 1408 900 1408 941 1408 c 0,0,1
1053 649 m 2,20,-1
 1053 446 l 2,21,22
 1053 412 1053 412 1028 387 c 128,-1,23
 1003 362 1003 362 969 362 c 2,24,-1
 375 362 l 1,25,-1
 375 313 l 2,26,27
 375 270 375 270 412 240 c 2,28,-1
 461 199 l 2,29,30
 501 168 501 168 537 168 c 2,31,-1
 969 168 l 2,32,33
 1003 168 1003 168 1028 143.5 c 128,-1,34
 1053 119 1053 119 1053 84 c 0,35,36
 1053 50 1053 50 1027.5 25 c 128,-1,37
 1002 0 1002 0 969 0 c 2,38,-1
 526 0 l 2,39,40
 482 0 482 0 433.5 18.5 c 128,-1,41
 385 37 385 37 362 57 c 2,42,-1
 287 123 l 2,43,44
 252 151 252 151 228.5 201 c 128,-1,45
 205 251 205 251 205 293 c 2,46,-1
 205 678 l 2,47,48
 205 711 205 711 230.5 767 c 128,-1,49
 256 823 256 823 295 854 c 2,50,-1
 365 909 l 2,51,52
 434 965 434 965 518 965 c 2,53,-1
 754 965 l 2,54,55
 843 965 843 965 922 891 c 2,56,-1
 985 831 l 2,57,58
 1053 770 1053 770 1053 649 c 2,20,-1
377 662 m 2,59,-1
 377 532 l 1,60,-1
 887 532 l 1,61,-1
 887 649 l 2,62,63
 887 696 887 696 858 721 c 2,64,-1
 809 764 l 2,65,66
 771 795 771 795 741 795 c 2,67,-1
 530 795 l 2,68,69
 491 795 491 795 459 768 c 2,70,-1
 410 727 l 2,71,72
 377 702 377 702 377 662 c 2,59,-1
EndSplineSet
EndChar

StartChar: Edotaccent
Encoding: 278 278 25
Width: 1237
Flags: W
LayerCount: 2
Fore
SplineSet
731 1478 m 2,0,1
 731 1444 731 1444 707 1418 c 0,2,3
 686 1396 686 1396 647 1396 c 0,4,5
 603 1396 603 1396 588 1421 c 0,6,7
 564 1460 564 1460 564 1478 c 2,8,-1
 564 1527 l 2,9,10
 564 1562 564 1562 588 1586 c 0,11,12
 611 1611 611 1611 647 1611 c 0,13,14
 684 1612 684 1612 707 1586 c 0,15,16
 731 1560 731 1560 731 1527 c 2,17,-1
 731 1478 l 2,0,1
969 1159 m 2,18,-1
 375 1159 l 1,19,-1
 375 750 l 1,20,-1
 631 750 l 2,21,22
 665 750 665 750 690 725 c 128,-1,23
 715 700 715 700 715 666 c 0,24,25
 715 630 715 630 690.5 605 c 128,-1,26
 666 580 666 580 631 580 c 2,27,-1
 375 580 l 1,28,-1
 375 168 l 1,29,-1
 971 168 l 2,30,31
 1005 168 1005 168 1030 143.5 c 128,-1,32
 1055 119 1055 119 1055 84 c 256,33,34
 1055 49 1055 49 1029.5 24.5 c 128,-1,35
 1004 0 1004 0 969 0 c 2,36,-1
 207 0 l 1,37,-1
 207 1329 l 1,38,-1
 969 1329 l 2,39,40
 1004 1329 1004 1329 1029.5 1303.5 c 128,-1,41
 1055 1278 1055 1278 1055 1243 c 0,42,43
 1055 1209 1055 1209 1029.5 1184 c 128,-1,44
 1004 1159 1004 1159 969 1159 c 2,18,-1
EndSplineSet
EndChar

StartChar: edotaccent
Encoding: 279 279 26
Width: 1237
Flags: W
LayerCount: 2
Fore
SplineSet
731 1118 m 2,0,1
 731 1084 731 1084 707 1058 c 0,2,3
 686 1036 686 1036 647 1036 c 0,4,5
 603 1036 603 1036 588 1061 c 0,6,7
 564 1100 564 1100 564 1118 c 2,8,-1
 564 1167 l 2,9,10
 564 1202 564 1202 588 1226 c 0,11,12
 611 1251 611 1251 647 1251 c 0,13,14
 684 1252 684 1252 707 1226 c 0,15,16
 731 1200 731 1200 731 1167 c 2,17,-1
 731 1118 l 2,0,1
1053 649 m 2,18,-1
 1053 446 l 2,19,20
 1053 412 1053 412 1028 387 c 128,-1,21
 1003 362 1003 362 969 362 c 2,22,-1
 375 362 l 1,23,-1
 375 313 l 2,24,25
 375 270 375 270 412 240 c 2,26,-1
 461 199 l 2,27,28
 501 168 501 168 537 168 c 2,29,-1
 969 168 l 2,30,31
 1003 168 1003 168 1028 143.5 c 128,-1,32
 1053 119 1053 119 1053 84 c 0,33,34
 1053 50 1053 50 1027.5 25 c 128,-1,35
 1002 0 1002 0 969 0 c 2,36,-1
 526 0 l 2,37,38
 482 0 482 0 433.5 18.5 c 128,-1,39
 385 37 385 37 362 57 c 2,40,-1
 287 123 l 2,41,42
 252 151 252 151 228.5 201 c 128,-1,43
 205 251 205 251 205 293 c 2,44,-1
 205 678 l 2,45,46
 205 711 205 711 230.5 767 c 128,-1,47
 256 823 256 823 295 854 c 2,48,-1
 365 909 l 2,49,50
 434 965 434 965 518 965 c 2,51,-1
 754 965 l 2,52,53
 843 965 843 965 922 891 c 2,54,-1
 985 831 l 2,55,56
 1053 770 1053 770 1053 649 c 2,18,-1
377 662 m 2,57,-1
 377 532 l 1,58,-1
 887 532 l 1,59,-1
 887 649 l 2,60,61
 887 696 887 696 858 721 c 2,62,-1
 809 764 l 2,63,64
 771 795 771 795 741 795 c 2,65,-1
 530 795 l 2,66,67
 491 795 491 795 459 768 c 2,68,-1
 410 727 l 2,69,70
 377 702 377 702 377 662 c 2,57,-1
EndSplineSet
EndChar

StartChar: Eogonek
Encoding: 280 280 27
Width: 1237
Flags: W
LayerCount: 2
Fore
SplineSet
969 0 m 1,0,-1
 969 -190 l 1,1,-1
 1089 -190 l 2,2,3
 1124 -190 1124 -190 1148.5 -215.5 c 128,-1,4
 1173 -241 1173 -241 1173 -276 c 0,5,6
 1173 -310 1173 -310 1148 -335 c 128,-1,7
 1123 -360 1123 -360 1089 -360 c 2,8,-1
 885 -360 l 2,9,10
 870 -360 870 -360 826 -335 c 0,11,12
 801 -321 801 -321 801 -274 c 2,13,-1
 801 0 l 1,14,-1
 969 0 l 1,0,-1
969 0 m 1024,15,16
799 0 m 1024,17,-1
969 1159 m 2,18,-1
 375 1159 l 1,19,-1
 375 750 l 1,20,-1
 631 750 l 2,21,22
 665 750 665 750 690 725 c 128,-1,23
 715 700 715 700 715 666 c 0,24,25
 715 630 715 630 690.5 605 c 128,-1,26
 666 580 666 580 631 580 c 2,27,-1
 375 580 l 1,28,-1
 375 168 l 1,29,-1
 971 168 l 2,30,31
 1005 168 1005 168 1030 143.5 c 128,-1,32
 1055 119 1055 119 1055 84 c 256,33,34
 1055 49 1055 49 1029.5 24.5 c 128,-1,35
 1004 0 1004 0 969 0 c 2,36,-1
 207 0 l 1,37,-1
 207 1329 l 1,38,-1
 969 1329 l 2,39,40
 1004 1329 1004 1329 1029.5 1303.5 c 128,-1,41
 1055 1278 1055 1278 1055 1243 c 0,42,43
 1055 1209 1055 1209 1029.5 1184 c 128,-1,44
 1004 1159 1004 1159 969 1159 c 2,18,-1
EndSplineSet
EndChar

StartChar: eogonek
Encoding: 281 281 28
Width: 1237
Flags: W
LayerCount: 2
Fore
SplineSet
969 0 m 1,0,-1
 969 -190 l 1,1,-1
 1089 -190 l 2,2,3
 1124 -190 1124 -190 1148.5 -215.5 c 128,-1,4
 1173 -241 1173 -241 1173 -276 c 0,5,6
 1173 -310 1173 -310 1148 -335 c 128,-1,7
 1123 -360 1123 -360 1089 -360 c 2,8,-1
 885 -360 l 2,9,10
 870 -360 870 -360 826 -335 c 0,11,12
 801 -321 801 -321 801 -274 c 2,13,-1
 801 0 l 1,14,-1
 969 0 l 1,0,-1
969 0 m 1024,15,16
799 0 m 1024,17,-1
1053 649 m 2,18,-1
 1053 446 l 2,19,20
 1053 412 1053 412 1028 387 c 128,-1,21
 1003 362 1003 362 969 362 c 2,22,-1
 375 362 l 1,23,-1
 375 313 l 2,24,25
 375 270 375 270 412 240 c 2,26,-1
 461 199 l 2,27,28
 501 168 501 168 537 168 c 2,29,-1
 969 168 l 2,30,31
 1003 168 1003 168 1028 143.5 c 128,-1,32
 1053 119 1053 119 1053 84 c 0,33,34
 1053 50 1053 50 1027.5 25 c 128,-1,35
 1002 0 1002 0 969 0 c 2,36,-1
 526 0 l 2,37,38
 482 0 482 0 433.5 18.5 c 128,-1,39
 385 37 385 37 362 57 c 2,40,-1
 287 123 l 2,41,42
 252 151 252 151 228.5 201 c 128,-1,43
 205 251 205 251 205 293 c 2,44,-1
 205 678 l 2,45,46
 205 711 205 711 230.5 767 c 128,-1,47
 256 823 256 823 295 854 c 2,48,-1
 365 909 l 2,49,50
 434 965 434 965 518 965 c 2,51,-1
 754 965 l 2,52,53
 843 965 843 965 922 891 c 2,54,-1
 985 831 l 2,55,56
 1053 770 1053 770 1053 649 c 2,18,-1
377 662 m 2,57,-1
 377 532 l 1,58,-1
 887 532 l 1,59,-1
 887 649 l 2,60,61
 887 696 887 696 858 721 c 2,62,-1
 809 764 l 2,63,64
 771 795 771 795 741 795 c 2,65,-1
 530 795 l 2,66,67
 491 795 491 795 459 768 c 2,68,-1
 410 727 l 2,69,70
 377 702 377 702 377 662 c 2,57,-1
EndSplineSet
EndChar

StartChar: Ecaron
Encoding: 282 282 29
Width: 1237
Flags: W
LayerCount: 2
Fore
SplineSet
627 1556 m 1,0,-1
 898 1681 l 2,1,2
 915 1689 915 1689 934 1689 c 0,3,4
 970 1689 970 1689 993.5 1662.5 c 128,-1,5
 1017 1636 1017 1636 1017 1622 c 0,6,7
 1017 1549 1017 1549 970 1527 c 2,8,-1
 664 1386 l 2,9,10
 647 1378 647 1378 627 1378 c 0,11,12
 608 1378 608 1378 591 1386 c 2,13,-1
 285 1527 l 2,14,15
 238 1549 238 1549 238 1603 c 0,16,17
 238 1636 238 1636 261.5 1662.5 c 128,-1,18
 285 1689 285 1689 321 1689 c 0,19,20
 340 1689 340 1689 357 1681 c 2,21,-1
 627 1556 l 1,0,-1
969 1159 m 2,22,-1
 375 1159 l 1,23,-1
 375 750 l 1,24,-1
 631 750 l 2,25,26
 665 750 665 750 690 725 c 128,-1,27
 715 700 715 700 715 666 c 0,28,29
 715 630 715 630 690.5 605 c 128,-1,30
 666 580 666 580 631 580 c 2,31,-1
 375 580 l 1,32,-1
 375 168 l 1,33,-1
 971 168 l 2,34,35
 1005 168 1005 168 1030 143.5 c 128,-1,36
 1055 119 1055 119 1055 84 c 256,37,38
 1055 49 1055 49 1029.5 24.5 c 128,-1,39
 1004 0 1004 0 969 0 c 2,40,-1
 207 0 l 1,41,-1
 207 1329 l 1,42,-1
 969 1329 l 2,43,44
 1004 1329 1004 1329 1029.5 1303.5 c 128,-1,45
 1055 1278 1055 1278 1055 1243 c 0,46,47
 1055 1209 1055 1209 1029.5 1184 c 128,-1,48
 1004 1159 1004 1159 969 1159 c 2,22,-1
EndSplineSet
EndChar

StartChar: ecaron
Encoding: 283 283 30
Width: 1237
Flags: W
LayerCount: 2
Fore
SplineSet
1053 649 m 2,0,-1
 1053 446 l 2,1,2
 1053 412 1053 412 1028 387 c 128,-1,3
 1003 362 1003 362 969 362 c 2,4,-1
 375 362 l 1,5,-1
 375 313 l 2,6,7
 375 270 375 270 412 240 c 2,8,-1
 461 199 l 2,9,10
 501 168 501 168 537 168 c 2,11,-1
 969 168 l 2,12,13
 1003 168 1003 168 1028 143.5 c 128,-1,14
 1053 119 1053 119 1053 84 c 0,15,16
 1053 50 1053 50 1027.5 25 c 128,-1,17
 1002 0 1002 0 969 0 c 2,18,-1
 526 0 l 2,19,20
 482 0 482 0 433.5 18.5 c 128,-1,21
 385 37 385 37 362 57 c 2,22,-1
 287 123 l 2,23,24
 252 151 252 151 228.5 201 c 128,-1,25
 205 251 205 251 205 293 c 2,26,-1
 205 678 l 2,27,28
 205 711 205 711 230.5 767 c 128,-1,29
 256 823 256 823 295 854 c 2,30,-1
 365 909 l 2,31,32
 434 965 434 965 518 965 c 2,33,-1
 754 965 l 2,34,35
 843 965 843 965 922 891 c 2,36,-1
 985 831 l 2,37,38
 1053 770 1053 770 1053 649 c 2,0,-1
377 662 m 2,39,-1
 377 532 l 1,40,-1
 887 532 l 1,41,-1
 887 649 l 2,42,43
 887 696 887 696 858 721 c 2,44,-1
 809 764 l 2,45,46
 771 795 771 795 741 795 c 2,47,-1
 530 795 l 2,48,49
 491 795 491 795 459 768 c 2,50,-1
 410 727 l 2,51,52
 377 702 377 702 377 662 c 2,39,-1
645 1202 m 1,53,-1
 916 1327 l 2,54,55
 933 1335 933 1335 952 1335 c 0,56,57
 988 1335 988 1335 1011.5 1308.5 c 128,-1,58
 1035 1282 1035 1282 1035 1249 c 0,59,60
 1035 1195 1035 1195 988 1173 c 2,61,-1
 682 1032 l 2,62,63
 662 1024 662 1024 645 1024 c 0,64,65
 626 1024 626 1024 609 1032 c 2,66,-1
 303 1173 l 2,67,68
 256 1197 256 1197 256 1249 c 0,69,70
 256 1282 256 1282 279.5 1308.5 c 128,-1,71
 303 1335 303 1335 339 1335 c 0,72,73
 357 1335 357 1335 375 1327 c 2,74,-1
 645 1202 l 1,53,-1
EndSplineSet
EndChar

StartChar: Gcircumflex
Encoding: 284 284 31
Width: 1237
Flags: W
LayerCount: 2
Fore
SplineSet
694 1329 m 2,0,-1
 973 1329 l 2,1,2
 1008 1329 1008 1329 1032.5 1304.5 c 128,-1,3
 1057 1280 1057 1280 1057 1245 c 0,4,5
 1057 1208 1057 1208 1030.5 1183.5 c 128,-1,6
 1004 1159 1004 1159 973 1159 c 2,7,-1
 707 1159 l 2,8,9
 668 1159 668 1159 639 1122 c 2,10,-1
 403 819 l 2,11,12
 373 783 373 783 373 719 c 2,13,-1
 373 254 l 2,14,15
 373 218 373 218 397.5 193 c 128,-1,16
 422 168 422 168 457 168 c 2,17,-1
 799 168 l 2,18,19
 833 168 833 168 858 193 c 128,-1,20
 883 218 883 218 883 252 c 2,21,-1
 883 434 l 1,22,-1
 709 434 l 2,23,24
 673 434 673 434 649 458.5 c 128,-1,25
 625 483 625 483 625 518 c 256,26,27
 625 553 625 553 649 577.5 c 128,-1,28
 673 602 673 602 709 602 c 2,29,-1
 1051 602 l 1,30,-1
 1051 252 l 2,31,32
 1051 148 1051 148 977 74 c 128,-1,33
 903 0 903 0 799 0 c 2,34,-1
 457 0 l 2,35,36
 352 0 352 0 277.5 74 c 128,-1,37
 203 148 203 148 203 252 c 2,38,-1
 203 717 l 2,39,40
 203 842 203 842 270 928 c 2,41,-1
 518 1243 l 2,42,43
 545 1279 545 1279 593.5 1304 c 128,-1,44
 642 1329 642 1329 694 1329 c 2,0,-1
694 1329 m 2,45,-1
 973 1329 l 2,46,47
 1008 1329 1008 1329 1032.5 1304.5 c 128,-1,48
 1057 1280 1057 1280 1057 1245 c 0,49,50
 1057 1208 1057 1208 1030.5 1183.5 c 128,-1,51
 1004 1159 1004 1159 973 1159 c 2,52,-1
 707 1159 l 2,53,54
 668 1159 668 1159 639 1122 c 2,55,-1
 403 819 l 2,56,57
 373 783 373 783 373 719 c 2,58,-1
 373 254 l 2,59,60
 373 218 373 218 397.5 193 c 128,-1,61
 422 168 422 168 457 168 c 2,62,-1
 799 168 l 2,63,64
 833 168 833 168 858 193 c 128,-1,65
 883 218 883 218 883 252 c 2,66,-1
 883 434 l 1,67,-1
 709 434 l 2,68,69
 673 434 673 434 649 458.5 c 128,-1,70
 625 483 625 483 625 518 c 256,71,72
 625 553 625 553 649 577.5 c 128,-1,73
 673 602 673 602 709 602 c 2,74,-1
 1051 602 l 1,75,-1
 1051 252 l 2,76,77
 1051 148 1051 148 977 74 c 128,-1,78
 903 0 903 0 799 0 c 2,79,-1
 457 0 l 2,80,81
 352 0 352 0 277.5 74 c 128,-1,82
 203 148 203 148 203 252 c 2,83,-1
 203 717 l 2,84,85
 203 842 203 842 270 928 c 2,86,-1
 518 1243 l 2,87,88
 545 1279 545 1279 593.5 1304 c 128,-1,89
 642 1329 642 1329 694 1329 c 2,45,-1
717 1515 m 1,90,-1
 447 1390 l 2,91,92
 430 1382 430 1382 411 1382 c 0,93,94
 375 1382 375 1382 351.5 1408.5 c 128,-1,95
 328 1435 328 1435 328 1468 c 0,96,97
 328 1522 328 1522 375 1544 c 2,98,-1
 681 1685 l 2,99,100
 701 1693 701 1693 717 1693 c 0,101,102
 737 1693 737 1693 754 1685 c 2,103,-1
 1060 1544 l 2,104,105
 1107 1520 1107 1520 1107 1468 c 0,106,107
 1107 1435 1107 1435 1083.5 1408.5 c 128,-1,108
 1060 1382 1060 1382 1024 1382 c 0,109,110
 1006 1382 1006 1382 988 1390 c 2,111,-1
 717 1515 l 1,90,-1
EndSplineSet
EndChar

StartChar: gcircumflex
Encoding: 285 285 32
Width: 1237
Flags: W
LayerCount: 2
Fore
SplineSet
735 -360 m 2,0,-1
 371 -360 l 2,1,2
 336 -360 336 -360 311.5 -336 c 128,-1,3
 287 -312 287 -312 287 -276 c 0,4,5
 287 -241 287 -241 311.5 -217 c 128,-1,6
 336 -193 336 -193 371 -193 c 2,7,-1
 735 -193 l 2,8,9
 768 -193 768 -193 797 -168 c 2,10,-1
 854 -119 l 2,11,12
 883 -97 883 -97 883 -61 c 2,13,-1
 883 195 l 1,14,15
 765 76 765 76 653 76 c 2,16,-1
 524 76 l 2,17,18
 424 76 424 76 344 145 c 2,19,-1
 281 201 l 2,20,21
 250 227 250 227 227.5 277 c 128,-1,22
 205 327 205 327 205 375 c 2,23,-1
 205 653 l 2,24,25
 205 712 205 712 227.5 765 c 128,-1,26
 250 818 250 818 281 844 c 2,27,-1
 350 903 l 2,28,29
 424 967 424 967 524 967 c 2,30,-1
 645 967 l 2,31,32
 744 967 744 967 825 897 c 2,33,-1
 883 848 l 1,34,-1
 881 881 l 2,35,36
 881 915 881 915 906 940 c 128,-1,37
 931 965 931 965 965 965 c 0,38,39
 1000 965 1000 965 1025.5 940.5 c 128,-1,40
 1051 916 1051 916 1051 881 c 2,41,-1
 1051 -61 l 2,42,43
 1051 -168 1051 -168 965 -244 c 2,44,-1
 897 -303 l 2,45,46
 871 -326 871 -326 823.5 -343 c 128,-1,47
 776 -360 776 -360 735 -360 c 2,0,-1
639 799 m 2,48,-1
 526 799 l 2,49,50
 489 799 489 799 455 770 c 2,51,-1
 403 727 l 2,52,53
 373 702 373 702 373 659 c 2,54,-1
 373 379 l 2,55,56
 373 345 373 345 406 315 c 2,57,-1
 461 266 l 2,58,59
 487 244 487 244 516 244 c 2,60,-1
 653 244 l 2,61,62
 683 244 683 244 719 274 c 2,63,-1
 852 387 l 2,64,65
 883 414 883 414 883 453 c 2,66,-1
 883 580 l 2,67,68
 883 626 883 626 848 655 c 2,69,-1
 711 772 l 2,70,71
 682 799 682 799 639 799 c 2,48,-1
618 1151 m 1,72,-1
 348 1026 l 2,73,74
 331 1018 331 1018 312 1018 c 0,75,76
 276 1018 276 1018 252.5 1044.5 c 128,-1,77
 229 1071 229 1071 229 1104 c 0,78,79
 229 1158 229 1158 276 1180 c 2,80,-1
 582 1321 l 2,81,82
 602 1329 602 1329 618 1329 c 0,83,84
 638 1329 638 1329 655 1321 c 2,85,-1
 961 1180 l 2,86,87
 1008 1156 1008 1156 1008 1104 c 0,88,89
 1008 1071 1008 1071 984.5 1044.5 c 128,-1,90
 961 1018 961 1018 925 1018 c 0,91,92
 907 1018 907 1018 889 1026 c 2,93,-1
 618 1151 l 1,72,-1
EndSplineSet
EndChar

StartChar: Gbreve
Encoding: 286 286 33
Width: 1237
Flags: W
LayerCount: 2
Fore
SplineSet
941 1747 m 0,0,1
 976 1747 976 1747 1001.5 1725.5 c 128,-1,2
 1027 1704 1027 1704 1027 1675 c 0,3,4
 1027 1608 1027 1608 906 1522 c 128,-1,5
 785 1436 785 1436 637 1436 c 0,6,7
 490 1436 490 1436 369 1522 c 128,-1,8
 248 1608 248 1608 248 1675 c 0,9,10
 248 1704 248 1704 273.5 1725.5 c 128,-1,11
 299 1747 299 1747 334 1747 c 0,12,13
 375 1747 375 1747 400 1723 c 0,14,15
 509 1606 509 1606 637 1606 c 0,16,17
 766 1606 766 1606 875 1723 c 0,18,19
 900 1747 900 1747 941 1747 c 0,0,1
694 1329 m 2,20,-1
 973 1329 l 2,21,22
 1008 1329 1008 1329 1032.5 1304.5 c 128,-1,23
 1057 1280 1057 1280 1057 1245 c 0,24,25
 1057 1208 1057 1208 1030.5 1183.5 c 128,-1,26
 1004 1159 1004 1159 973 1159 c 2,27,-1
 707 1159 l 2,28,29
 668 1159 668 1159 639 1122 c 2,30,-1
 403 819 l 2,31,32
 373 783 373 783 373 719 c 2,33,-1
 373 254 l 2,34,35
 373 218 373 218 397.5 193 c 128,-1,36
 422 168 422 168 457 168 c 2,37,-1
 799 168 l 2,38,39
 833 168 833 168 858 193 c 128,-1,40
 883 218 883 218 883 252 c 2,41,-1
 883 434 l 1,42,-1
 709 434 l 2,43,44
 673 434 673 434 649 458.5 c 128,-1,45
 625 483 625 483 625 518 c 256,46,47
 625 553 625 553 649 577.5 c 128,-1,48
 673 602 673 602 709 602 c 2,49,-1
 1051 602 l 1,50,-1
 1051 252 l 2,51,52
 1051 148 1051 148 977 74 c 128,-1,53
 903 0 903 0 799 0 c 2,54,-1
 457 0 l 2,55,56
 352 0 352 0 277.5 74 c 128,-1,57
 203 148 203 148 203 252 c 2,58,-1
 203 717 l 2,59,60
 203 842 203 842 270 928 c 2,61,-1
 518 1243 l 2,62,63
 545 1279 545 1279 593.5 1304 c 128,-1,64
 642 1329 642 1329 694 1329 c 2,20,-1
EndSplineSet
EndChar

StartChar: gbreve
Encoding: 287 287 34
Width: 1237
Flags: W
LayerCount: 2
Fore
SplineSet
941 1408 m 0,0,1
 976 1408 976 1408 1001.5 1386.5 c 128,-1,2
 1027 1365 1027 1365 1027 1336 c 0,3,4
 1027 1269 1027 1269 906 1183 c 128,-1,5
 785 1097 785 1097 637 1097 c 0,6,7
 490 1097 490 1097 369 1183 c 128,-1,8
 248 1269 248 1269 248 1336 c 0,9,10
 248 1365 248 1365 273.5 1386.5 c 128,-1,11
 299 1408 299 1408 334 1408 c 0,12,13
 375 1408 375 1408 400 1384 c 0,14,15
 509 1267 509 1267 637 1267 c 0,16,17
 766 1267 766 1267 875 1384 c 0,18,19
 900 1408 900 1408 941 1408 c 0,0,1
735 -360 m 2,20,-1
 371 -360 l 2,21,22
 336 -360 336 -360 311.5 -336 c 128,-1,23
 287 -312 287 -312 287 -276 c 0,24,25
 287 -241 287 -241 311.5 -217 c 128,-1,26
 336 -193 336 -193 371 -193 c 2,27,-1
 735 -193 l 2,28,29
 768 -193 768 -193 797 -168 c 2,30,-1
 854 -119 l 2,31,32
 883 -97 883 -97 883 -61 c 2,33,-1
 883 195 l 1,34,35
 765 76 765 76 653 76 c 2,36,-1
 524 76 l 2,37,38
 424 76 424 76 344 145 c 2,39,-1
 281 201 l 2,40,41
 250 227 250 227 227.5 277 c 128,-1,42
 205 327 205 327 205 375 c 2,43,-1
 205 653 l 2,44,45
 205 712 205 712 227.5 765 c 128,-1,46
 250 818 250 818 281 844 c 2,47,-1
 350 903 l 2,48,49
 424 967 424 967 524 967 c 2,50,-1
 645 967 l 2,51,52
 744 967 744 967 825 897 c 2,53,-1
 883 848 l 1,54,-1
 881 881 l 2,55,56
 881 915 881 915 906 940 c 128,-1,57
 931 965 931 965 965 965 c 0,58,59
 1000 965 1000 965 1025.5 940.5 c 128,-1,60
 1051 916 1051 916 1051 881 c 2,61,-1
 1051 -61 l 2,62,63
 1051 -168 1051 -168 965 -244 c 2,64,-1
 897 -303 l 2,65,66
 871 -326 871 -326 823.5 -343 c 128,-1,67
 776 -360 776 -360 735 -360 c 2,20,-1
639 799 m 2,68,-1
 526 799 l 2,69,70
 489 799 489 799 455 770 c 2,71,-1
 403 727 l 2,72,73
 373 702 373 702 373 659 c 2,74,-1
 373 379 l 2,75,76
 373 345 373 345 406 315 c 2,77,-1
 461 266 l 2,78,79
 487 244 487 244 516 244 c 2,80,-1
 653 244 l 2,81,82
 683 244 683 244 719 274 c 2,83,-1
 852 387 l 2,84,85
 883 414 883 414 883 453 c 2,86,-1
 883 580 l 2,87,88
 883 626 883 626 848 655 c 2,89,-1
 711 772 l 2,90,91
 682 799 682 799 639 799 c 2,68,-1
EndSplineSet
EndChar

StartChar: Gdotaccent
Encoding: 288 288 35
Width: 1237
Flags: W
LayerCount: 2
Fore
SplineSet
731 1478 m 2,0,1
 731 1444 731 1444 707 1418 c 0,2,3
 686 1396 686 1396 647 1396 c 0,4,5
 603 1396 603 1396 588 1421 c 0,6,7
 564 1460 564 1460 564 1478 c 2,8,-1
 564 1527 l 2,9,10
 564 1562 564 1562 588 1586 c 0,11,12
 611 1611 611 1611 647 1611 c 0,13,14
 684 1612 684 1612 707 1586 c 0,15,16
 731 1560 731 1560 731 1527 c 2,17,-1
 731 1478 l 2,0,1
694 1329 m 2,18,-1
 973 1329 l 2,19,20
 1008 1329 1008 1329 1032.5 1304.5 c 128,-1,21
 1057 1280 1057 1280 1057 1245 c 0,22,23
 1057 1208 1057 1208 1030.5 1183.5 c 128,-1,24
 1004 1159 1004 1159 973 1159 c 2,25,-1
 707 1159 l 2,26,27
 668 1159 668 1159 639 1122 c 2,28,-1
 403 819 l 2,29,30
 373 783 373 783 373 719 c 2,31,-1
 373 254 l 2,32,33
 373 218 373 218 397.5 193 c 128,-1,34
 422 168 422 168 457 168 c 2,35,-1
 799 168 l 2,36,37
 833 168 833 168 858 193 c 128,-1,38
 883 218 883 218 883 252 c 2,39,-1
 883 434 l 1,40,-1
 709 434 l 2,41,42
 673 434 673 434 649 458.5 c 128,-1,43
 625 483 625 483 625 518 c 256,44,45
 625 553 625 553 649 577.5 c 128,-1,46
 673 602 673 602 709 602 c 2,47,-1
 1051 602 l 1,48,-1
 1051 252 l 2,49,50
 1051 148 1051 148 977 74 c 128,-1,51
 903 0 903 0 799 0 c 2,52,-1
 457 0 l 2,53,54
 352 0 352 0 277.5 74 c 128,-1,55
 203 148 203 148 203 252 c 2,56,-1
 203 717 l 2,57,58
 203 842 203 842 270 928 c 2,59,-1
 518 1243 l 2,60,61
 545 1279 545 1279 593.5 1304 c 128,-1,62
 642 1329 642 1329 694 1329 c 2,18,-1
EndSplineSet
EndChar

StartChar: gdotaccent
Encoding: 289 289 36
Width: 1237
Flags: W
LayerCount: 2
Fore
SplineSet
670 1118 m 2,0,1
 670 1084 670 1084 646 1058 c 0,2,3
 625 1036 625 1036 586 1036 c 0,4,5
 542 1036 542 1036 527 1061 c 0,6,7
 503 1100 503 1100 503 1118 c 2,8,-1
 503 1167 l 2,9,10
 503 1202 503 1202 527 1226 c 0,11,12
 550 1251 550 1251 586 1251 c 0,13,14
 623 1252 623 1252 646 1226 c 0,15,16
 670 1200 670 1200 670 1167 c 2,17,-1
 670 1118 l 2,0,1
735 -360 m 2,18,-1
 371 -360 l 2,19,20
 336 -360 336 -360 311.5 -336 c 128,-1,21
 287 -312 287 -312 287 -276 c 0,22,23
 287 -241 287 -241 311.5 -217 c 128,-1,24
 336 -193 336 -193 371 -193 c 2,25,-1
 735 -193 l 2,26,27
 768 -193 768 -193 797 -168 c 2,28,-1
 854 -119 l 2,29,30
 883 -97 883 -97 883 -61 c 2,31,-1
 883 195 l 1,32,33
 765 76 765 76 653 76 c 2,34,-1
 524 76 l 2,35,36
 424 76 424 76 344 145 c 2,37,-1
 281 201 l 2,38,39
 250 227 250 227 227.5 277 c 128,-1,40
 205 327 205 327 205 375 c 2,41,-1
 205 653 l 2,42,43
 205 712 205 712 227.5 765 c 128,-1,44
 250 818 250 818 281 844 c 2,45,-1
 350 903 l 2,46,47
 424 967 424 967 524 967 c 2,48,-1
 645 967 l 2,49,50
 744 967 744 967 825 897 c 2,51,-1
 883 848 l 1,52,-1
 881 881 l 2,53,54
 881 915 881 915 906 940 c 128,-1,55
 931 965 931 965 965 965 c 0,56,57
 1000 965 1000 965 1025.5 940.5 c 128,-1,58
 1051 916 1051 916 1051 881 c 2,59,-1
 1051 -61 l 2,60,61
 1051 -168 1051 -168 965 -244 c 2,62,-1
 897 -303 l 2,63,64
 871 -326 871 -326 823.5 -343 c 128,-1,65
 776 -360 776 -360 735 -360 c 2,18,-1
639 799 m 2,66,-1
 526 799 l 2,67,68
 489 799 489 799 455 770 c 2,69,-1
 403 727 l 2,70,71
 373 702 373 702 373 659 c 2,72,-1
 373 379 l 2,73,74
 373 345 373 345 406 315 c 2,75,-1
 461 266 l 2,76,77
 487 244 487 244 516 244 c 2,78,-1
 653 244 l 2,79,80
 683 244 683 244 719 274 c 2,81,-1
 852 387 l 2,82,83
 883 414 883 414 883 453 c 2,84,-1
 883 580 l 2,85,86
 883 626 883 626 848 655 c 2,87,-1
 711 772 l 2,88,89
 682 799 682 799 639 799 c 2,66,-1
EndSplineSet
EndChar

StartChar: uni0122
Encoding: 290 290 37
Width: 1237
Flags: W
LayerCount: 2
Fore
SplineSet
734 -282 m 2,0,1
 734 -317 734 -317 710 -341.5 c 128,-1,2
 686 -366 686 -366 650 -366 c 0,3,4
 615 -366 615 -366 591 -341.5 c 128,-1,5
 567 -317 567 -317 567 -282 c 2,6,-1
 567 -139 l 2,7,8
 567 -104 567 -104 591 -79.5 c 128,-1,9
 615 -55 615 -55 650 -55 c 0,10,11
 686 -55 686 -55 710 -79.5 c 128,-1,12
 734 -104 734 -104 734 -139 c 2,13,-1
 734 -282 l 2,0,1
694 1329 m 2,14,-1
 973 1329 l 2,15,16
 1008 1329 1008 1329 1032.5 1304.5 c 128,-1,17
 1057 1280 1057 1280 1057 1245 c 0,18,19
 1057 1208 1057 1208 1030.5 1183.5 c 128,-1,20
 1004 1159 1004 1159 973 1159 c 2,21,-1
 707 1159 l 2,22,23
 668 1159 668 1159 639 1122 c 2,24,-1
 403 819 l 2,25,26
 373 783 373 783 373 719 c 2,27,-1
 373 254 l 2,28,29
 373 218 373 218 397.5 193 c 128,-1,30
 422 168 422 168 457 168 c 2,31,-1
 799 168 l 2,32,33
 833 168 833 168 858 193 c 128,-1,34
 883 218 883 218 883 252 c 2,35,-1
 883 434 l 1,36,-1
 709 434 l 2,37,38
 673 434 673 434 649 458.5 c 128,-1,39
 625 483 625 483 625 518 c 256,40,41
 625 553 625 553 649 577.5 c 128,-1,42
 673 602 673 602 709 602 c 2,43,-1
 1051 602 l 1,44,-1
 1051 252 l 2,45,46
 1051 148 1051 148 977 74 c 128,-1,47
 903 0 903 0 799 0 c 2,48,-1
 457 0 l 2,49,50
 352 0 352 0 277.5 74 c 128,-1,51
 203 148 203 148 203 252 c 2,52,-1
 203 717 l 2,53,54
 203 842 203 842 270 928 c 2,55,-1
 518 1243 l 2,56,57
 545 1279 545 1279 593.5 1304 c 128,-1,58
 642 1329 642 1329 694 1329 c 2,14,-1
EndSplineSet
EndChar

StartChar: uni0123
Encoding: 291 291 38
Width: 1237
Flags: W
LayerCount: 2
Fore
SplineSet
663 1118 m 2,0,1
 663 1082 663 1082 639 1058 c 128,-1,2
 615 1034 615 1034 579 1034 c 0,3,4
 544 1034 544 1034 520 1058 c 128,-1,5
 496 1082 496 1082 496 1118 c 2,6,-1
 496 1260 l 2,7,8
 496 1296 496 1296 520 1320 c 128,-1,9
 544 1344 544 1344 579 1344 c 0,10,11
 615 1344 615 1344 639 1320 c 128,-1,12
 663 1296 663 1296 663 1260 c 2,13,-1
 663 1118 l 2,0,1
735 -360 m 2,14,-1
 371 -360 l 2,15,16
 336 -360 336 -360 311.5 -336 c 128,-1,17
 287 -312 287 -312 287 -276 c 0,18,19
 287 -241 287 -241 311.5 -217 c 128,-1,20
 336 -193 336 -193 371 -193 c 2,21,-1
 735 -193 l 2,22,23
 768 -193 768 -193 797 -168 c 2,24,-1
 854 -119 l 2,25,26
 883 -97 883 -97 883 -61 c 2,27,-1
 883 195 l 1,28,29
 765 76 765 76 653 76 c 2,30,-1
 524 76 l 2,31,32
 424 76 424 76 344 145 c 2,33,-1
 281 201 l 2,34,35
 250 227 250 227 227.5 277 c 128,-1,36
 205 327 205 327 205 375 c 2,37,-1
 205 653 l 2,38,39
 205 712 205 712 227.5 765 c 128,-1,40
 250 818 250 818 281 844 c 2,41,-1
 350 903 l 2,42,43
 424 967 424 967 524 967 c 2,44,-1
 645 967 l 2,45,46
 744 967 744 967 825 897 c 2,47,-1
 883 848 l 1,48,-1
 881 881 l 2,49,50
 881 915 881 915 906 940 c 128,-1,51
 931 965 931 965 965 965 c 0,52,53
 1000 965 1000 965 1025.5 940.5 c 128,-1,54
 1051 916 1051 916 1051 881 c 2,55,-1
 1051 -61 l 2,56,57
 1051 -168 1051 -168 965 -244 c 2,58,-1
 897 -303 l 2,59,60
 871 -326 871 -326 823.5 -343 c 128,-1,61
 776 -360 776 -360 735 -360 c 2,14,-1
639 799 m 2,62,-1
 526 799 l 2,63,64
 489 799 489 799 455 770 c 2,65,-1
 403 727 l 2,66,67
 373 702 373 702 373 659 c 2,68,-1
 373 379 l 2,69,70
 373 345 373 345 406 315 c 2,71,-1
 461 266 l 2,72,73
 487 244 487 244 516 244 c 2,74,-1
 653 244 l 2,75,76
 683 244 683 244 719 274 c 2,77,-1
 852 387 l 2,78,79
 883 414 883 414 883 453 c 2,80,-1
 883 580 l 2,81,82
 883 626 883 626 848 655 c 2,83,-1
 711 772 l 2,84,85
 682 799 682 799 639 799 c 2,62,-1
EndSplineSet
EndChar

StartChar: Hcircumflex
Encoding: 292 292 39
Width: 1237
Flags: W
LayerCount: 2
Fore
SplineSet
203 84 m 2,0,-1
 203 1245 l 2,1,2
 203 1279 203 1279 227.5 1304 c 128,-1,3
 252 1329 252 1329 287 1329 c 0,4,5
 321 1329 321 1329 346 1304 c 128,-1,6
 371 1279 371 1279 371 1245 c 2,7,-1
 371 750 l 1,8,-1
 883 750 l 1,9,-1
 883 1245 l 2,10,11
 883 1279 883 1279 907.5 1304 c 128,-1,12
 932 1329 932 1329 967 1329 c 256,13,14
 1002 1329 1002 1329 1026.5 1304 c 128,-1,15
 1051 1279 1051 1279 1051 1243 c 2,16,-1
 1051 84 l 2,17,18
 1051 50 1051 50 1025.5 25 c 128,-1,19
 1000 0 1000 0 967 0 c 0,20,21
 931 0 931 0 907 24.5 c 128,-1,22
 883 49 883 49 883 84 c 2,23,-1
 883 582 l 1,24,-1
 373 582 l 1,25,-1
 373 84 l 2,26,27
 373 50 373 50 347.5 25 c 128,-1,28
 322 0 322 0 287 0 c 0,29,30
 253 0 253 0 228 24.5 c 128,-1,31
 203 49 203 49 203 84 c 2,0,-1
618 1515 m 1,32,-1
 348 1390 l 2,33,34
 331 1382 331 1382 312 1382 c 0,35,36
 276 1382 276 1382 252.5 1408.5 c 128,-1,37
 229 1435 229 1435 229 1468 c 0,38,39
 229 1522 229 1522 276 1544 c 2,40,-1
 582 1685 l 2,41,42
 602 1693 602 1693 618 1693 c 0,43,44
 638 1693 638 1693 655 1685 c 2,45,-1
 961 1544 l 2,46,47
 1008 1520 1008 1520 1008 1468 c 0,48,49
 1008 1435 1008 1435 984.5 1408.5 c 128,-1,50
 961 1382 961 1382 925 1382 c 0,51,52
 907 1382 907 1382 889 1390 c 2,53,-1
 618 1515 l 1,32,-1
EndSplineSet
EndChar

StartChar: hcircumflex
Encoding: 293 293 40
Width: 1237
Flags: W
LayerCount: 2
Fore
SplineSet
205 84 m 2,0,-1
 205 1245 l 2,1,2
 205 1279 205 1279 229.5 1303 c 128,-1,3
 254 1327 254 1327 289 1327 c 256,4,5
 324 1327 324 1327 348.5 1302.5 c 128,-1,6
 373 1278 373 1278 373 1243 c 2,7,-1
 373 819 l 1,8,-1
 508 907 l 2,9,10
 600 965 600 965 672 965 c 2,11,-1
 776 965 l 2,12,13
 879 965 879 965 953 891.5 c 128,-1,14
 1027 818 1027 818 1030 713 c 2,15,-1
 1051 84 l 2,16,17
 1052 49 1052 49 1027 24.5 c 128,-1,18
 1002 0 1002 0 967 0 c 256,19,20
 932 0 932 0 908 25.5 c 128,-1,21
 884 51 884 51 883 84 c 2,22,-1
 862 715 l 2,23,24
 861 749 861 749 836 774 c 128,-1,25
 811 799 811 799 776 799 c 2,26,-1
 682 799 l 2,27,28
 650 799 650 799 612 774 c 2,29,-1
 373 618 l 1,30,-1
 373 84 l 2,31,32
 373 49 373 49 348.5 24.5 c 128,-1,33
 324 0 324 0 289 0 c 256,34,35
 254 0 254 0 229.5 24.5 c 128,-1,36
 205 49 205 49 205 84 c 2,0,-1
618 1515 m 1,37,-1
 348 1390 l 2,38,39
 331 1382 331 1382 312 1382 c 0,40,41
 276 1382 276 1382 252.5 1408.5 c 128,-1,42
 229 1435 229 1435 229 1468 c 0,43,44
 229 1522 229 1522 276 1544 c 2,45,-1
 582 1685 l 2,46,47
 602 1693 602 1693 618 1693 c 0,48,49
 638 1693 638 1693 655 1685 c 2,50,-1
 961 1544 l 2,51,52
 1008 1520 1008 1520 1008 1468 c 0,53,54
 1008 1435 1008 1435 984.5 1408.5 c 128,-1,55
 961 1382 961 1382 925 1382 c 0,56,57
 907 1382 907 1382 889 1390 c 2,58,-1
 618 1515 l 1,37,-1
EndSplineSet
EndChar

StartChar: Hbar
Encoding: 294 294 41
Width: 1237
Flags: W
LayerCount: 2
Fore
SplineSet
1113 1104 m 2,0,1
 1143 1104 1143 1104 1164.5 1078.5 c 128,-1,2
 1186 1053 1186 1053 1186 1017 c 0,3,4
 1186 983 1186 983 1164.5 958.5 c 128,-1,5
 1143 934 1143 934 1113 934 c 2,6,-1
 135 934 l 2,7,8
 106 934 106 934 86 959 c 128,-1,9
 66 984 66 984 66 1020 c 0,10,11
 66 1054 66 1054 86 1079 c 128,-1,12
 106 1104 106 1104 135 1104 c 2,13,-1
 1113 1104 l 2,0,1
203 84 m 2,14,-1
 203 1245 l 2,15,16
 203 1279 203 1279 227.5 1304 c 128,-1,17
 252 1329 252 1329 287 1329 c 0,18,19
 321 1329 321 1329 346 1304 c 128,-1,20
 371 1279 371 1279 371 1245 c 2,21,-1
 371 750 l 1,22,-1
 883 750 l 1,23,-1
 883 1245 l 2,24,25
 883 1279 883 1279 907.5 1304 c 128,-1,26
 932 1329 932 1329 967 1329 c 256,27,28
 1002 1329 1002 1329 1026.5 1304 c 128,-1,29
 1051 1279 1051 1279 1051 1243 c 2,30,-1
 1051 84 l 2,31,32
 1051 50 1051 50 1025.5 25 c 128,-1,33
 1000 0 1000 0 967 0 c 0,34,35
 931 0 931 0 907 24.5 c 128,-1,36
 883 49 883 49 883 84 c 2,37,-1
 883 582 l 1,38,-1
 373 582 l 1,39,-1
 373 84 l 2,40,41
 373 50 373 50 347.5 25 c 128,-1,42
 322 0 322 0 287 0 c 0,43,44
 253 0 253 0 228 24.5 c 128,-1,45
 203 49 203 49 203 84 c 2,14,-1
EndSplineSet
EndChar

StartChar: hbar
Encoding: 295 295 42
Width: 1237
Flags: W
LayerCount: 2
Fore
SplineSet
205 1026 m 1,0,-1
 117 1026 l 2,1,2
 83 1026 83 1026 58 1051 c 128,-1,3
 33 1076 33 1076 33 1110 c 256,4,5
 33 1144 33 1144 58 1169 c 128,-1,6
 83 1194 83 1194 117 1194 c 2,7,-1
 373 1194 l 1,8,-1
 457 1194 l 2,9,10
 492 1194 492 1194 517.5 1170 c 128,-1,11
 543 1146 543 1146 543 1110 c 0,12,13
 543 1076 543 1076 517.5 1051 c 128,-1,14
 492 1026 492 1026 457 1026 c 2,15,-1
 205 1026 l 1,0,-1
205 84 m 2,16,-1
 205 1245 l 2,17,18
 205 1279 205 1279 229.5 1303 c 128,-1,19
 254 1327 254 1327 289 1327 c 256,20,21
 324 1327 324 1327 348.5 1302.5 c 128,-1,22
 373 1278 373 1278 373 1243 c 2,23,-1
 373 819 l 1,24,-1
 508 907 l 2,25,26
 600 965 600 965 672 965 c 2,27,-1
 776 965 l 2,28,29
 879 965 879 965 953 891.5 c 128,-1,30
 1027 818 1027 818 1030 713 c 2,31,-1
 1051 84 l 2,32,33
 1052 49 1052 49 1027 24.5 c 128,-1,34
 1002 0 1002 0 967 0 c 256,35,36
 932 0 932 0 908 25.5 c 128,-1,37
 884 51 884 51 883 84 c 2,38,-1
 862 715 l 2,39,40
 861 749 861 749 836 774 c 128,-1,41
 811 799 811 799 776 799 c 2,42,-1
 682 799 l 2,43,44
 650 799 650 799 612 774 c 2,45,-1
 373 618 l 1,46,-1
 373 84 l 2,47,48
 373 49 373 49 348.5 24.5 c 128,-1,49
 324 0 324 0 289 0 c 256,50,51
 254 0 254 0 229.5 24.5 c 128,-1,52
 205 49 205 49 205 84 c 2,16,-1
EndSplineSet
EndChar

StartChar: Itilde
Encoding: 296 296 43
Width: 1237
Flags: W
LayerCount: 2
Fore
SplineSet
289 1329 m 2,0,-1
 969 1329 l 2,1,2
 1002 1329 1002 1329 1027.5 1304 c 128,-1,3
 1053 1279 1053 1279 1053 1245 c 0,4,5
 1053 1210 1053 1210 1028 1184.5 c 128,-1,6
 1003 1159 1003 1159 969 1159 c 2,7,-1
 715 1159 l 1,8,-1
 715 168 l 1,9,-1
 969 168 l 2,10,11
 1004 168 1004 168 1028.5 143.5 c 128,-1,12
 1053 119 1053 119 1053 84 c 256,13,14
 1053 49 1053 49 1028 24.5 c 128,-1,15
 1003 0 1003 0 969 0 c 2,16,-1
 289 0 l 2,17,18
 254 0 254 0 229.5 24.5 c 128,-1,19
 205 49 205 49 205 84 c 256,20,21
 205 119 205 119 229.5 143.5 c 128,-1,22
 254 168 254 168 289 168 c 2,23,-1
 547 168 l 1,24,-1
 547 1159 l 1,25,-1
 289 1159 l 2,26,27
 254 1159 254 1159 229.5 1184 c 128,-1,28
 205 1209 205 1209 205 1243 c 0,29,30
 205 1279 205 1279 229.5 1304 c 128,-1,31
 254 1329 254 1329 289 1329 c 2,0,-1
1025 1536 m 2,32,-1
 873 1444 l 2,33,34
 845 1430 845 1430 828 1430 c 2,35,-1
 775 1430 l 2,36,37
 767 1430 767 1430 748 1436 c 2,38,-1
 492 1522 l 1,39,-1
 468 1522 l 1,40,-1
 341 1444 l 2,41,42
 318 1430 318 1430 294 1430 c 0,43,44
 260 1430 260 1430 235 1457 c 128,-1,45
 210 1484 210 1484 210 1519 c 0,46,47
 210 1563 210 1563 251 1588 c 2,48,-1
 402 1680 l 2,49,50
 421 1692 421 1692 447 1692 c 2,51,-1
 501 1692 l 2,52,53
 515 1692 515 1692 527 1688 c 2,54,-1
 789 1600 l 1,55,-1
 804 1600 l 1,56,-1
 935 1680 l 2,57,58
 958 1694 958 1694 981 1694 c 0,59,60
 1016 1694 1016 1694 1041 1667 c 128,-1,61
 1066 1640 1066 1640 1066 1605 c 0,62,63
 1066 1561 1066 1561 1025 1536 c 2,32,-1
EndSplineSet
EndChar

StartChar: itilde
Encoding: 297 297 44
Width: 1237
Flags: W
LayerCount: 2
Fore
SplineSet
885 2 m 2,0,-1
 373 2 l 2,1,2
 338 2 338 2 313.5 26.5 c 128,-1,3
 289 51 289 51 289 86 c 0,4,5
 289 120 289 120 313.5 145 c 128,-1,6
 338 170 338 170 373 170 c 2,7,-1
 545 170 l 1,8,-1
 545 797 l 1,9,-1
 375 797 l 2,10,11
 340 797 340 797 315.5 822 c 128,-1,12
 291 847 291 847 291 881 c 0,13,14
 291 916 291 916 315.5 941.5 c 128,-1,15
 340 967 340 967 375 967 c 2,16,-1
 631 967 l 2,17,18
 666 967 666 967 690.5 941.5 c 128,-1,19
 715 916 715 916 715 881 c 2,20,-1
 715 170 l 1,21,-1
 883 170 l 2,22,23
 918 170 918 170 943.5 145.5 c 128,-1,24
 969 121 969 121 969 86 c 256,25,26
 969 51 969 51 944 26.5 c 128,-1,27
 919 2 919 2 885 2 c 2,0,-1
954 1171 m 2,28,-1
 802 1079 l 2,29,30
 774 1065 774 1065 757 1065 c 2,31,-1
 704 1065 l 2,32,33
 696 1065 696 1065 677 1071 c 2,34,-1
 421 1157 l 1,35,-1
 397 1157 l 1,36,-1
 270 1079 l 2,37,38
 247 1065 247 1065 223 1065 c 0,39,40
 189 1065 189 1065 164 1092 c 128,-1,41
 139 1119 139 1119 139 1154 c 0,42,43
 139 1198 139 1198 180 1223 c 2,44,-1
 331 1315 l 2,45,46
 350 1327 350 1327 376 1327 c 2,47,-1
 430 1327 l 2,48,49
 444 1327 444 1327 456 1323 c 2,50,-1
 718 1235 l 1,51,-1
 733 1235 l 1,52,-1
 864 1315 l 2,53,54
 887 1329 887 1329 910 1329 c 0,55,56
 945 1329 945 1329 970 1302 c 128,-1,57
 995 1275 995 1275 995 1240 c 0,58,59
 995 1196 995 1196 954 1171 c 2,28,-1
EndSplineSet
EndChar

StartChar: Imacron
Encoding: 298 298 45
Width: 1237
Flags: W
LayerCount: 2
Fore
SplineSet
889 1598 m 2,0,1
 924 1598 924 1598 949.5 1573 c 128,-1,2
 975 1548 975 1548 975 1514 c 0,3,4
 975 1478 975 1478 949.5 1454 c 128,-1,5
 924 1430 924 1430 889 1430 c 2,6,-1
 369 1430 l 2,7,8
 335 1430 335 1430 310 1455 c 128,-1,9
 285 1480 285 1480 285 1514 c 256,10,11
 285 1548 285 1548 310 1573 c 128,-1,12
 335 1598 335 1598 369 1598 c 2,13,-1
 889 1598 l 2,0,1
289 1329 m 2,14,-1
 969 1329 l 2,15,16
 1002 1329 1002 1329 1027.5 1304 c 128,-1,17
 1053 1279 1053 1279 1053 1245 c 0,18,19
 1053 1210 1053 1210 1028 1184.5 c 128,-1,20
 1003 1159 1003 1159 969 1159 c 2,21,-1
 715 1159 l 1,22,-1
 715 168 l 1,23,-1
 969 168 l 2,24,25
 1004 168 1004 168 1028.5 143.5 c 128,-1,26
 1053 119 1053 119 1053 84 c 256,27,28
 1053 49 1053 49 1028 24.5 c 128,-1,29
 1003 0 1003 0 969 0 c 2,30,-1
 289 0 l 2,31,32
 254 0 254 0 229.5 24.5 c 128,-1,33
 205 49 205 49 205 84 c 256,34,35
 205 119 205 119 229.5 143.5 c 128,-1,36
 254 168 254 168 289 168 c 2,37,-1
 547 168 l 1,38,-1
 547 1159 l 1,39,-1
 289 1159 l 2,40,41
 254 1159 254 1159 229.5 1184 c 128,-1,42
 205 1209 205 1209 205 1243 c 0,43,44
 205 1279 205 1279 229.5 1304 c 128,-1,45
 254 1329 254 1329 289 1329 c 2,14,-1
EndSplineSet
EndChar

StartChar: imacron
Encoding: 299 299 46
Width: 1237
Flags: W
LayerCount: 2
Fore
SplineSet
824 1283 m 2,0,1
 859 1283 859 1283 884.5 1258.5 c 128,-1,2
 910 1234 910 1234 910 1199 c 256,3,4
 910 1164 910 1164 884.5 1139.5 c 128,-1,5
 859 1115 859 1115 824 1115 c 2,6,-1
 304 1115 l 2,7,8
 270 1115 270 1115 245 1140 c 128,-1,9
 220 1165 220 1165 220 1199 c 0,10,11
 220 1234 220 1234 245 1258.5 c 128,-1,12
 270 1283 270 1283 304 1283 c 2,13,-1
 824 1283 l 2,0,1
885 2 m 2,14,-1
 373 2 l 2,15,16
 338 2 338 2 313.5 26.5 c 128,-1,17
 289 51 289 51 289 86 c 0,18,19
 289 120 289 120 313.5 145 c 128,-1,20
 338 170 338 170 373 170 c 2,21,-1
 545 170 l 1,22,-1
 545 797 l 1,23,-1
 375 797 l 2,24,25
 340 797 340 797 315.5 822 c 128,-1,26
 291 847 291 847 291 881 c 0,27,28
 291 916 291 916 315.5 941.5 c 128,-1,29
 340 967 340 967 375 967 c 2,30,-1
 631 967 l 2,31,32
 666 967 666 967 690.5 941.5 c 128,-1,33
 715 916 715 916 715 881 c 2,34,-1
 715 170 l 1,35,-1
 883 170 l 2,36,37
 918 170 918 170 943.5 145.5 c 128,-1,38
 969 121 969 121 969 86 c 256,39,40
 969 51 969 51 944 26.5 c 128,-1,41
 919 2 919 2 885 2 c 2,14,-1
EndSplineSet
EndChar

StartChar: Ibreve
Encoding: 300 300 47
Width: 1237
Flags: W
LayerCount: 2
Fore
SplineSet
941 1747 m 0,0,1
 976 1747 976 1747 1001.5 1725.5 c 128,-1,2
 1027 1704 1027 1704 1027 1675 c 0,3,4
 1027 1608 1027 1608 906 1522 c 128,-1,5
 785 1436 785 1436 637 1436 c 0,6,7
 490 1436 490 1436 369 1522 c 128,-1,8
 248 1608 248 1608 248 1675 c 0,9,10
 248 1704 248 1704 273.5 1725.5 c 128,-1,11
 299 1747 299 1747 334 1747 c 0,12,13
 375 1747 375 1747 400 1723 c 0,14,15
 509 1606 509 1606 637 1606 c 0,16,17
 766 1606 766 1606 875 1723 c 0,18,19
 900 1747 900 1747 941 1747 c 0,0,1
289 1329 m 2,20,-1
 969 1329 l 2,21,22
 1002 1329 1002 1329 1027.5 1304 c 128,-1,23
 1053 1279 1053 1279 1053 1245 c 0,24,25
 1053 1210 1053 1210 1028 1184.5 c 128,-1,26
 1003 1159 1003 1159 969 1159 c 2,27,-1
 715 1159 l 1,28,-1
 715 168 l 1,29,-1
 969 168 l 2,30,31
 1004 168 1004 168 1028.5 143.5 c 128,-1,32
 1053 119 1053 119 1053 84 c 256,33,34
 1053 49 1053 49 1028 24.5 c 128,-1,35
 1003 0 1003 0 969 0 c 2,36,-1
 289 0 l 2,37,38
 254 0 254 0 229.5 24.5 c 128,-1,39
 205 49 205 49 205 84 c 256,40,41
 205 119 205 119 229.5 143.5 c 128,-1,42
 254 168 254 168 289 168 c 2,43,-1
 547 168 l 1,44,-1
 547 1159 l 1,45,-1
 289 1159 l 2,46,47
 254 1159 254 1159 229.5 1184 c 128,-1,48
 205 1209 205 1209 205 1243 c 0,49,50
 205 1279 205 1279 229.5 1304 c 128,-1,51
 254 1329 254 1329 289 1329 c 2,20,-1
EndSplineSet
EndChar

StartChar: ibreve
Encoding: 301 301 48
Width: 1237
Flags: W
LayerCount: 2
Fore
SplineSet
860 1408 m 0,0,1
 895 1408 895 1408 920.5 1386.5 c 128,-1,2
 946 1365 946 1365 946 1336 c 0,3,4
 946 1269 946 1269 825 1183 c 128,-1,5
 704 1097 704 1097 556 1097 c 0,6,7
 409 1097 409 1097 288 1183 c 128,-1,8
 167 1269 167 1269 167 1336 c 0,9,10
 167 1365 167 1365 192.5 1386.5 c 128,-1,11
 218 1408 218 1408 253 1408 c 0,12,13
 294 1408 294 1408 319 1384 c 0,14,15
 428 1267 428 1267 556 1267 c 0,16,17
 685 1267 685 1267 794 1384 c 0,18,19
 819 1408 819 1408 860 1408 c 0,0,1
885 2 m 2,20,-1
 373 2 l 2,21,22
 338 2 338 2 313.5 26.5 c 128,-1,23
 289 51 289 51 289 86 c 0,24,25
 289 120 289 120 313.5 145 c 128,-1,26
 338 170 338 170 373 170 c 2,27,-1
 545 170 l 1,28,-1
 545 797 l 1,29,-1
 375 797 l 2,30,31
 340 797 340 797 315.5 822 c 128,-1,32
 291 847 291 847 291 881 c 0,33,34
 291 916 291 916 315.5 941.5 c 128,-1,35
 340 967 340 967 375 967 c 2,36,-1
 631 967 l 2,37,38
 666 967 666 967 690.5 941.5 c 128,-1,39
 715 916 715 916 715 881 c 2,40,-1
 715 170 l 1,41,-1
 883 170 l 2,42,43
 918 170 918 170 943.5 145.5 c 128,-1,44
 969 121 969 121 969 86 c 256,45,46
 969 51 969 51 944 26.5 c 128,-1,47
 919 2 919 2 885 2 c 2,20,-1
EndSplineSet
EndChar

StartChar: Iogonek
Encoding: 302 302 49
Width: 1237
Flags: W
LayerCount: 2
Fore
SplineSet
969 0 m 1,0,-1
 969 -190 l 1,1,-1
 1089 -190 l 2,2,3
 1124 -190 1124 -190 1148.5 -215.5 c 128,-1,4
 1173 -241 1173 -241 1173 -276 c 0,5,6
 1173 -310 1173 -310 1148 -335 c 128,-1,7
 1123 -360 1123 -360 1089 -360 c 2,8,-1
 885 -360 l 2,9,10
 870 -360 870 -360 826 -335 c 0,11,12
 801 -321 801 -321 801 -274 c 2,13,-1
 801 0 l 1,14,-1
 969 0 l 1,0,-1
289 1329 m 2,15,-1
 969 1329 l 2,16,17
 1002 1329 1002 1329 1027.5 1304 c 128,-1,18
 1053 1279 1053 1279 1053 1245 c 0,19,20
 1053 1210 1053 1210 1028 1184.5 c 128,-1,21
 1003 1159 1003 1159 969 1159 c 2,22,-1
 715 1159 l 1,23,-1
 715 168 l 1,24,-1
 969 168 l 2,25,26
 1004 168 1004 168 1028.5 143.5 c 128,-1,27
 1053 119 1053 119 1053 84 c 256,28,29
 1053 49 1053 49 1028 24.5 c 128,-1,30
 1003 0 1003 0 969 0 c 2,31,-1
 289 0 l 2,32,33
 254 0 254 0 229.5 24.5 c 128,-1,34
 205 49 205 49 205 84 c 256,35,36
 205 119 205 119 229.5 143.5 c 128,-1,37
 254 168 254 168 289 168 c 2,38,-1
 547 168 l 1,39,-1
 547 1159 l 1,40,-1
 289 1159 l 2,41,42
 254 1159 254 1159 229.5 1184 c 128,-1,43
 205 1209 205 1209 205 1243 c 0,44,45
 205 1279 205 1279 229.5 1304 c 128,-1,46
 254 1329 254 1329 289 1329 c 2,15,-1
EndSplineSet
EndChar

StartChar: iogonek
Encoding: 303 303 50
Width: 1237
Flags: W
LayerCount: 2
Fore
SplineSet
885 2 m 1,0,-1
 885 -188 l 1,1,-1
 1005 -188 l 2,2,3
 1040 -188 1040 -188 1064.5 -213.5 c 128,-1,4
 1089 -239 1089 -239 1089 -274 c 0,5,6
 1089 -308 1089 -308 1064 -333 c 128,-1,7
 1039 -358 1039 -358 1005 -358 c 2,8,-1
 801 -358 l 2,9,10
 786 -358 786 -358 742 -333 c 0,11,12
 717 -319 717 -319 717 -272 c 2,13,-1
 717 2 l 1,14,-1
 885 2 l 1,0,-1
543 1403 m 2,15,-1
 631 1403 l 2,16,17
 666 1403 666 1403 690.5 1378.5 c 128,-1,18
 715 1354 715 1354 715 1319 c 2,19,-1
 715 1247 l 2,20,21
 715 1212 715 1212 690.5 1186.5 c 128,-1,22
 666 1161 666 1161 631 1161 c 2,23,-1
 541 1161 l 2,24,25
 505 1161 505 1161 480.5 1187 c 128,-1,26
 456 1213 456 1213 457 1245 c 2,27,-1
 459 1319 l 2,28,29
 459 1354 459 1354 483.5 1378.5 c 128,-1,30
 508 1403 508 1403 543 1403 c 2,15,-1
885 2 m 2,31,-1
 373 2 l 2,32,33
 338 2 338 2 313.5 26.5 c 128,-1,34
 289 51 289 51 289 86 c 0,35,36
 289 120 289 120 313.5 145 c 128,-1,37
 338 170 338 170 373 170 c 2,38,-1
 545 170 l 1,39,-1
 545 797 l 1,40,-1
 375 797 l 2,41,42
 340 797 340 797 315.5 822 c 128,-1,43
 291 847 291 847 291 881 c 0,44,45
 291 916 291 916 315.5 941.5 c 128,-1,46
 340 967 340 967 375 967 c 2,47,-1
 631 967 l 2,48,49
 666 967 666 967 690.5 941.5 c 128,-1,50
 715 916 715 916 715 881 c 2,51,-1
 715 170 l 1,52,-1
 883 170 l 2,53,54
 918 170 918 170 943.5 145.5 c 128,-1,55
 969 121 969 121 969 86 c 256,56,57
 969 51 969 51 944 26.5 c 128,-1,58
 919 2 919 2 885 2 c 2,31,-1
EndSplineSet
EndChar

StartChar: Idotaccent
Encoding: 304 304 51
Width: 1237
Flags: W
LayerCount: 2
Fore
SplineSet
731 1478 m 2,0,1
 731 1444 731 1444 707 1418 c 0,2,3
 686 1396 686 1396 647 1396 c 0,4,5
 603 1396 603 1396 588 1421 c 0,6,7
 564 1460 564 1460 564 1478 c 2,8,-1
 564 1527 l 2,9,10
 564 1562 564 1562 588 1586 c 0,11,12
 611 1611 611 1611 647 1611 c 0,13,14
 684 1612 684 1612 707 1586 c 0,15,16
 731 1560 731 1560 731 1527 c 2,17,-1
 731 1478 l 2,0,1
289 1329 m 2,18,-1
 969 1329 l 2,19,20
 1002 1329 1002 1329 1027.5 1304 c 128,-1,21
 1053 1279 1053 1279 1053 1245 c 0,22,23
 1053 1210 1053 1210 1028 1184.5 c 128,-1,24
 1003 1159 1003 1159 969 1159 c 2,25,-1
 715 1159 l 1,26,-1
 715 168 l 1,27,-1
 969 168 l 2,28,29
 1004 168 1004 168 1028.5 143.5 c 128,-1,30
 1053 119 1053 119 1053 84 c 256,31,32
 1053 49 1053 49 1028 24.5 c 128,-1,33
 1003 0 1003 0 969 0 c 2,34,-1
 289 0 l 2,35,36
 254 0 254 0 229.5 24.5 c 128,-1,37
 205 49 205 49 205 84 c 256,38,39
 205 119 205 119 229.5 143.5 c 128,-1,40
 254 168 254 168 289 168 c 2,41,-1
 547 168 l 1,42,-1
 547 1159 l 1,43,-1
 289 1159 l 2,44,45
 254 1159 254 1159 229.5 1184 c 128,-1,46
 205 1209 205 1209 205 1243 c 0,47,48
 205 1279 205 1279 229.5 1304 c 128,-1,49
 254 1329 254 1329 289 1329 c 2,18,-1
EndSplineSet
EndChar

StartChar: IJ
Encoding: 306 306 52
Width: 1733
Flags: W
LayerCount: 2
Fore
SplineSet
139 1329 m 2,0,-1
 819 1329 l 2,1,2
 852 1329 852 1329 877.5 1304 c 128,-1,3
 903 1279 903 1279 903 1245 c 0,4,5
 903 1210 903 1210 878 1184.5 c 128,-1,6
 853 1159 853 1159 819 1159 c 2,7,-1
 565 1159 l 1,8,-1
 565 168 l 1,9,-1
 819 168 l 2,10,11
 854 168 854 168 878.5 143.5 c 128,-1,12
 903 119 903 119 903 84 c 256,13,14
 903 49 903 49 878 24.5 c 128,-1,15
 853 0 853 0 819 0 c 2,16,-1
 139 0 l 2,17,18
 104 0 104 0 79.5 24.5 c 128,-1,19
 55 49 55 49 55 84 c 256,20,21
 55 119 55 119 79.5 143.5 c 128,-1,22
 104 168 104 168 139 168 c 2,23,-1
 397 168 l 1,24,-1
 397 1159 l 1,25,-1
 139 1159 l 2,26,27
 104 1159 104 1159 79.5 1184 c 128,-1,28
 55 1209 55 1209 55 1243 c 0,29,30
 55 1279 55 1279 79.5 1304 c 128,-1,31
 104 1329 104 1329 139 1329 c 2,0,-1
984 254 m 2,32,-1
 984 520 l 2,33,34
 984 555 984 555 1008.5 579.5 c 128,-1,35
 1033 604 1033 604 1068 604 c 256,36,37
 1103 604 1103 604 1127.5 579.5 c 128,-1,38
 1152 555 1152 555 1152 520 c 2,39,-1
 1152 252 l 2,40,41
 1152 218 1152 218 1177 194 c 128,-1,42
 1202 170 1202 170 1238 170 c 2,43,-1
 1408 170 l 2,44,45
 1443 170 1443 170 1468.5 194.5 c 128,-1,46
 1494 219 1494 219 1494 254 c 2,47,-1
 1494 1245 l 2,48,49
 1494 1280 1494 1280 1518 1304.5 c 128,-1,50
 1542 1329 1542 1329 1576 1329 c 256,51,52
 1610 1329 1610 1329 1636 1302 c 128,-1,53
 1662 1275 1662 1275 1662 1241 c 2,54,-1
 1662 254 l 2,55,56
 1662 148 1662 148 1585 74 c 128,-1,57
 1508 0 1508 0 1408 0 c 2,58,-1
 1238 0 l 2,59,60
 1133 0 1133 0 1058.5 75 c 128,-1,61
 984 150 984 150 984 254 c 2,32,-1
EndSplineSet
EndChar

StartChar: ij
Encoding: 307 307 53
Width: 1573
Flags: W
LayerCount: 2
Fore
SplineSet
320 1401 m 2,0,-1
 408 1401 l 2,1,2
 443 1401 443 1401 467.5 1376.5 c 128,-1,3
 492 1352 492 1352 492 1317 c 2,4,-1
 492 1245 l 2,5,6
 492 1210 492 1210 467.5 1184.5 c 128,-1,7
 443 1159 443 1159 408 1159 c 2,8,-1
 318 1159 l 2,9,10
 282 1159 282 1159 257.5 1185 c 128,-1,11
 233 1211 233 1211 234 1243 c 2,12,-1
 236 1317 l 2,13,14
 236 1352 236 1352 260.5 1376.5 c 128,-1,15
 285 1401 285 1401 320 1401 c 2,0,-1
662 0 m 2,16,-1
 150 0 l 2,17,18
 115 0 115 0 90.5 24.5 c 128,-1,19
 66 49 66 49 66 84 c 0,20,21
 66 118 66 118 90.5 143 c 128,-1,22
 115 168 115 168 150 168 c 2,23,-1
 322 168 l 1,24,-1
 322 795 l 1,25,-1
 152 795 l 2,26,27
 117 795 117 795 92.5 820 c 128,-1,28
 68 845 68 845 68 879 c 0,29,30
 68 914 68 914 92.5 939.5 c 128,-1,31
 117 965 117 965 152 965 c 2,32,-1
 408 965 l 2,33,34
 443 965 443 965 467.5 939.5 c 128,-1,35
 492 914 492 914 492 879 c 2,36,-1
 492 168 l 1,37,-1
 660 168 l 2,38,39
 695 168 695 168 720.5 143.5 c 128,-1,40
 746 119 746 119 746 84 c 256,41,42
 746 49 746 49 721 24.5 c 128,-1,43
 696 0 696 0 662 0 c 2,16,-1
1336 1402 m 2,44,-1
 1426 1402 l 2,45,46
 1460 1402 1460 1402 1485 1377 c 128,-1,47
 1510 1352 1510 1352 1510 1318 c 2,48,-1
 1510 1244 l 2,49,50
 1510 1210 1510 1210 1486 1185 c 128,-1,51
 1462 1160 1462 1160 1426 1160 c 2,52,-1
 1336 1160 l 2,53,54
 1302 1160 1302 1160 1277 1185 c 128,-1,55
 1252 1210 1252 1210 1252 1244 c 2,56,-1
 1252 1318 l 2,57,58
 1254 1352 1254 1352 1279 1377 c 128,-1,59
 1304 1402 1304 1402 1336 1402 c 2,44,-1
1256 -356 m 2,60,-1
 1078 -356 l 2,61,62
 976 -356 976 -356 900 -283 c 128,-1,63
 824 -210 824 -210 824 -126 c 0,64,65
 824 -96 824 -96 849 -71 c 128,-1,66
 874 -46 874 -46 910 -46 c 0,67,68
 948 -46 948 -46 964 -63 c 128,-1,69
 980 -80 980 -80 993 -116 c 128,-1,70
 1006 -152 1006 -152 1024 -171 c 128,-1,71
 1042 -190 1042 -190 1086 -190 c 2,72,-1
 1254 -190 l 2,73,74
 1290 -190 1290 -190 1314 -165 c 128,-1,75
 1338 -140 1338 -140 1338 -106 c 2,76,-1
 1338 800 l 1,77,-1
 1082 800 l 2,78,79
 1048 800 1048 800 1023 824 c 128,-1,80
 998 848 998 848 998 884 c 0,81,82
 998 918 998 918 1023 943 c 128,-1,83
 1048 968 1048 968 1082 968 c 2,84,-1
 1424 968 l 2,85,86
 1460 968 1460 968 1484 943 c 128,-1,87
 1508 918 1508 918 1508 882 c 2,88,-1
 1508 -106 l 2,89,90
 1508 -208 1508 -208 1434 -282 c 128,-1,91
 1360 -356 1360 -356 1256 -356 c 2,60,-1
EndSplineSet
EndChar

StartChar: Jcircumflex
Encoding: 308 308 54
Width: 1272
Flags: W
LayerCount: 2
Fore
SplineSet
289 254 m 2,0,-1
 289 520 l 2,1,2
 289 555 289 555 313.5 579.5 c 128,-1,3
 338 604 338 604 373 604 c 256,4,5
 408 604 408 604 432.5 579.5 c 128,-1,6
 457 555 457 555 457 520 c 2,7,-1
 457 252 l 2,8,9
 457 218 457 218 482 194 c 128,-1,10
 507 170 507 170 543 170 c 2,11,-1
 713 170 l 2,12,13
 748 170 748 170 773.5 194.5 c 128,-1,14
 799 219 799 219 799 254 c 2,15,-1
 799 1245 l 2,16,17
 799 1280 799 1280 823 1304.5 c 128,-1,18
 847 1329 847 1329 881 1329 c 256,19,20
 915 1329 915 1329 941 1302 c 128,-1,21
 967 1275 967 1275 967 1241 c 2,22,-1
 967 254 l 2,23,24
 967 148 967 148 890 74 c 128,-1,25
 813 0 813 0 713 0 c 2,26,-1
 543 0 l 2,27,28
 438 0 438 0 363.5 75 c 128,-1,29
 289 150 289 150 289 254 c 2,0,-1
866 1515 m 1,30,-1
 596 1390 l 2,31,32
 579 1382 579 1382 560 1382 c 0,33,34
 524 1382 524 1382 500.5 1408.5 c 128,-1,35
 477 1435 477 1435 477 1468 c 0,36,37
 477 1522 477 1522 524 1544 c 2,38,-1
 830 1685 l 2,39,40
 850 1693 850 1693 866 1693 c 0,41,42
 886 1693 886 1693 903 1685 c 2,43,-1
 1209 1544 l 2,44,45
 1256 1520 1256 1520 1256 1468 c 0,46,47
 1256 1435 1256 1435 1232.5 1408.5 c 128,-1,48
 1209 1382 1209 1382 1173 1382 c 0,49,50
 1155 1382 1155 1382 1137 1390 c 2,51,-1
 866 1515 l 1,30,-1
EndSplineSet
EndChar

StartChar: jcircumflex
Encoding: 309 309 55
Width: 1237
Flags: W
LayerCount: 2
Fore
SplineSet
719 -360 m 2,0,-1
 541 -360 l 2,1,2
 439 -360 439 -360 363 -286.5 c 128,-1,3
 287 -213 287 -213 287 -129 c 0,4,5
 287 -99 287 -99 312 -74 c 128,-1,6
 337 -49 337 -49 373 -49 c 0,7,8
 411 -49 411 -49 426.5 -66 c 128,-1,9
 442 -83 442 -83 455.5 -119 c 128,-1,10
 469 -155 469 -155 487 -174 c 128,-1,11
 505 -193 505 -193 549 -193 c 2,12,-1
 717 -193 l 2,13,14
 752 -193 752 -193 776.5 -168.5 c 128,-1,15
 801 -144 801 -144 801 -109 c 2,16,-1
 801 797 l 1,17,-1
 545 797 l 2,18,19
 510 797 510 797 485.5 821 c 128,-1,20
 461 845 461 845 461 881 c 0,21,22
 461 915 461 915 485.5 940 c 128,-1,23
 510 965 510 965 545 965 c 2,24,-1
 887 965 l 2,25,26
 922 965 922 965 946.5 939.5 c 128,-1,27
 971 914 971 914 971 879 c 2,28,-1
 971 -109 l 2,29,30
 971 -212 971 -212 897 -286 c 128,-1,31
 823 -360 823 -360 719 -360 c 2,0,-1
750 1151 m 1,32,-1
 480 1026 l 2,33,34
 463 1018 463 1018 444 1018 c 0,35,36
 408 1018 408 1018 384.5 1044.5 c 128,-1,37
 361 1071 361 1071 361 1104 c 0,38,39
 361 1158 361 1158 408 1180 c 2,40,-1
 714 1321 l 2,41,42
 734 1329 734 1329 750 1329 c 0,43,44
 770 1329 770 1329 787 1321 c 2,45,-1
 1093 1180 l 2,46,47
 1140 1156 1140 1156 1140 1104 c 0,48,49
 1140 1071 1140 1071 1116.5 1044.5 c 128,-1,50
 1093 1018 1093 1018 1057 1018 c 0,51,52
 1039 1018 1039 1018 1021 1026 c 2,53,-1
 750 1151 l 1,32,-1
EndSplineSet
EndChar

StartChar: uni0136
Encoding: 310 310 56
Width: 1237
Flags: W
LayerCount: 2
Fore
SplineSet
684 -282 m 2,0,1
 684 -316 684 -316 660 -342 c 0,2,3
 636 -366 636 -366 600 -366 c 0,4,5
 565 -366 565 -366 541 -342 c 0,6,7
 517 -316 517 -316 517 -282 c 2,8,-1
 517 -139 l 2,9,10
 517 -104 517 -104 541 -80 c 0,11,12
 564 -56 564 -56 600 -55 c 0,13,14
 632 -54 632 -54 656 -80 c 0,15,16
 684 -108 684 -108 684 -139 c 2,17,-1
 684 -282 l 2,0,1
205 84 m 2,18,-1
 205 1243 l 2,19,20
 205 1279 205 1279 229.5 1304 c 128,-1,21
 254 1329 254 1329 289 1329 c 256,22,23
 324 1329 324 1329 348.5 1304.5 c 128,-1,24
 373 1280 373 1280 373 1245 c 2,25,-1
 373 848 l 1,26,-1
 911 1307 l 2,27,28
 939 1330 939 1330 974 1330 c 256,29,30
 1009 1330 1009 1330 1033 1304 c 128,-1,31
 1057 1278 1057 1278 1057 1244 c 0,32,33
 1057 1209 1057 1209 1030 1186 c 2,34,-1
 420 668 l 1,35,-1
 1030 141 l 2,36,37
 1055 120 1055 120 1055 87 c 256,38,39
 1055 54 1055 54 1030.5 27 c 128,-1,40
 1006 0 1006 0 970 0 c 0,41,42
 936 0 936 0 909 23 c 2,43,-1
 373 485 l 1,44,-1
 373 84 l 2,45,46
 373 49 373 49 348.5 24.5 c 128,-1,47
 324 0 324 0 289 0 c 0,48,49
 255 0 255 0 230 24.5 c 128,-1,50
 205 49 205 49 205 84 c 2,18,-1
EndSplineSet
EndChar

StartChar: uni0137
Encoding: 311 311 57
Width: 1237
Flags: W
LayerCount: 2
Fore
SplineSet
684 -282 m 2,0,1
 684 -316 684 -316 660 -342 c 0,2,3
 636 -366 636 -366 600 -366 c 0,4,5
 565 -366 565 -366 541 -342 c 0,6,7
 517 -316 517 -316 517 -282 c 2,8,-1
 517 -139 l 2,9,10
 517 -104 517 -104 541 -80 c 0,11,12
 564 -56 564 -56 600 -55 c 0,13,14
 632 -54 632 -54 656 -80 c 0,15,16
 684 -108 684 -108 684 -139 c 2,17,-1
 684 -282 l 2,0,1
207 84 m 2,18,-1
 207 1243 l 2,19,20
 207 1279 207 1279 231.5 1304 c 128,-1,21
 256 1329 256 1329 291 1329 c 256,22,23
 326 1329 326 1329 350.5 1304 c 128,-1,24
 375 1279 375 1279 375 1243 c 2,25,-1
 375 557 l 1,26,-1
 827 942 l 2,27,28
 856 966 856 966 890 966 c 0,29,30
 926 966 926 966 950 940.5 c 128,-1,31
 974 915 974 915 974 880 c 0,32,33
 974 843 974 843 948 821 c 2,34,-1
 596 522 l 1,35,-1
 1030 141 l 2,36,37
 1056 120 1056 120 1056 86 c 0,38,39
 1056 53 1056 53 1032 26.5 c 128,-1,40
 1008 0 1008 0 973 0 c 256,41,42
 938 0 938 0 911 23 c 2,43,-1
 463 412 l 1,44,-1
 375 338 l 1,45,-1
 375 84 l 2,46,47
 375 49 375 49 350.5 24.5 c 128,-1,48
 326 0 326 0 291 0 c 256,49,50
 256 0 256 0 231.5 24.5 c 128,-1,51
 207 49 207 49 207 84 c 2,18,-1
EndSplineSet
EndChar

StartChar: kgreenlandic
Encoding: 312 312 58
Width: 1237
Flags: W
LayerCount: 2
Fore
SplineSet
347 84 m 2,0,-1
 347 713 l 2,1,2
 347 750 347 750 371 774 c 0,3,4
 397 799 397 799 431 799 c 0,5,6
 467 799 467 799 490 757 c 2,7,-1
 515 715 l 1,8,-1
 515 592 l 1,9,-1
 728 777 l 1,10,-1
 791 800 l 2,11,12
 817 809 817 809 850 774 c 256,13,14
 883 739 883 739 874 714 c 0,15,16
 858 665 858 665 847 656 c 2,17,-1
 562 412 l 1,18,-1
 865 144 l 2,19,20
 890 122 890 122 890 90 c 0,21,22
 890 56 890 56 866 30 c 0,23,24
 841 3 841 3 805 3 c 0,25,26
 770 3 770 3 744 26 c 2,27,-1
 515 229 l 1,28,-1
 515 84 l 2,29,30
 515 49 515 49 490 25 c 0,31,32
 466 0 466 0 431 0 c 0,33,34
 388 0 388 0 372 24 c 0,35,36
 347 64 347 64 347 84 c 2,0,-1
EndSplineSet
EndChar

StartChar: Lacute
Encoding: 313 313 59
Width: 1237
Flags: W
LayerCount: 2
Fore
SplineSet
207 0 m 1,0,-1
 207 1245 l 2,1,2
 207 1279 207 1279 232 1304 c 128,-1,3
 257 1329 257 1329 291 1329 c 256,4,5
 325 1329 325 1329 350 1304 c 128,-1,6
 375 1279 375 1279 375 1245 c 2,7,-1
 375 168 l 1,8,-1
 969 168 l 2,9,10
 1004 168 1004 168 1029.5 143.5 c 128,-1,11
 1055 119 1055 119 1055 84 c 256,12,13
 1055 49 1055 49 1029.5 24.5 c 128,-1,14
 1004 0 1004 0 969 0 c 2,15,-1
 207 0 l 1,0,-1
735 1685 m 2,16,17
 753 1693 753 1693 772 1693 c 0,18,19
 808 1693 808 1693 831 1666.5 c 128,-1,20
 854 1640 854 1640 854 1607 c 0,21,22
 854 1553 854 1553 807 1531 c 2,23,-1
 502 1390 l 2,24,25
 484 1382 484 1382 465 1382 c 0,26,27
 429 1382 429 1382 406 1408.5 c 128,-1,28
 383 1435 383 1435 383 1468 c 0,29,30
 383 1522 383 1522 430 1544 c 2,31,-1
 735 1685 l 2,16,17
EndSplineSet
EndChar

StartChar: lacute
Encoding: 314 314 60
Width: 1237
Flags: W
LayerCount: 2
Fore
SplineSet
885 0 m 2,0,-1
 377 0 l 2,1,2
 342 0 342 0 317.5 25.5 c 128,-1,3
 293 51 293 51 293 86 c 0,4,5
 293 120 293 120 317.5 145 c 128,-1,6
 342 170 342 170 377 170 c 2,7,-1
 545 170 l 1,8,-1
 545 1161 l 1,9,-1
 375 1161 l 2,10,11
 340 1161 340 1161 315.5 1185.5 c 128,-1,12
 291 1210 291 1210 291 1245 c 256,13,14
 291 1280 291 1280 315.5 1304.5 c 128,-1,15
 340 1329 340 1329 375 1329 c 2,16,-1
 631 1329 l 2,17,18
 665 1329 665 1329 690 1304 c 128,-1,19
 715 1279 715 1279 715 1245 c 2,20,-1
 715 170 l 1,21,-1
 885 170 l 2,22,23
 919 170 919 170 944 145 c 128,-1,24
 969 120 969 120 969 86 c 0,25,26
 969 51 969 51 944.5 25.5 c 128,-1,27
 920 0 920 0 885 0 c 2,0,-1
735 1685 m 2,28,29
 753 1693 753 1693 772 1693 c 0,30,31
 808 1693 808 1693 831 1666.5 c 128,-1,32
 854 1640 854 1640 854 1607 c 0,33,34
 854 1553 854 1553 807 1531 c 2,35,-1
 502 1390 l 2,36,37
 484 1382 484 1382 465 1382 c 0,38,39
 429 1382 429 1382 406 1408.5 c 128,-1,40
 383 1435 383 1435 383 1468 c 0,41,42
 383 1522 383 1522 430 1544 c 2,43,-1
 735 1685 l 2,28,29
EndSplineSet
EndChar

StartChar: uni013B
Encoding: 315 315 61
Width: 1237
Flags: W
LayerCount: 2
Fore
SplineSet
684 -282 m 2,0,1
 684 -316 684 -316 660 -342 c 0,2,3
 636 -366 636 -366 600 -366 c 0,4,5
 565 -366 565 -366 541 -342 c 0,6,7
 517 -316 517 -316 517 -282 c 2,8,-1
 517 -139 l 2,9,10
 517 -104 517 -104 541 -80 c 0,11,12
 564 -56 564 -56 600 -55 c 0,13,14
 632 -54 632 -54 656 -80 c 0,15,16
 684 -108 684 -108 684 -139 c 2,17,-1
 684 -282 l 2,0,1
207 0 m 1,18,-1
 207 1245 l 2,19,20
 207 1279 207 1279 232 1304 c 128,-1,21
 257 1329 257 1329 291 1329 c 256,22,23
 325 1329 325 1329 350 1304 c 128,-1,24
 375 1279 375 1279 375 1245 c 2,25,-1
 375 168 l 1,26,-1
 969 168 l 2,27,28
 1004 168 1004 168 1029.5 143.5 c 128,-1,29
 1055 119 1055 119 1055 84 c 256,30,31
 1055 49 1055 49 1029.5 24.5 c 128,-1,32
 1004 0 1004 0 969 0 c 2,33,-1
 207 0 l 1,18,-1
EndSplineSet
EndChar

StartChar: uni013C
Encoding: 316 316 62
Width: 1237
Flags: W
LayerCount: 2
Fore
SplineSet
684 -282 m 2,0,1
 684 -316 684 -316 660 -342 c 0,2,3
 636 -366 636 -366 600 -366 c 0,4,5
 565 -366 565 -366 541 -342 c 0,6,7
 517 -316 517 -316 517 -282 c 2,8,-1
 517 -139 l 2,9,10
 517 -104 517 -104 541 -80 c 0,11,12
 564 -56 564 -56 600 -55 c 0,13,14
 632 -54 632 -54 656 -80 c 0,15,16
 684 -108 684 -108 684 -139 c 2,17,-1
 684 -282 l 2,0,1
885 0 m 2,18,-1
 377 0 l 2,19,20
 342 0 342 0 317.5 25.5 c 128,-1,21
 293 51 293 51 293 86 c 0,22,23
 293 120 293 120 317.5 145 c 128,-1,24
 342 170 342 170 377 170 c 2,25,-1
 545 170 l 1,26,-1
 545 1161 l 1,27,-1
 375 1161 l 2,28,29
 340 1161 340 1161 315.5 1185.5 c 128,-1,30
 291 1210 291 1210 291 1245 c 256,31,32
 291 1280 291 1280 315.5 1304.5 c 128,-1,33
 340 1329 340 1329 375 1329 c 2,34,-1
 631 1329 l 2,35,36
 665 1329 665 1329 690 1304 c 128,-1,37
 715 1279 715 1279 715 1245 c 2,38,-1
 715 170 l 1,39,-1
 885 170 l 2,40,41
 919 170 919 170 944 145 c 128,-1,42
 969 120 969 120 969 86 c 0,43,44
 969 51 969 51 944.5 25.5 c 128,-1,45
 920 0 920 0 885 0 c 2,18,-1
EndSplineSet
EndChar

StartChar: Lcaron
Encoding: 317 317 63
Width: 1237
Flags: W
LayerCount: 2
Fore
SplineSet
576 1319 m 2,0,-1
 676 1319 l 2,1,2
 697 1319 697 1319 712 1304 c 128,-1,3
 727 1289 727 1289 727 1268 c 0,4,5
 727 1262 727 1262 725 1256 c 2,6,-1
 624 909 l 2,7,8
 612 871 612 871 575 871 c 0,9,10
 553 871 553 871 538.5 886.5 c 128,-1,11
 524 902 524 902 524 925 c 2,12,-1
 524 1263 l 2,13,14
 524 1287 524 1287 538 1303 c 128,-1,15
 552 1319 552 1319 576 1319 c 2,0,-1
207 0 m 1,16,-1
 207 1245 l 2,17,18
 207 1279 207 1279 232 1304 c 128,-1,19
 257 1329 257 1329 291 1329 c 256,20,21
 325 1329 325 1329 350 1304 c 128,-1,22
 375 1279 375 1279 375 1245 c 2,23,-1
 375 168 l 1,24,-1
 969 168 l 2,25,26
 1004 168 1004 168 1029.5 143.5 c 128,-1,27
 1055 119 1055 119 1055 84 c 256,28,29
 1055 49 1055 49 1029.5 24.5 c 128,-1,30
 1004 0 1004 0 969 0 c 2,31,-1
 207 0 l 1,16,-1
EndSplineSet
EndChar

StartChar: lcaron
Encoding: 318 318 64
Width: 1237
Flags: W
LayerCount: 2
Fore
SplineSet
915 1319 m 2,0,-1
 1015 1319 l 2,1,2
 1036 1319 1036 1319 1051 1304 c 128,-1,3
 1066 1289 1066 1289 1066 1268 c 0,4,5
 1066 1262 1066 1262 1064 1256 c 2,6,-1
 963 909 l 2,7,8
 951 871 951 871 914 871 c 0,9,10
 892 871 892 871 877.5 886.5 c 128,-1,11
 863 902 863 902 863 925 c 2,12,-1
 863 1263 l 2,13,14
 863 1287 863 1287 877 1303 c 128,-1,15
 891 1319 891 1319 915 1319 c 2,0,-1
885 0 m 2,16,-1
 377 0 l 2,17,18
 342 0 342 0 317.5 25.5 c 128,-1,19
 293 51 293 51 293 86 c 0,20,21
 293 120 293 120 317.5 145 c 128,-1,22
 342 170 342 170 377 170 c 2,23,-1
 545 170 l 1,24,-1
 545 1161 l 1,25,-1
 375 1161 l 2,26,27
 340 1161 340 1161 315.5 1185.5 c 128,-1,28
 291 1210 291 1210 291 1245 c 256,29,30
 291 1280 291 1280 315.5 1304.5 c 128,-1,31
 340 1329 340 1329 375 1329 c 2,32,-1
 631 1329 l 2,33,34
 665 1329 665 1329 690 1304 c 128,-1,35
 715 1279 715 1279 715 1245 c 2,36,-1
 715 170 l 1,37,-1
 885 170 l 2,38,39
 919 170 919 170 944 145 c 128,-1,40
 969 120 969 120 969 86 c 0,41,42
 969 51 969 51 944.5 25.5 c 128,-1,43
 920 0 920 0 885 0 c 2,16,-1
EndSplineSet
EndChar

StartChar: Ldot
Encoding: 319 319 65
Width: 1237
Flags: W
LayerCount: 2
Fore
SplineSet
921 758 m 2,0,1
 921 725 921 725 897 699 c 0,2,3
 876 677 876 677 837 678 c 0,4,5
 793 677 793 677 778 702 c 0,6,7
 754 741 754 741 754 758 c 2,8,-1
 754 808 l 2,9,10
 754 843 754 843 778 868 c 0,11,12
 801 892 801 892 837 892 c 0,13,14
 874 893 874 893 897 868 c 0,15,16
 921 841 921 841 921 808 c 2,17,-1
 921 758 l 2,0,1
207 0 m 1,18,-1
 207 1245 l 2,19,20
 207 1279 207 1279 232 1304 c 128,-1,21
 257 1329 257 1329 291 1329 c 256,22,23
 325 1329 325 1329 350 1304 c 128,-1,24
 375 1279 375 1279 375 1245 c 2,25,-1
 375 168 l 1,26,-1
 969 168 l 2,27,28
 1004 168 1004 168 1029.5 143.5 c 128,-1,29
 1055 119 1055 119 1055 84 c 256,30,31
 1055 49 1055 49 1029.5 24.5 c 128,-1,32
 1004 0 1004 0 969 0 c 2,33,-1
 207 0 l 1,18,-1
EndSplineSet
EndChar

StartChar: ldot
Encoding: 320 320 66
Width: 1237
Flags: W
LayerCount: 2
Fore
SplineSet
1044 758 m 2,0,1
 1044 725 1044 725 1020 699 c 0,2,3
 999 677 999 677 960 678 c 0,4,5
 916 677 916 677 901 702 c 0,6,7
 877 741 877 741 877 758 c 2,8,-1
 877 808 l 2,9,10
 877 843 877 843 901 868 c 0,11,12
 924 892 924 892 960 892 c 0,13,14
 997 893 997 893 1020 868 c 0,15,16
 1044 841 1044 841 1044 808 c 2,17,-1
 1044 758 l 2,0,1
885 0 m 2,18,-1
 377 0 l 2,19,20
 342 0 342 0 317.5 25.5 c 128,-1,21
 293 51 293 51 293 86 c 0,22,23
 293 120 293 120 317.5 145 c 128,-1,24
 342 170 342 170 377 170 c 2,25,-1
 545 170 l 1,26,-1
 545 1161 l 1,27,-1
 375 1161 l 2,28,29
 340 1161 340 1161 315.5 1185.5 c 128,-1,30
 291 1210 291 1210 291 1245 c 256,31,32
 291 1280 291 1280 315.5 1304.5 c 128,-1,33
 340 1329 340 1329 375 1329 c 2,34,-1
 631 1329 l 2,35,36
 665 1329 665 1329 690 1304 c 128,-1,37
 715 1279 715 1279 715 1245 c 2,38,-1
 715 170 l 1,39,-1
 885 170 l 2,40,41
 919 170 919 170 944 145 c 128,-1,42
 969 120 969 120 969 86 c 0,43,44
 969 51 969 51 944.5 25.5 c 128,-1,45
 920 0 920 0 885 0 c 2,18,-1
EndSplineSet
EndChar

StartChar: Nacute
Encoding: 323 323 67
Width: 1237
Flags: W
LayerCount: 2
Fore
SplineSet
1053 1243 m 2,0,-1
 1053 0 l 1,1,-1
 827 0 l 1,2,-1
 375 1032 l 1,3,-1
 375 84 l 2,4,5
 375 49 375 49 350.5 24.5 c 128,-1,6
 326 0 326 0 291 0 c 256,7,8
 256 0 256 0 231.5 24.5 c 128,-1,9
 207 49 207 49 207 84 c 2,10,-1
 207 1329 l 1,11,-1
 430 1329 l 1,12,-1
 883 299 l 1,13,-1
 883 1243 l 2,14,15
 883 1278 883 1278 908.5 1303.5 c 128,-1,16
 934 1329 934 1329 969 1329 c 256,17,18
 1004 1329 1004 1329 1028.5 1304 c 128,-1,19
 1053 1279 1053 1279 1053 1243 c 2,0,-1
735 1685 m 2,20,21
 753 1693 753 1693 772 1693 c 0,22,23
 808 1693 808 1693 831 1666.5 c 128,-1,24
 854 1640 854 1640 854 1607 c 0,25,26
 854 1553 854 1553 807 1531 c 2,27,-1
 502 1390 l 2,28,29
 484 1382 484 1382 465 1382 c 0,30,31
 429 1382 429 1382 406 1408.5 c 128,-1,32
 383 1435 383 1435 383 1468 c 0,33,34
 383 1522 383 1522 430 1544 c 2,35,-1
 735 1685 l 2,20,21
EndSplineSet
EndChar

StartChar: nacute
Encoding: 324 324 68
Width: 1237
Flags: W
LayerCount: 2
Fore
SplineSet
604 770 m 2,0,-1
 375 621 l 1,1,-1
 375 84 l 2,2,3
 375 50 375 50 350 25 c 128,-1,4
 325 0 325 0 291 0 c 256,5,6
 257 0 257 0 232 25 c 128,-1,7
 207 50 207 50 207 84 c 2,8,-1
 207 881 l 2,9,10
 207 916 207 916 231.5 941.5 c 128,-1,11
 256 967 256 967 291 967 c 0,12,13
 325 967 325 967 350 941.5 c 128,-1,14
 375 916 375 916 375 881 c 2,15,-1
 375 825 l 1,16,-1
 528 918 l 2,17,18
 605 967 605 967 702 967 c 2,19,-1
 780 967 l 2,20,21
 880 967 880 967 953 896 c 128,-1,22
 1026 825 1026 825 1030 721 c 2,23,-1
 1053 84 l 2,24,25
 1054 50 1054 50 1029 25 c 128,-1,26
 1004 0 1004 0 969 0 c 0,27,28
 936 0 936 0 911 22.5 c 128,-1,29
 886 45 886 45 885 84 c 2,30,-1
 860 711 l 2,31,32
 857 799 857 799 768 799 c 2,33,-1
 686 799 l 2,34,35
 648 799 648 799 604 770 c 2,0,-1
735 1321 m 2,36,37
 753 1329 753 1329 772 1329 c 0,38,39
 808 1329 808 1329 831 1302.5 c 128,-1,40
 854 1276 854 1276 854 1243 c 0,41,42
 854 1189 854 1189 807 1167 c 2,43,-1
 502 1026 l 2,44,45
 484 1018 484 1018 465 1018 c 0,46,47
 429 1018 429 1018 406 1044.5 c 128,-1,48
 383 1071 383 1071 383 1104 c 0,49,50
 383 1158 383 1158 430 1180 c 2,51,-1
 735 1321 l 2,36,37
EndSplineSet
EndChar

StartChar: uni0145
Encoding: 325 325 69
Width: 1237
Flags: W
LayerCount: 2
Fore
SplineSet
684 -282 m 2,0,1
 684 -316 684 -316 660 -342 c 0,2,3
 636 -366 636 -366 600 -366 c 0,4,5
 565 -366 565 -366 541 -342 c 0,6,7
 517 -316 517 -316 517 -282 c 2,8,-1
 517 -139 l 2,9,10
 517 -104 517 -104 541 -80 c 0,11,12
 564 -56 564 -56 600 -55 c 0,13,14
 632 -54 632 -54 656 -80 c 0,15,16
 684 -108 684 -108 684 -139 c 2,17,-1
 684 -282 l 2,0,1
1053 1243 m 2,18,-1
 1053 0 l 1,19,-1
 827 0 l 1,20,-1
 375 1032 l 1,21,-1
 375 84 l 2,22,23
 375 49 375 49 350.5 24.5 c 128,-1,24
 326 0 326 0 291 0 c 256,25,26
 256 0 256 0 231.5 24.5 c 128,-1,27
 207 49 207 49 207 84 c 2,28,-1
 207 1329 l 1,29,-1
 430 1329 l 1,30,-1
 883 299 l 1,31,-1
 883 1243 l 2,32,33
 883 1278 883 1278 908.5 1303.5 c 128,-1,34
 934 1329 934 1329 969 1329 c 256,35,36
 1004 1329 1004 1329 1028.5 1304 c 128,-1,37
 1053 1279 1053 1279 1053 1243 c 2,18,-1
EndSplineSet
EndChar

StartChar: uni0146
Encoding: 326 326 70
Width: 1237
Flags: W
LayerCount: 2
Fore
SplineSet
684 -282 m 2,0,1
 684 -316 684 -316 660 -342 c 0,2,3
 636 -366 636 -366 600 -366 c 0,4,5
 565 -366 565 -366 541 -342 c 0,6,7
 517 -316 517 -316 517 -282 c 2,8,-1
 517 -139 l 2,9,10
 517 -104 517 -104 541 -80 c 0,11,12
 564 -56 564 -56 600 -55 c 0,13,14
 632 -54 632 -54 656 -80 c 0,15,16
 684 -108 684 -108 684 -139 c 2,17,-1
 684 -282 l 2,0,1
604 770 m 2,18,-1
 375 621 l 1,19,-1
 375 84 l 2,20,21
 375 50 375 50 350 25 c 128,-1,22
 325 0 325 0 291 0 c 256,23,24
 257 0 257 0 232 25 c 128,-1,25
 207 50 207 50 207 84 c 2,26,-1
 207 881 l 2,27,28
 207 916 207 916 231.5 941.5 c 128,-1,29
 256 967 256 967 291 967 c 0,30,31
 325 967 325 967 350 941.5 c 128,-1,32
 375 916 375 916 375 881 c 2,33,-1
 375 825 l 1,34,-1
 528 918 l 2,35,36
 605 967 605 967 702 967 c 2,37,-1
 780 967 l 2,38,39
 880 967 880 967 953 896 c 128,-1,40
 1026 825 1026 825 1030 721 c 2,41,-1
 1053 84 l 2,42,43
 1054 50 1054 50 1029 25 c 128,-1,44
 1004 0 1004 0 969 0 c 0,45,46
 936 0 936 0 911 22.5 c 128,-1,47
 886 45 886 45 885 84 c 2,48,-1
 860 711 l 2,49,50
 857 799 857 799 768 799 c 2,51,-1
 686 799 l 2,52,53
 648 799 648 799 604 770 c 2,18,-1
EndSplineSet
EndChar

StartChar: Ncaron
Encoding: 327 327 71
Width: 1237
Flags: W
LayerCount: 2
Fore
SplineSet
627 1556 m 1,0,-1
 898 1681 l 2,1,2
 915 1689 915 1689 934 1689 c 0,3,4
 970 1689 970 1689 993.5 1662.5 c 128,-1,5
 1017 1636 1017 1636 1017 1622 c 0,6,7
 1017 1549 1017 1549 970 1527 c 2,8,-1
 664 1386 l 2,9,10
 647 1378 647 1378 627 1378 c 0,11,12
 608 1378 608 1378 591 1386 c 2,13,-1
 285 1527 l 2,14,15
 238 1549 238 1549 238 1603 c 0,16,17
 238 1636 238 1636 261.5 1662.5 c 128,-1,18
 285 1689 285 1689 321 1689 c 0,19,20
 340 1689 340 1689 357 1681 c 2,21,-1
 627 1556 l 1,0,-1
1053 1243 m 2,22,-1
 1053 0 l 1,23,-1
 827 0 l 1,24,-1
 375 1032 l 1,25,-1
 375 84 l 2,26,27
 375 49 375 49 350.5 24.5 c 128,-1,28
 326 0 326 0 291 0 c 256,29,30
 256 0 256 0 231.5 24.5 c 128,-1,31
 207 49 207 49 207 84 c 2,32,-1
 207 1329 l 1,33,-1
 430 1329 l 1,34,-1
 883 299 l 1,35,-1
 883 1243 l 2,36,37
 883 1278 883 1278 908.5 1303.5 c 128,-1,38
 934 1329 934 1329 969 1329 c 256,39,40
 1004 1329 1004 1329 1028.5 1304 c 128,-1,41
 1053 1279 1053 1279 1053 1243 c 2,22,-1
EndSplineSet
EndChar

StartChar: ncaron
Encoding: 328 328 72
Width: 1237
Flags: W
LayerCount: 2
Fore
SplineSet
604 770 m 2,0,-1
 375 621 l 1,1,-1
 375 84 l 2,2,3
 375 50 375 50 350 25 c 128,-1,4
 325 0 325 0 291 0 c 256,5,6
 257 0 257 0 232 25 c 128,-1,7
 207 50 207 50 207 84 c 2,8,-1
 207 881 l 2,9,10
 207 916 207 916 231.5 941.5 c 128,-1,11
 256 967 256 967 291 967 c 0,12,13
 325 967 325 967 350 941.5 c 128,-1,14
 375 916 375 916 375 881 c 2,15,-1
 375 825 l 1,16,-1
 528 918 l 2,17,18
 605 967 605 967 702 967 c 2,19,-1
 780 967 l 2,20,21
 880 967 880 967 953 896 c 128,-1,22
 1026 825 1026 825 1030 721 c 2,23,-1
 1053 84 l 2,24,25
 1054 50 1054 50 1029 25 c 128,-1,26
 1004 0 1004 0 969 0 c 0,27,28
 936 0 936 0 911 22.5 c 128,-1,29
 886 45 886 45 885 84 c 2,30,-1
 860 711 l 2,31,32
 857 799 857 799 768 799 c 2,33,-1
 686 799 l 2,34,35
 648 799 648 799 604 770 c 2,0,-1
645 1202 m 1,36,-1
 916 1327 l 2,37,38
 933 1335 933 1335 952 1335 c 0,39,40
 988 1335 988 1335 1011.5 1308.5 c 128,-1,41
 1035 1282 1035 1282 1035 1249 c 0,42,43
 1035 1195 1035 1195 988 1173 c 2,44,-1
 682 1032 l 2,45,46
 662 1024 662 1024 645 1024 c 0,47,48
 626 1024 626 1024 609 1032 c 2,49,-1
 303 1173 l 2,50,51
 256 1197 256 1197 256 1249 c 0,52,53
 256 1282 256 1282 279.5 1308.5 c 128,-1,54
 303 1335 303 1335 339 1335 c 0,55,56
 357 1335 357 1335 375 1327 c 2,57,-1
 645 1202 l 1,36,-1
EndSplineSet
EndChar

StartChar: napostrophe
Encoding: 329 329 73
Width: 1237
Flags: W
LayerCount: 2
Fore
SplineSet
146 1319 m 2,0,-1
 246 1319 l 2,1,2
 267 1319 267 1319 282 1304 c 128,-1,3
 297 1289 297 1289 297 1268 c 0,4,5
 297 1262 297 1262 295 1256 c 2,6,-1
 194 909 l 2,7,8
 182 871 182 871 145 871 c 0,9,10
 123 871 123 871 108 886.5 c 128,-1,11
 93 902 93 902 93 925 c 2,12,-1
 93 1263 l 2,13,14
 93 1287 93 1287 107 1303 c 128,-1,15
 121 1319 121 1319 146 1319 c 2,0,-1
695 770 m 2,16,-1
 466 621 l 1,17,-1
 466 84 l 2,18,19
 466 50 466 50 441 25 c 128,-1,20
 416 0 416 0 382 0 c 256,21,22
 348 0 348 0 323 25 c 128,-1,23
 298 50 298 50 298 84 c 2,24,-1
 298 881 l 2,25,26
 298 916 298 916 322.5 941.5 c 128,-1,27
 347 967 347 967 382 967 c 0,28,29
 416 967 416 967 441 941.5 c 128,-1,30
 466 916 466 916 466 881 c 2,31,-1
 466 825 l 1,32,-1
 619 918 l 2,33,34
 696 967 696 967 793 967 c 2,35,-1
 871 967 l 2,36,37
 971 967 971 967 1044 896 c 128,-1,38
 1117 825 1117 825 1121 721 c 2,39,-1
 1144 84 l 2,40,41
 1145 50 1145 50 1120 25 c 128,-1,42
 1095 0 1095 0 1060 0 c 0,43,44
 1027 0 1027 0 1002 22.5 c 128,-1,45
 977 45 977 45 976 84 c 2,46,-1
 951 711 l 2,47,48
 948 799 948 799 859 799 c 2,49,-1
 777 799 l 2,50,51
 739 799 739 799 695 770 c 2,16,-1
EndSplineSet
EndChar

StartChar: Eng
Encoding: 330 330 74
Width: 1237
Flags: W
LayerCount: 2
Fore
SplineSet
827 0 m 1,0,-1
 827 -190 l 1,1,-1
 707 -190 l 2,2,3
 672 -190 672 -190 647.5 -215.5 c 128,-1,4
 623 -241 623 -241 623 -276 c 0,5,6
 623 -310 623 -310 648 -335 c 128,-1,7
 673 -360 673 -360 707 -360 c 2,8,-1
 911 -360 l 2,9,10
 926 -360 926 -360 970 -335 c 0,11,12
 995 -321 995 -321 995 -274 c 2,13,-1
 995 0 l 1,14,-1
 827 0 l 1,0,-1
1053 1243 m 2,15,-1
 1053 0 l 1,16,-1
 827 0 l 1,17,-1
 375 1032 l 1,18,-1
 375 84 l 2,19,20
 375 49 375 49 350.5 24.5 c 128,-1,21
 326 0 326 0 291 0 c 256,22,23
 256 0 256 0 231.5 24.5 c 128,-1,24
 207 49 207 49 207 84 c 2,25,-1
 207 1329 l 1,26,-1
 430 1329 l 1,27,-1
 883 299 l 1,28,-1
 883 1243 l 2,29,30
 883 1278 883 1278 908.5 1303.5 c 128,-1,31
 934 1329 934 1329 969 1329 c 256,32,33
 1004 1329 1004 1329 1028.5 1304 c 128,-1,34
 1053 1279 1053 1279 1053 1243 c 2,15,-1
EndSplineSet
EndChar

StartChar: eng
Encoding: 331 331 75
Width: 1237
Flags: W
LayerCount: 2
Fore
SplineSet
1052 89 m 1,0,-1
 1053 -274 l 2,1,2
 1053 -321 1053 -321 1028 -335 c 0,3,4
 984 -360 984 -360 969 -360 c 2,5,-1
 765 -360 l 2,6,7
 731 -360 731 -360 706 -335 c 128,-1,8
 681 -310 681 -310 681 -276 c 0,9,10
 681 -241 681 -241 705.5 -215.5 c 128,-1,11
 730 -190 730 -190 765 -190 c 2,12,-1
 885 -190 l 1,13,-1
 885 89 l 1,14,-1
 1052 89 l 1,0,-1
604 770 m 2,15,-1
 375 621 l 1,16,-1
 375 84 l 2,17,18
 375 50 375 50 350 25 c 128,-1,19
 325 0 325 0 291 0 c 256,20,21
 257 0 257 0 232 25 c 128,-1,22
 207 50 207 50 207 84 c 2,23,-1
 207 881 l 2,24,25
 207 916 207 916 231.5 941.5 c 128,-1,26
 256 967 256 967 291 967 c 0,27,28
 325 967 325 967 350 941.5 c 128,-1,29
 375 916 375 916 375 881 c 2,30,-1
 375 825 l 1,31,-1
 528 918 l 2,32,33
 605 967 605 967 702 967 c 2,34,-1
 780 967 l 2,35,36
 880 967 880 967 953 896 c 128,-1,37
 1026 825 1026 825 1030 721 c 2,38,-1
 1053 84 l 2,39,40
 1054 50 1054 50 1029 25 c 128,-1,41
 1004 0 1004 0 969 0 c 0,42,43
 936 0 936 0 911 22.5 c 128,-1,44
 886 45 886 45 885 84 c 2,45,-1
 860 711 l 2,46,47
 857 799 857 799 768 799 c 2,48,-1
 686 799 l 2,49,50
 648 799 648 799 604 770 c 2,15,-1
EndSplineSet
EndChar

StartChar: Omacron
Encoding: 332 332 76
Width: 1237
Flags: W
LayerCount: 2
Fore
SplineSet
889 1598 m 2,0,1
 924 1598 924 1598 949.5 1573 c 128,-1,2
 975 1548 975 1548 975 1514 c 0,3,4
 975 1478 975 1478 949.5 1454 c 128,-1,5
 924 1430 924 1430 889 1430 c 2,6,-1
 369 1430 l 2,7,8
 335 1430 335 1430 310 1455 c 128,-1,9
 285 1480 285 1480 285 1514 c 256,10,11
 285 1548 285 1548 310 1573 c 128,-1,12
 335 1598 335 1598 369 1598 c 2,13,-1
 889 1598 l 2,0,1
829 1206 m 2,14,-1
 1014 829 l 2,15,16
 1053 752 1053 752 1053 662 c 0,17,18
 1053 574 1053 574 1014 496 c 2,19,-1
 829 123 l 2,20,21
 770 0 770 0 629 0 c 0,22,23
 562 0 562 0 508.5 35 c 128,-1,24
 455 70 455 70 428 123 c 2,25,-1
 242 496 l 2,26,27
 205 569 205 569 205 662 c 256,28,29
 205 755 205 755 242 829 c 2,30,-1
 428 1206 l 2,31,32
 491 1329 491 1329 629 1329 c 0,33,34
 769 1329 769 1329 829 1206 c 2,14,-1
573 1122 m 2,35,-1
 399 768 l 2,36,37
 375 715 375 715 375 664 c 0,38,39
 375 609 375 609 399 559 c 2,40,-1
 578 201 l 2,41,42
 592 168 592 168 629 168 c 0,43,44
 661 168 661 168 678 201 c 2,45,-1
 858 559 l 2,46,47
 883 612 883 612 883 664 c 0,48,49
 883 719 883 719 858 768 c 2,50,-1
 682 1122 l 2,51,52
 665 1161 665 1161 629 1161 c 256,53,54
 593 1161 593 1161 573 1122 c 2,35,-1
EndSplineSet
EndChar

StartChar: omacron
Encoding: 333 333 77
Width: 1237
Flags: W
LayerCount: 2
Fore
SplineSet
889 1283 m 2,0,1
 924 1283 924 1283 949.5 1258.5 c 128,-1,2
 975 1234 975 1234 975 1199 c 256,3,4
 975 1164 975 1164 949.5 1139.5 c 128,-1,5
 924 1115 924 1115 889 1115 c 2,6,-1
 369 1115 l 2,7,8
 335 1115 335 1115 310 1140 c 128,-1,9
 285 1165 285 1165 285 1199 c 0,10,11
 285 1234 285 1234 310 1258.5 c 128,-1,12
 335 1283 335 1283 369 1283 c 2,13,-1
 889 1283 l 2,0,1
1053 662 m 2,14,-1
 1053 307 l 2,15,16
 1053 194 1053 194 946.5 98 c 128,-1,17
 840 2 840 2 727 2 c 2,18,-1
 530 2 l 2,19,20
 415 2 415 2 310 99.5 c 128,-1,21
 205 197 205 197 205 307 c 2,22,-1
 205 662 l 2,23,24
 205 772 205 772 307.5 869.5 c 128,-1,25
 410 967 410 967 530 967 c 2,26,-1
 727 967 l 2,27,28
 840 969 840 969 946.5 873 c 128,-1,29
 1053 777 1053 777 1053 662 c 2,14,-1
375 655 m 2,30,-1
 375 315 l 2,31,32
 375 269 375 269 408 242 c 2,33,-1
 471 188 l 2,34,35
 492 170 492 170 530 170 c 2,36,-1
 725 170 l 2,37,38
 768 170 768 170 803 201 c 2,39,-1
 854 246 l 2,40,41
 885 270 885 270 885 313 c 2,42,-1
 885 653 l 2,43,44
 885 703 885 703 854 727 c 2,45,-1
 795 774 l 2,46,47
 765 799 765 799 725 799 c 2,48,-1
 551 799 l 2,49,50
 494 799 494 799 463 772 c 2,51,-1
 406 723 l 2,52,53
 375 697 375 697 375 655 c 2,30,-1
EndSplineSet
EndChar

StartChar: Obreve
Encoding: 334 334 78
Width: 1237
Flags: W
LayerCount: 2
Fore
SplineSet
941 1747 m 0,0,1
 976 1747 976 1747 1001.5 1725.5 c 128,-1,2
 1027 1704 1027 1704 1027 1675 c 0,3,4
 1027 1608 1027 1608 906 1522 c 128,-1,5
 785 1436 785 1436 637 1436 c 0,6,7
 490 1436 490 1436 369 1522 c 128,-1,8
 248 1608 248 1608 248 1675 c 0,9,10
 248 1704 248 1704 273.5 1725.5 c 128,-1,11
 299 1747 299 1747 334 1747 c 0,12,13
 375 1747 375 1747 400 1723 c 0,14,15
 509 1606 509 1606 637 1606 c 0,16,17
 766 1606 766 1606 875 1723 c 0,18,19
 900 1747 900 1747 941 1747 c 0,0,1
829 1206 m 2,20,-1
 1014 829 l 2,21,22
 1053 752 1053 752 1053 662 c 0,23,24
 1053 574 1053 574 1014 496 c 2,25,-1
 829 123 l 2,26,27
 770 0 770 0 629 0 c 0,28,29
 562 0 562 0 508.5 35 c 128,-1,30
 455 70 455 70 428 123 c 2,31,-1
 242 496 l 2,32,33
 205 569 205 569 205 662 c 256,34,35
 205 755 205 755 242 829 c 2,36,-1
 428 1206 l 2,37,38
 491 1329 491 1329 629 1329 c 0,39,40
 769 1329 769 1329 829 1206 c 2,20,-1
573 1122 m 2,41,-1
 399 768 l 2,42,43
 375 715 375 715 375 664 c 0,44,45
 375 609 375 609 399 559 c 2,46,-1
 578 201 l 2,47,48
 592 168 592 168 629 168 c 0,49,50
 661 168 661 168 678 201 c 2,51,-1
 858 559 l 2,52,53
 883 612 883 612 883 664 c 0,54,55
 883 719 883 719 858 768 c 2,56,-1
 682 1122 l 2,57,58
 665 1161 665 1161 629 1161 c 256,59,60
 593 1161 593 1161 573 1122 c 2,41,-1
EndSplineSet
EndChar

StartChar: obreve
Encoding: 335 335 79
Width: 1237
Flags: W
LayerCount: 2
Fore
SplineSet
941 1408 m 0,0,1
 976 1408 976 1408 1001.5 1386.5 c 128,-1,2
 1027 1365 1027 1365 1027 1336 c 0,3,4
 1027 1269 1027 1269 906 1183 c 128,-1,5
 785 1097 785 1097 637 1097 c 0,6,7
 490 1097 490 1097 369 1183 c 128,-1,8
 248 1269 248 1269 248 1336 c 0,9,10
 248 1365 248 1365 273.5 1386.5 c 128,-1,11
 299 1408 299 1408 334 1408 c 0,12,13
 375 1408 375 1408 400 1384 c 0,14,15
 509 1267 509 1267 637 1267 c 0,16,17
 766 1267 766 1267 875 1384 c 0,18,19
 900 1408 900 1408 941 1408 c 0,0,1
1053 662 m 2,20,-1
 1053 307 l 2,21,22
 1053 194 1053 194 946.5 98 c 128,-1,23
 840 2 840 2 727 2 c 2,24,-1
 530 2 l 2,25,26
 415 2 415 2 310 99.5 c 128,-1,27
 205 197 205 197 205 307 c 2,28,-1
 205 662 l 2,29,30
 205 772 205 772 307.5 869.5 c 128,-1,31
 410 967 410 967 530 967 c 2,32,-1
 727 967 l 2,33,34
 840 969 840 969 946.5 873 c 128,-1,35
 1053 777 1053 777 1053 662 c 2,20,-1
375 655 m 2,36,-1
 375 315 l 2,37,38
 375 269 375 269 408 242 c 2,39,-1
 471 188 l 2,40,41
 492 170 492 170 530 170 c 2,42,-1
 725 170 l 2,43,44
 768 170 768 170 803 201 c 2,45,-1
 854 246 l 2,46,47
 885 270 885 270 885 313 c 2,48,-1
 885 653 l 2,49,50
 885 703 885 703 854 727 c 2,51,-1
 795 774 l 2,52,53
 765 799 765 799 725 799 c 2,54,-1
 551 799 l 2,55,56
 494 799 494 799 463 772 c 2,57,-1
 406 723 l 2,58,59
 375 697 375 697 375 655 c 2,36,-1
EndSplineSet
EndChar

StartChar: Ohungarumlaut
Encoding: 336 336 80
Width: 1237
Flags: W
LayerCount: 2
Fore
SplineSet
946 1605 m 2,0,-1
 798 1457 l 2,1,2
 774 1433 774 1433 739 1433 c 256,3,4
 704 1433 704 1433 679.5 1457.5 c 128,-1,5
 655 1482 655 1482 655 1517 c 256,6,7
 655 1552 655 1552 679 1576 c 2,8,-1
 827 1724 l 2,9,10
 851 1748 851 1748 886 1748 c 256,11,12
 921 1748 921 1748 945.5 1723.5 c 128,-1,13
 970 1699 970 1699 970 1664 c 256,14,15
 970 1629 970 1629 946 1605 c 2,0,-1
606 1605 m 2,16,-1
 458 1457 l 2,17,18
 434 1433 434 1433 399 1433 c 256,19,20
 364 1433 364 1433 339.5 1457.5 c 128,-1,21
 315 1482 315 1482 315 1517 c 256,22,23
 315 1552 315 1552 339 1576 c 2,24,-1
 487 1724 l 2,25,26
 511 1748 511 1748 546 1748 c 256,27,28
 581 1748 581 1748 605.5 1723.5 c 128,-1,29
 630 1699 630 1699 630 1664 c 256,30,31
 630 1629 630 1629 606 1605 c 2,16,-1
829 1206 m 2,32,-1
 1014 829 l 2,33,34
 1053 752 1053 752 1053 662 c 0,35,36
 1053 574 1053 574 1014 496 c 2,37,-1
 829 123 l 2,38,39
 770 0 770 0 629 0 c 0,40,41
 562 0 562 0 508.5 35 c 128,-1,42
 455 70 455 70 428 123 c 2,43,-1
 242 496 l 2,44,45
 205 569 205 569 205 662 c 256,46,47
 205 755 205 755 242 829 c 2,48,-1
 428 1206 l 2,49,50
 491 1329 491 1329 629 1329 c 0,51,52
 769 1329 769 1329 829 1206 c 2,32,-1
573 1122 m 2,53,-1
 399 768 l 2,54,55
 375 715 375 715 375 664 c 0,56,57
 375 609 375 609 399 559 c 2,58,-1
 578 201 l 2,59,60
 592 168 592 168 629 168 c 0,61,62
 661 168 661 168 678 201 c 2,63,-1
 858 559 l 2,64,65
 883 612 883 612 883 664 c 0,66,67
 883 719 883 719 858 768 c 2,68,-1
 682 1122 l 2,69,70
 665 1161 665 1161 629 1161 c 256,71,72
 593 1161 593 1161 573 1122 c 2,53,-1
EndSplineSet
EndChar

StartChar: ohungarumlaut
Encoding: 337 337 81
Width: 1237
Flags: W
LayerCount: 2
Fore
SplineSet
946 1283 m 2,0,-1
 798 1135 l 2,1,2
 774 1111 774 1111 739 1111 c 256,3,4
 704 1111 704 1111 679.5 1135.5 c 128,-1,5
 655 1160 655 1160 655 1195 c 256,6,7
 655 1230 655 1230 679 1254 c 2,8,-1
 827 1402 l 2,9,10
 851 1426 851 1426 886 1426 c 256,11,12
 921 1426 921 1426 945.5 1401.5 c 128,-1,13
 970 1377 970 1377 970 1342 c 256,14,15
 970 1307 970 1307 946 1283 c 2,0,-1
606 1283 m 2,16,-1
 458 1135 l 2,17,18
 434 1111 434 1111 399 1111 c 256,19,20
 364 1111 364 1111 339.5 1135.5 c 128,-1,21
 315 1160 315 1160 315 1195 c 256,22,23
 315 1230 315 1230 339 1254 c 2,24,-1
 487 1402 l 2,25,26
 511 1426 511 1426 546 1426 c 256,27,28
 581 1426 581 1426 605.5 1401.5 c 128,-1,29
 630 1377 630 1377 630 1342 c 256,30,31
 630 1307 630 1307 606 1283 c 2,16,-1
1053 662 m 2,32,-1
 1053 307 l 2,33,34
 1053 194 1053 194 946.5 98 c 128,-1,35
 840 2 840 2 727 2 c 2,36,-1
 530 2 l 2,37,38
 415 2 415 2 310 99.5 c 128,-1,39
 205 197 205 197 205 307 c 2,40,-1
 205 662 l 2,41,42
 205 772 205 772 307.5 869.5 c 128,-1,43
 410 967 410 967 530 967 c 2,44,-1
 727 967 l 2,45,46
 840 969 840 969 946.5 873 c 128,-1,47
 1053 777 1053 777 1053 662 c 2,32,-1
375 655 m 2,48,-1
 375 315 l 2,49,50
 375 269 375 269 408 242 c 2,51,-1
 471 188 l 2,52,53
 492 170 492 170 530 170 c 2,54,-1
 725 170 l 2,55,56
 768 170 768 170 803 201 c 2,57,-1
 854 246 l 2,58,59
 885 270 885 270 885 313 c 2,60,-1
 885 653 l 2,61,62
 885 703 885 703 854 727 c 2,63,-1
 795 774 l 2,64,65
 765 799 765 799 725 799 c 2,66,-1
 551 799 l 2,67,68
 494 799 494 799 463 772 c 2,69,-1
 406 723 l 2,70,71
 375 697 375 697 375 655 c 2,48,-1
EndSplineSet
EndChar

StartChar: Racute
Encoding: 340 340 82
Width: 1237
Flags: W
LayerCount: 2
Fore
SplineSet
209 84 m 2,0,-1
 209 1329 l 1,1,-1
 803 1329 l 2,2,3
 906 1329 906 1329 980.5 1254 c 128,-1,4
 1055 1179 1055 1179 1055 1075 c 2,5,-1
 1055 979 l 2,6,7
 1055 874 1055 874 981 799.5 c 128,-1,8
 907 725 907 725 803 725 c 2,9,-1
 696 725 l 1,10,-1
 1040 135 l 2,11,12
 1056 109 1056 109 1056 83 c 0,13,14
 1056 49 1056 49 1030 24.5 c 128,-1,15
 1004 0 1004 0 971 0 c 0,16,17
 921 0 921 0 895 45 c 2,18,-1
 500 725 l 1,19,-1
 379 725 l 1,20,-1
 379 84 l 2,21,22
 379 49 379 49 353.5 24.5 c 128,-1,23
 328 0 328 0 293 0 c 256,24,25
 258 0 258 0 233.5 24.5 c 128,-1,26
 209 49 209 49 209 84 c 2,0,-1
377 893 m 1,27,-1
 803 893 l 2,28,29
 838 893 838 893 862.5 917.5 c 128,-1,30
 887 942 887 942 887 977 c 2,31,-1
 887 1075 l 2,32,33
 887 1110 887 1110 862.5 1134.5 c 128,-1,34
 838 1159 838 1159 803 1159 c 2,35,-1
 377 1159 l 1,36,-1
 377 893 l 1,27,-1
735 1685 m 2,37,38
 753 1693 753 1693 772 1693 c 0,39,40
 808 1693 808 1693 831 1666.5 c 128,-1,41
 854 1640 854 1640 854 1607 c 0,42,43
 854 1553 854 1553 807 1531 c 2,44,-1
 502 1390 l 2,45,46
 484 1382 484 1382 465 1382 c 0,47,48
 429 1382 429 1382 406 1408.5 c 128,-1,49
 383 1435 383 1435 383 1468 c 0,50,51
 383 1522 383 1522 430 1544 c 2,52,-1
 735 1685 l 2,37,38
EndSplineSet
EndChar

StartChar: racute
Encoding: 341 341 83
Width: 1237
Flags: W
LayerCount: 2
Fore
SplineSet
207 84 m 2,0,-1
 207 881 l 2,1,2
 207 916 207 916 231.5 941.5 c 128,-1,3
 256 967 256 967 291 967 c 256,4,5
 326 967 326 967 350.5 942 c 128,-1,6
 375 917 375 917 375 881 c 2,7,-1
 375 776 l 1,8,-1
 512 893 l 2,9,10
 597 965 597 965 678 965 c 2,11,-1
 801 965 l 2,12,13
 905 965 905 965 979 891 c 128,-1,14
 1053 817 1053 817 1053 713 c 2,15,-1
 1053 668 l 2,16,17
 1053 632 1053 632 1028.5 607 c 128,-1,18
 1004 582 1004 582 969 582 c 256,19,20
 934 582 934 582 909.5 606.5 c 128,-1,21
 885 631 885 631 885 666 c 2,22,-1
 885 713 l 2,23,24
 885 748 885 748 860.5 772.5 c 128,-1,25
 836 797 836 797 801 797 c 2,26,-1
 692 797 l 2,27,28
 657 797 657 797 614 760 c 2,29,-1
 375 553 l 1,30,-1
 375 84 l 2,31,32
 375 49 375 49 350 24.5 c 128,-1,33
 325 0 325 0 291 0 c 0,34,35
 256 0 256 0 231.5 24.5 c 128,-1,36
 207 49 207 49 207 84 c 2,0,-1
770 1321 m 2,37,38
 788 1329 788 1329 807 1329 c 0,39,40
 843 1329 843 1329 866 1302.5 c 128,-1,41
 889 1276 889 1276 889 1243 c 0,42,43
 889 1189 889 1189 842 1167 c 2,44,-1
 537 1026 l 2,45,46
 519 1018 519 1018 500 1018 c 0,47,48
 464 1018 464 1018 441 1044.5 c 128,-1,49
 418 1071 418 1071 418 1104 c 0,50,51
 418 1158 418 1158 465 1180 c 2,52,-1
 770 1321 l 2,37,38
EndSplineSet
EndChar

StartChar: uni0156
Encoding: 342 342 84
Width: 1237
Flags: W
LayerCount: 2
Fore
SplineSet
684 -282 m 2,0,1
 684 -316 684 -316 660 -342 c 0,2,3
 636 -366 636 -366 600 -366 c 0,4,5
 565 -366 565 -366 541 -342 c 0,6,7
 517 -316 517 -316 517 -282 c 2,8,-1
 517 -139 l 2,9,10
 517 -104 517 -104 541 -80 c 0,11,12
 564 -56 564 -56 600 -55 c 0,13,14
 632 -54 632 -54 656 -80 c 0,15,16
 684 -108 684 -108 684 -139 c 2,17,-1
 684 -282 l 2,0,1
209 84 m 2,18,-1
 209 1329 l 1,19,-1
 803 1329 l 2,20,21
 906 1329 906 1329 980.5 1254 c 128,-1,22
 1055 1179 1055 1179 1055 1075 c 2,23,-1
 1055 979 l 2,24,25
 1055 874 1055 874 981 799.5 c 128,-1,26
 907 725 907 725 803 725 c 2,27,-1
 696 725 l 1,28,-1
 1040 135 l 2,29,30
 1056 109 1056 109 1056 83 c 0,31,32
 1056 49 1056 49 1030 24.5 c 128,-1,33
 1004 0 1004 0 971 0 c 0,34,35
 921 0 921 0 895 45 c 2,36,-1
 500 725 l 1,37,-1
 379 725 l 1,38,-1
 379 84 l 2,39,40
 379 49 379 49 353.5 24.5 c 128,-1,41
 328 0 328 0 293 0 c 256,42,43
 258 0 258 0 233.5 24.5 c 128,-1,44
 209 49 209 49 209 84 c 2,18,-1
377 893 m 1,45,-1
 803 893 l 2,46,47
 838 893 838 893 862.5 917.5 c 128,-1,48
 887 942 887 942 887 977 c 2,49,-1
 887 1075 l 2,50,51
 887 1110 887 1110 862.5 1134.5 c 128,-1,52
 838 1159 838 1159 803 1159 c 2,53,-1
 377 1159 l 1,54,-1
 377 893 l 1,45,-1
EndSplineSet
EndChar

StartChar: uni0157
Encoding: 343 343 85
Width: 1237
Flags: W
LayerCount: 2
Fore
SplineSet
684 -282 m 2,0,1
 684 -316 684 -316 660 -342 c 0,2,3
 636 -366 636 -366 600 -366 c 0,4,5
 565 -366 565 -366 541 -342 c 0,6,7
 517 -316 517 -316 517 -282 c 2,8,-1
 517 -139 l 2,9,10
 517 -104 517 -104 541 -80 c 0,11,12
 564 -56 564 -56 600 -55 c 0,13,14
 632 -54 632 -54 656 -80 c 0,15,16
 684 -108 684 -108 684 -139 c 2,17,-1
 684 -282 l 2,0,1
207 84 m 2,18,-1
 207 881 l 2,19,20
 207 916 207 916 231.5 941.5 c 128,-1,21
 256 967 256 967 291 967 c 256,22,23
 326 967 326 967 350.5 942 c 128,-1,24
 375 917 375 917 375 881 c 2,25,-1
 375 776 l 1,26,-1
 512 893 l 2,27,28
 597 965 597 965 678 965 c 2,29,-1
 801 965 l 2,30,31
 905 965 905 965 979 891 c 128,-1,32
 1053 817 1053 817 1053 713 c 2,33,-1
 1053 668 l 2,34,35
 1053 632 1053 632 1028.5 607 c 128,-1,36
 1004 582 1004 582 969 582 c 256,37,38
 934 582 934 582 909.5 606.5 c 128,-1,39
 885 631 885 631 885 666 c 2,40,-1
 885 713 l 2,41,42
 885 748 885 748 860.5 772.5 c 128,-1,43
 836 797 836 797 801 797 c 2,44,-1
 692 797 l 2,45,46
 657 797 657 797 614 760 c 2,47,-1
 375 553 l 1,48,-1
 375 84 l 2,49,50
 375 49 375 49 350 24.5 c 128,-1,51
 325 0 325 0 291 0 c 0,52,53
 256 0 256 0 231.5 24.5 c 128,-1,54
 207 49 207 49 207 84 c 2,18,-1
EndSplineSet
EndChar

StartChar: Rcaron
Encoding: 344 344 86
Width: 1237
Flags: W
LayerCount: 2
Fore
SplineSet
627 1556 m 1,0,-1
 898 1681 l 2,1,2
 915 1689 915 1689 934 1689 c 0,3,4
 970 1689 970 1689 993.5 1662.5 c 128,-1,5
 1017 1636 1017 1636 1017 1622 c 0,6,7
 1017 1549 1017 1549 970 1527 c 2,8,-1
 664 1386 l 2,9,10
 647 1378 647 1378 627 1378 c 0,11,12
 608 1378 608 1378 591 1386 c 2,13,-1
 285 1527 l 2,14,15
 238 1549 238 1549 238 1603 c 0,16,17
 238 1636 238 1636 261.5 1662.5 c 128,-1,18
 285 1689 285 1689 321 1689 c 0,19,20
 340 1689 340 1689 357 1681 c 2,21,-1
 627 1556 l 1,0,-1
209 84 m 2,22,-1
 209 1329 l 1,23,-1
 803 1329 l 2,24,25
 906 1329 906 1329 980.5 1254 c 128,-1,26
 1055 1179 1055 1179 1055 1075 c 2,27,-1
 1055 979 l 2,28,29
 1055 874 1055 874 981 799.5 c 128,-1,30
 907 725 907 725 803 725 c 2,31,-1
 696 725 l 1,32,-1
 1040 135 l 2,33,34
 1056 109 1056 109 1056 83 c 0,35,36
 1056 49 1056 49 1030 24.5 c 128,-1,37
 1004 0 1004 0 971 0 c 0,38,39
 921 0 921 0 895 45 c 2,40,-1
 500 725 l 1,41,-1
 379 725 l 1,42,-1
 379 84 l 2,43,44
 379 49 379 49 353.5 24.5 c 128,-1,45
 328 0 328 0 293 0 c 256,46,47
 258 0 258 0 233.5 24.5 c 128,-1,48
 209 49 209 49 209 84 c 2,22,-1
377 893 m 1,49,-1
 803 893 l 2,50,51
 838 893 838 893 862.5 917.5 c 128,-1,52
 887 942 887 942 887 977 c 2,53,-1
 887 1075 l 2,54,55
 887 1110 887 1110 862.5 1134.5 c 128,-1,56
 838 1159 838 1159 803 1159 c 2,57,-1
 377 1159 l 1,58,-1
 377 893 l 1,49,-1
EndSplineSet
EndChar

StartChar: rcaron
Encoding: 345 345 87
Width: 1237
Flags: W
LayerCount: 2
Fore
SplineSet
207 84 m 2,0,-1
 207 881 l 2,1,2
 207 916 207 916 231.5 941.5 c 128,-1,3
 256 967 256 967 291 967 c 256,4,5
 326 967 326 967 350.5 942 c 128,-1,6
 375 917 375 917 375 881 c 2,7,-1
 375 776 l 1,8,-1
 512 893 l 2,9,10
 597 965 597 965 678 965 c 2,11,-1
 801 965 l 2,12,13
 905 965 905 965 979 891 c 128,-1,14
 1053 817 1053 817 1053 713 c 2,15,-1
 1053 668 l 2,16,17
 1053 632 1053 632 1028.5 607 c 128,-1,18
 1004 582 1004 582 969 582 c 256,19,20
 934 582 934 582 909.5 606.5 c 128,-1,21
 885 631 885 631 885 666 c 2,22,-1
 885 713 l 2,23,24
 885 748 885 748 860.5 772.5 c 128,-1,25
 836 797 836 797 801 797 c 2,26,-1
 692 797 l 2,27,28
 657 797 657 797 614 760 c 2,29,-1
 375 553 l 1,30,-1
 375 84 l 2,31,32
 375 49 375 49 350 24.5 c 128,-1,33
 325 0 325 0 291 0 c 0,34,35
 256 0 256 0 231.5 24.5 c 128,-1,36
 207 49 207 49 207 84 c 2,0,-1
617 1202 m 1,37,-1
 888 1327 l 2,38,39
 905 1335 905 1335 924 1335 c 0,40,41
 960 1335 960 1335 983.5 1308.5 c 128,-1,42
 1007 1282 1007 1282 1007 1249 c 0,43,44
 1007 1195 1007 1195 960 1173 c 2,45,-1
 654 1032 l 2,46,47
 634 1024 634 1024 617 1024 c 0,48,49
 598 1024 598 1024 581 1032 c 2,50,-1
 275 1173 l 2,51,52
 228 1197 228 1197 228 1249 c 0,53,54
 228 1282 228 1282 251.5 1308.5 c 128,-1,55
 275 1335 275 1335 311 1335 c 0,56,57
 329 1335 329 1335 347 1327 c 2,58,-1
 617 1202 l 1,37,-1
EndSplineSet
EndChar

StartChar: Sacute
Encoding: 346 346 88
Width: 1237
Flags: W
LayerCount: 2
Fore
SplineSet
397 1329 m 2,0,-1
 834 1329 l 2,1,2
 914 1329 914 1329 985.5 1261.5 c 128,-1,3
 1057 1194 1057 1194 1057 1098 c 0,4,5
 1057 1062 1057 1062 1031.5 1037 c 128,-1,6
 1006 1012 1006 1012 975 1012 c 0,7,8
 932 1012 932 1012 916 1031.5 c 128,-1,9
 900 1051 900 1051 885.5 1104 c 128,-1,10
 871 1157 871 1157 821 1157 c 2,11,-1
 406 1157 l 2,12,13
 376 1157 376 1157 376 1138 c 0,14,15
 376 1126 376 1126 389 1110 c 2,16,-1
 1012 313 l 2,17,18
 1057 255 1057 255 1057 189 c 0,19,20
 1057 114 1057 114 1002.5 57 c 128,-1,21
 948 0 948 0 881 0 c 2,22,-1
 428 0 l 2,23,24
 338 0 338 0 271.5 68.5 c 128,-1,25
 205 137 205 137 205 219 c 0,26,27
 205 313 205 313 293 313 c 0,28,29
 327 313 327 313 351 288.5 c 128,-1,30
 375 264 375 264 375 231 c 0,31,32
 375 204 375 204 393.5 186 c 128,-1,33
 412 168 412 168 440 168 c 2,34,-1
 858 168 l 2,35,36
 885 168 885 168 885 189 c 0,37,38
 885 199 885 199 872 215 c 2,39,-1
 250 1012 l 2,40,41
 206 1069 206 1069 206 1136 c 0,42,43
 206 1214 206 1214 262 1271.5 c 128,-1,44
 318 1329 318 1329 397 1329 c 2,0,-1
735 1685 m 2,45,46
 753 1693 753 1693 772 1693 c 0,47,48
 808 1693 808 1693 831 1666.5 c 128,-1,49
 854 1640 854 1640 854 1607 c 0,50,51
 854 1553 854 1553 807 1531 c 2,52,-1
 502 1390 l 2,53,54
 484 1382 484 1382 465 1382 c 0,55,56
 429 1382 429 1382 406 1408.5 c 128,-1,57
 383 1435 383 1435 383 1468 c 0,58,59
 383 1522 383 1522 430 1544 c 2,60,-1
 735 1685 l 2,45,46
EndSplineSet
EndChar

StartChar: sacute
Encoding: 347 347 89
Width: 1237
Flags: W
LayerCount: 2
Fore
SplineSet
442 965 m 2,0,-1
 827 965 l 2,1,2
 917 965 917 965 986 911.5 c 128,-1,3
 1055 858 1055 858 1055 807 c 0,4,5
 1055 771 1055 771 1029.5 748 c 128,-1,6
 1004 725 1004 725 973 725 c 0,7,8
 933 725 933 725 900 761 c 128,-1,9
 867 797 867 797 831 797 c 2,10,-1
 451 797 l 2,11,12
 395 797 395 797 395 750 c 0,13,14
 395 717 395 717 432 700 c 2,15,-1
 879 502 l 2,16,17
 947 472 947 472 990.5 405.5 c 128,-1,18
 1034 339 1034 339 1034 258 c 0,19,20
 1034 150 1034 150 957.5 75 c 128,-1,21
 881 0 881 0 784 0 c 2,22,-1
 444 0 l 2,23,24
 356 0 356 0 280.5 53 c 128,-1,25
 205 106 205 106 205 156 c 0,26,27
 205 189 205 189 229.5 214.5 c 128,-1,28
 254 240 254 240 293 240 c 0,29,30
 325 240 325 240 361.5 204 c 128,-1,31
 398 168 398 168 467 168 c 2,32,-1
 780 168 l 2,33,34
 817 168 817 168 842 196.5 c 128,-1,35
 867 225 867 225 867 262 c 0,36,37
 867 319 867 319 811 344 c 2,38,-1
 360 547 l 2,39,40
 295 576 295 576 260 631 c 128,-1,41
 225 686 225 686 225 743 c 0,42,43
 225 833 225 833 287.5 899 c 128,-1,44
 350 965 350 965 442 965 c 2,0,-1
858 1321 m 2,45,46
 876 1329 876 1329 895 1329 c 0,47,48
 931 1329 931 1329 954 1302.5 c 128,-1,49
 977 1276 977 1276 977 1243 c 0,50,51
 977 1189 977 1189 930 1167 c 2,52,-1
 625 1026 l 2,53,54
 607 1018 607 1018 588 1018 c 0,55,56
 552 1018 552 1018 529 1044.5 c 128,-1,57
 506 1071 506 1071 506 1104 c 0,58,59
 506 1158 506 1158 553 1180 c 2,60,-1
 858 1321 l 2,45,46
EndSplineSet
EndChar

StartChar: Scircumflex
Encoding: 348 348 90
Width: 1237
Flags: W
LayerCount: 2
Fore
SplineSet
397 1329 m 2,0,-1
 834 1329 l 2,1,2
 914 1329 914 1329 985.5 1261.5 c 128,-1,3
 1057 1194 1057 1194 1057 1098 c 0,4,5
 1057 1062 1057 1062 1031.5 1037 c 128,-1,6
 1006 1012 1006 1012 975 1012 c 0,7,8
 932 1012 932 1012 916 1031.5 c 128,-1,9
 900 1051 900 1051 885.5 1104 c 128,-1,10
 871 1157 871 1157 821 1157 c 2,11,-1
 406 1157 l 2,12,13
 376 1157 376 1157 376 1138 c 0,14,15
 376 1126 376 1126 389 1110 c 2,16,-1
 1012 313 l 2,17,18
 1057 255 1057 255 1057 189 c 0,19,20
 1057 114 1057 114 1002.5 57 c 128,-1,21
 948 0 948 0 881 0 c 2,22,-1
 428 0 l 2,23,24
 338 0 338 0 271.5 68.5 c 128,-1,25
 205 137 205 137 205 219 c 0,26,27
 205 313 205 313 293 313 c 0,28,29
 327 313 327 313 351 288.5 c 128,-1,30
 375 264 375 264 375 231 c 0,31,32
 375 204 375 204 393.5 186 c 128,-1,33
 412 168 412 168 440 168 c 2,34,-1
 858 168 l 2,35,36
 885 168 885 168 885 189 c 0,37,38
 885 199 885 199 872 215 c 2,39,-1
 250 1012 l 2,40,41
 206 1069 206 1069 206 1136 c 0,42,43
 206 1214 206 1214 262 1271.5 c 128,-1,44
 318 1329 318 1329 397 1329 c 2,0,-1
618 1515 m 1,45,-1
 348 1390 l 2,46,47
 331 1382 331 1382 312 1382 c 0,48,49
 276 1382 276 1382 252.5 1408.5 c 128,-1,50
 229 1435 229 1435 229 1468 c 0,51,52
 229 1522 229 1522 276 1544 c 2,53,-1
 582 1685 l 2,54,55
 602 1693 602 1693 618 1693 c 0,56,57
 638 1693 638 1693 655 1685 c 2,58,-1
 961 1544 l 2,59,60
 1008 1520 1008 1520 1008 1468 c 0,61,62
 1008 1435 1008 1435 984.5 1408.5 c 128,-1,63
 961 1382 961 1382 925 1382 c 0,64,65
 907 1382 907 1382 889 1390 c 2,66,-1
 618 1515 l 1,45,-1
EndSplineSet
EndChar

StartChar: scircumflex
Encoding: 349 349 91
Width: 1237
Flags: W
LayerCount: 2
Fore
SplineSet
442 965 m 2,0,-1
 827 965 l 2,1,2
 917 965 917 965 986 911.5 c 128,-1,3
 1055 858 1055 858 1055 807 c 0,4,5
 1055 771 1055 771 1029.5 748 c 128,-1,6
 1004 725 1004 725 973 725 c 0,7,8
 933 725 933 725 900 761 c 128,-1,9
 867 797 867 797 831 797 c 2,10,-1
 451 797 l 2,11,12
 395 797 395 797 395 750 c 0,13,14
 395 717 395 717 432 700 c 2,15,-1
 879 502 l 2,16,17
 947 472 947 472 990.5 405.5 c 128,-1,18
 1034 339 1034 339 1034 258 c 0,19,20
 1034 150 1034 150 957.5 75 c 128,-1,21
 881 0 881 0 784 0 c 2,22,-1
 444 0 l 2,23,24
 356 0 356 0 280.5 53 c 128,-1,25
 205 106 205 106 205 156 c 0,26,27
 205 189 205 189 229.5 214.5 c 128,-1,28
 254 240 254 240 293 240 c 0,29,30
 325 240 325 240 361.5 204 c 128,-1,31
 398 168 398 168 467 168 c 2,32,-1
 780 168 l 2,33,34
 817 168 817 168 842 196.5 c 128,-1,35
 867 225 867 225 867 262 c 0,36,37
 867 319 867 319 811 344 c 2,38,-1
 360 547 l 2,39,40
 295 576 295 576 260 631 c 128,-1,41
 225 686 225 686 225 743 c 0,42,43
 225 833 225 833 287.5 899 c 128,-1,44
 350 965 350 965 442 965 c 2,0,-1
618 1151 m 1,45,-1
 348 1026 l 2,46,47
 331 1018 331 1018 312 1018 c 0,48,49
 276 1018 276 1018 252.5 1044.5 c 128,-1,50
 229 1071 229 1071 229 1104 c 0,51,52
 229 1158 229 1158 276 1180 c 2,53,-1
 582 1321 l 2,54,55
 602 1329 602 1329 618 1329 c 0,56,57
 638 1329 638 1329 655 1321 c 2,58,-1
 961 1180 l 2,59,60
 1008 1156 1008 1156 1008 1104 c 0,61,62
 1008 1071 1008 1071 984.5 1044.5 c 128,-1,63
 961 1018 961 1018 925 1018 c 0,64,65
 907 1018 907 1018 889 1026 c 2,66,-1
 618 1151 l 1,45,-1
EndSplineSet
EndChar

StartChar: Scedilla
Encoding: 350 350 92
Width: 1237
Flags: W
LayerCount: 2
Fore
SplineSet
569 0 m 1,0,-1
 569 -190 l 1,1,-1
 313 -190 l 2,2,3
 278 -190 278 -190 253.5 -215.5 c 128,-1,4
 229 -241 229 -241 229 -276 c 0,5,6
 229 -310 229 -310 254 -335 c 128,-1,7
 279 -360 279 -360 313 -360 c 2,8,-1
 653 -360 l 2,9,10
 688 -360 688 -360 712.5 -335 c 128,-1,11
 737 -310 737 -310 737 -274 c 2,12,-1
 737 0 l 1,13,-1
 569 0 l 1,0,-1
397 1329 m 2,14,-1
 834 1329 l 2,15,16
 914 1329 914 1329 985.5 1261.5 c 128,-1,17
 1057 1194 1057 1194 1057 1098 c 0,18,19
 1057 1062 1057 1062 1031.5 1037 c 128,-1,20
 1006 1012 1006 1012 975 1012 c 0,21,22
 932 1012 932 1012 916 1031.5 c 128,-1,23
 900 1051 900 1051 885.5 1104 c 128,-1,24
 871 1157 871 1157 821 1157 c 2,25,-1
 406 1157 l 2,26,27
 376 1157 376 1157 376 1138 c 0,28,29
 376 1126 376 1126 389 1110 c 2,30,-1
 1012 313 l 2,31,32
 1057 255 1057 255 1057 189 c 0,33,34
 1057 114 1057 114 1002.5 57 c 128,-1,35
 948 0 948 0 881 0 c 2,36,-1
 428 0 l 2,37,38
 338 0 338 0 271.5 68.5 c 128,-1,39
 205 137 205 137 205 219 c 0,40,41
 205 313 205 313 293 313 c 0,42,43
 327 313 327 313 351 288.5 c 128,-1,44
 375 264 375 264 375 231 c 0,45,46
 375 204 375 204 393.5 186 c 128,-1,47
 412 168 412 168 440 168 c 2,48,-1
 858 168 l 2,49,50
 885 168 885 168 885 189 c 0,51,52
 885 199 885 199 872 215 c 2,53,-1
 250 1012 l 2,54,55
 206 1069 206 1069 206 1136 c 0,56,57
 206 1214 206 1214 262 1271.5 c 128,-1,58
 318 1329 318 1329 397 1329 c 2,14,-1
EndSplineSet
EndChar

StartChar: scedilla
Encoding: 351 351 93
Width: 1237
Flags: W
LayerCount: 2
Fore
SplineSet
569 0 m 1,0,-1
 569 -190 l 1,1,-1
 313 -190 l 2,2,3
 278 -190 278 -190 253.5 -215.5 c 128,-1,4
 229 -241 229 -241 229 -276 c 0,5,6
 229 -310 229 -310 254 -335 c 128,-1,7
 279 -360 279 -360 313 -360 c 2,8,-1
 653 -360 l 2,9,10
 688 -360 688 -360 712.5 -335 c 128,-1,11
 737 -310 737 -310 737 -274 c 2,12,-1
 737 0 l 1,13,-1
 569 0 l 1,0,-1
442 965 m 2,14,-1
 827 965 l 2,15,16
 917 965 917 965 986 911.5 c 128,-1,17
 1055 858 1055 858 1055 807 c 0,18,19
 1055 771 1055 771 1029.5 748 c 128,-1,20
 1004 725 1004 725 973 725 c 0,21,22
 933 725 933 725 900 761 c 128,-1,23
 867 797 867 797 831 797 c 2,24,-1
 451 797 l 2,25,26
 395 797 395 797 395 750 c 0,27,28
 395 717 395 717 432 700 c 2,29,-1
 879 502 l 2,30,31
 947 472 947 472 990.5 405.5 c 128,-1,32
 1034 339 1034 339 1034 258 c 0,33,34
 1034 150 1034 150 957.5 75 c 128,-1,35
 881 0 881 0 784 0 c 2,36,-1
 444 0 l 2,37,38
 356 0 356 0 280.5 53 c 128,-1,39
 205 106 205 106 205 156 c 0,40,41
 205 189 205 189 229.5 214.5 c 128,-1,42
 254 240 254 240 293 240 c 0,43,44
 325 240 325 240 361.5 204 c 128,-1,45
 398 168 398 168 467 168 c 2,46,-1
 780 168 l 2,47,48
 817 168 817 168 842 196.5 c 128,-1,49
 867 225 867 225 867 262 c 0,50,51
 867 319 867 319 811 344 c 2,52,-1
 360 547 l 2,53,54
 295 576 295 576 260 631 c 128,-1,55
 225 686 225 686 225 743 c 0,56,57
 225 833 225 833 287.5 899 c 128,-1,58
 350 965 350 965 442 965 c 2,14,-1
EndSplineSet
EndChar

StartChar: uni0162
Encoding: 354 354 94
Width: 1237
Flags: W
LayerCount: 2
Fore
SplineSet
712 116 m 1,0,-1
 712 -274 l 2,1,2
 712 -310 712 -310 688 -335 c 0,3,4
 663 -360 663 -360 628 -360 c 2,5,-1
 288 -360 l 2,6,7
 254 -360 254 -360 229 -335 c 128,-1,8
 204 -310 204 -310 204 -276 c 0,9,10
 204 -241 204 -241 228.5 -215.5 c 128,-1,11
 253 -190 253 -190 288 -190 c 2,12,-1
 544 -190 l 1,13,-1
 544 116 l 1,14,-1
 712 116 l 1,0,-1
205 1100 m 2,15,-1
 205 1327 l 1,16,-1
 1053 1327 l 1,17,-1
 1053 1098 l 2,18,19
 1053 1063 1053 1063 1028 1038.5 c 128,-1,20
 1003 1014 1003 1014 969 1014 c 0,21,22
 934 1014 934 1014 908.5 1039 c 128,-1,23
 883 1064 883 1064 883 1098 c 2,24,-1
 883 1159 l 1,25,-1
 713 1159 l 1,26,-1
 713 84 l 2,27,28
 713 49 713 49 688 24.5 c 128,-1,29
 663 0 663 0 629 0 c 0,30,31
 593 0 593 0 568 24.5 c 128,-1,32
 543 49 543 49 543 84 c 2,33,-1
 543 1159 l 1,34,-1
 373 1159 l 1,35,-1
 373 1100 l 2,36,37
 373 1065 373 1065 348.5 1040.5 c 128,-1,38
 324 1016 324 1016 289 1016 c 256,39,40
 254 1016 254 1016 229.5 1040.5 c 128,-1,41
 205 1065 205 1065 205 1100 c 2,15,-1
EndSplineSet
EndChar

StartChar: uni0163
Encoding: 355 355 95
Width: 1237
Flags: W
LayerCount: 2
Fore
SplineSet
712 116 m 1,0,-1
 712 -274 l 2,1,2
 712 -310 712 -310 688 -335 c 0,3,4
 663 -360 663 -360 628 -360 c 2,5,-1
 288 -360 l 2,6,7
 254 -360 254 -360 229 -335 c 128,-1,8
 204 -310 204 -310 204 -276 c 0,9,10
 204 -241 204 -241 228.5 -215.5 c 128,-1,11
 253 -190 253 -190 288 -190 c 2,12,-1
 544 -190 l 1,13,-1
 544 116 l 1,14,-1
 712 116 l 1,0,-1
797 0 m 2,15,-1
 629 0 l 2,16,17
 525 0 525 0 450 74 c 128,-1,18
 375 148 375 148 375 252 c 2,19,-1
 375 797 l 1,20,-1
 289 797 l 2,21,22
 254 797 254 797 229.5 821 c 128,-1,23
 205 845 205 845 205 881 c 0,24,25
 205 916 205 916 229.5 940.5 c 128,-1,26
 254 965 254 965 289 965 c 2,27,-1
 377 965 l 1,28,-1
 377 1171 l 2,29,30
 377 1206 377 1206 401.5 1230.5 c 128,-1,31
 426 1255 426 1255 461 1255 c 0,32,33
 494 1255 494 1255 519.5 1230 c 128,-1,34
 545 1205 545 1205 545 1171 c 2,35,-1
 545 965 l 1,36,-1
 883 965 l 2,37,38
 917 965 917 965 942 940 c 128,-1,39
 967 915 967 915 967 881 c 0,40,41
 967 846 967 846 942 821.5 c 128,-1,42
 917 797 917 797 883 797 c 2,43,-1
 543 797 l 1,44,-1
 543 252 l 2,45,46
 543 218 543 218 568.5 193 c 128,-1,47
 594 168 594 168 629 168 c 2,48,-1
 793 168 l 2,49,50
 860 168 860 168 882 240.5 c 128,-1,51
 904 313 904 313 967 313 c 0,52,53
 1004 313 1004 313 1027.5 288.5 c 128,-1,54
 1051 264 1051 264 1051 227 c 0,55,56
 1051 151 1051 151 979.5 75.5 c 128,-1,57
 908 0 908 0 797 0 c 2,15,-1
EndSplineSet
EndChar

StartChar: Tcaron
Encoding: 356 356 96
Width: 1237
Flags: W
LayerCount: 2
Fore
SplineSet
205 1100 m 2,0,-1
 205 1327 l 1,1,-1
 1053 1327 l 1,2,-1
 1053 1098 l 2,3,4
 1053 1063 1053 1063 1028 1038.5 c 128,-1,5
 1003 1014 1003 1014 969 1014 c 0,6,7
 934 1014 934 1014 908.5 1039 c 128,-1,8
 883 1064 883 1064 883 1098 c 2,9,-1
 883 1159 l 1,10,-1
 713 1159 l 1,11,-1
 713 84 l 2,12,13
 713 49 713 49 688 24.5 c 128,-1,14
 663 0 663 0 629 0 c 0,15,16
 593 0 593 0 568 24.5 c 128,-1,17
 543 49 543 49 543 84 c 2,18,-1
 543 1159 l 1,19,-1
 373 1159 l 1,20,-1
 373 1100 l 2,21,22
 373 1065 373 1065 348.5 1040.5 c 128,-1,23
 324 1016 324 1016 289 1016 c 256,24,25
 254 1016 254 1016 229.5 1040.5 c 128,-1,26
 205 1065 205 1065 205 1100 c 2,0,-1
618 1560 m 1,27,-1
 889 1685 l 2,28,29
 906 1693 906 1693 925 1693 c 0,30,31
 961 1693 961 1693 984.5 1666.5 c 128,-1,32
 1008 1640 1008 1640 1008 1607 c 0,33,34
 1008 1553 1008 1553 961 1531 c 2,35,-1
 655 1390 l 2,36,37
 635 1382 635 1382 618 1382 c 0,38,39
 599 1382 599 1382 582 1390 c 2,40,-1
 276 1531 l 2,41,42
 229 1555 229 1555 229 1607 c 0,43,44
 229 1640 229 1640 252.5 1666.5 c 128,-1,45
 276 1693 276 1693 312 1693 c 0,46,47
 330 1693 330 1693 348 1685 c 2,48,-1
 618 1560 l 1,27,-1
EndSplineSet
EndChar

StartChar: tcaron
Encoding: 357 357 97
Width: 1237
Flags: W
LayerCount: 2
Fore
SplineSet
1002 1318 m 2,0,-1
 1102 1318 l 2,1,2
 1123 1318 1123 1318 1138 1303 c 128,-1,3
 1153 1288 1153 1288 1153 1267 c 0,4,5
 1153 1261 1153 1261 1151 1255 c 2,6,-1
 1050 908 l 2,7,8
 1038 870 1038 870 1001 870 c 0,9,10
 979 870 979 870 964 885.5 c 128,-1,11
 949 901 949 901 949 924 c 2,12,-1
 949 1262 l 2,13,14
 949 1286 949 1286 963.5 1302 c 128,-1,15
 978 1318 978 1318 1002 1318 c 2,0,-1
676 0 m 2,16,-1
 508 0 l 2,17,18
 404 0 404 0 329 74 c 128,-1,19
 254 148 254 148 254 252 c 2,20,-1
 254 797 l 1,21,-1
 168 797 l 2,22,23
 133 797 133 797 108.5 821 c 128,-1,24
 84 845 84 845 84 881 c 0,25,26
 84 916 84 916 108.5 940.5 c 128,-1,27
 133 965 133 965 168 965 c 2,28,-1
 256 965 l 1,29,-1
 256 1171 l 2,30,31
 256 1206 256 1206 280.5 1230.5 c 128,-1,32
 305 1255 305 1255 340 1255 c 0,33,34
 373 1255 373 1255 398.5 1230 c 128,-1,35
 424 1205 424 1205 424 1171 c 2,36,-1
 424 965 l 1,37,-1
 762 965 l 2,38,39
 796 965 796 965 821 940 c 128,-1,40
 846 915 846 915 846 881 c 0,41,42
 846 846 846 846 821 821.5 c 128,-1,43
 796 797 796 797 762 797 c 2,44,-1
 422 797 l 1,45,-1
 422 252 l 2,46,47
 422 218 422 218 447.5 193 c 128,-1,48
 473 168 473 168 508 168 c 2,49,-1
 672 168 l 2,50,51
 739 168 739 168 761 240.5 c 128,-1,52
 783 313 783 313 846 313 c 0,53,54
 883 313 883 313 906.5 288.5 c 128,-1,55
 930 264 930 264 930 227 c 0,56,57
 930 151 930 151 858.5 75.5 c 128,-1,58
 787 0 787 0 676 0 c 2,16,-1
EndSplineSet
EndChar

StartChar: Tbar
Encoding: 358 358 98
Width: 1237
Flags: W
LayerCount: 2
Fore
SplineSet
545 584 m 1,0,-1
 457 584 l 2,1,2
 423 584 423 584 398 608.5 c 128,-1,3
 373 633 373 633 373 668 c 0,4,5
 373 702 373 702 398 727 c 128,-1,6
 423 752 423 752 457 752 c 2,7,-1
 545 752 l 1,8,-1
 797 752 l 2,9,10
 832 752 832 752 857.5 727.5 c 128,-1,11
 883 703 883 703 883 668 c 256,12,13
 883 633 883 633 857.5 608.5 c 128,-1,14
 832 584 832 584 797 584 c 2,15,-1
 545 584 l 1,0,-1
205 1100 m 2,16,-1
 205 1327 l 1,17,-1
 1053 1327 l 1,18,-1
 1053 1098 l 2,19,20
 1053 1063 1053 1063 1028 1038.5 c 128,-1,21
 1003 1014 1003 1014 969 1014 c 0,22,23
 934 1014 934 1014 908.5 1039 c 128,-1,24
 883 1064 883 1064 883 1098 c 2,25,-1
 883 1159 l 1,26,-1
 713 1159 l 1,27,-1
 713 84 l 2,28,29
 713 49 713 49 688 24.5 c 128,-1,30
 663 0 663 0 629 0 c 0,31,32
 593 0 593 0 568 24.5 c 128,-1,33
 543 49 543 49 543 84 c 2,34,-1
 543 1159 l 1,35,-1
 373 1159 l 1,36,-1
 373 1100 l 2,37,38
 373 1065 373 1065 348.5 1040.5 c 128,-1,39
 324 1016 324 1016 289 1016 c 256,40,41
 254 1016 254 1016 229.5 1040.5 c 128,-1,42
 205 1065 205 1065 205 1100 c 2,16,-1
EndSplineSet
EndChar

StartChar: tbar
Encoding: 359 359 99
Width: 1237
Flags: W
LayerCount: 2
Fore
SplineSet
375 464 m 1,0,-1
 287 464 l 2,1,2
 253 464 253 464 228 488.5 c 128,-1,3
 203 513 203 513 203 548 c 0,4,5
 203 582 203 582 228 607 c 128,-1,6
 253 632 253 632 287 632 c 2,7,-1
 375 632 l 1,8,-1
 627 632 l 2,9,10
 662 632 662 632 687.5 607.5 c 128,-1,11
 713 583 713 583 713 548 c 256,12,13
 713 513 713 513 687.5 488.5 c 128,-1,14
 662 464 662 464 627 464 c 2,15,-1
 375 464 l 1,0,-1
797 0 m 2,16,-1
 629 0 l 2,17,18
 525 0 525 0 450 74 c 128,-1,19
 375 148 375 148 375 252 c 2,20,-1
 375 797 l 1,21,-1
 289 797 l 2,22,23
 254 797 254 797 229.5 821 c 128,-1,24
 205 845 205 845 205 881 c 0,25,26
 205 916 205 916 229.5 940.5 c 128,-1,27
 254 965 254 965 289 965 c 2,28,-1
 377 965 l 1,29,-1
 377 1171 l 2,30,31
 377 1206 377 1206 401.5 1230.5 c 128,-1,32
 426 1255 426 1255 461 1255 c 0,33,34
 494 1255 494 1255 519.5 1230 c 128,-1,35
 545 1205 545 1205 545 1171 c 2,36,-1
 545 965 l 1,37,-1
 883 965 l 2,38,39
 917 965 917 965 942 940 c 128,-1,40
 967 915 967 915 967 881 c 0,41,42
 967 846 967 846 942 821.5 c 128,-1,43
 917 797 917 797 883 797 c 2,44,-1
 543 797 l 1,45,-1
 543 252 l 2,46,47
 543 218 543 218 568.5 193 c 128,-1,48
 594 168 594 168 629 168 c 2,49,-1
 793 168 l 2,50,51
 860 168 860 168 882 240.5 c 128,-1,52
 904 313 904 313 967 313 c 0,53,54
 1004 313 1004 313 1027.5 288.5 c 128,-1,55
 1051 264 1051 264 1051 227 c 0,56,57
 1051 151 1051 151 979.5 75.5 c 128,-1,58
 908 0 908 0 797 0 c 2,16,-1
EndSplineSet
EndChar

StartChar: Utilde
Encoding: 360 360 100
Width: 1237
Flags: W
LayerCount: 2
Fore
SplineSet
205 252 m 2,0,-1
 205 1243 l 2,1,2
 205 1278 205 1278 230 1303.5 c 128,-1,3
 255 1329 255 1329 289 1329 c 256,4,5
 323 1329 323 1329 348 1304 c 128,-1,6
 373 1279 373 1279 373 1245 c 2,7,-1
 373 252 l 2,8,9
 373 219 373 219 398 194.5 c 128,-1,10
 423 170 423 170 457 170 c 2,11,-1
 801 170 l 2,12,13
 836 170 836 170 860.5 194 c 128,-1,14
 885 218 885 218 885 252 c 2,15,-1
 885 1243 l 2,16,17
 885 1279 885 1279 909.5 1304 c 128,-1,18
 934 1329 934 1329 969 1329 c 256,19,20
 1004 1329 1004 1329 1028.5 1304 c 128,-1,21
 1053 1279 1053 1279 1053 1243 c 2,22,-1
 1053 254 l 2,23,24
 1053 150 1053 150 978.5 75 c 128,-1,25
 904 0 904 0 801 0 c 2,26,-1
 457 0 l 2,27,28
 353 0 353 0 279 74 c 128,-1,29
 205 148 205 148 205 252 c 2,0,-1
1025 1536 m 2,30,-1
 873 1444 l 2,31,32
 845 1430 845 1430 828 1430 c 2,33,-1
 775 1430 l 2,34,35
 767 1430 767 1430 748 1436 c 2,36,-1
 492 1522 l 1,37,-1
 468 1522 l 1,38,-1
 341 1444 l 2,39,40
 318 1430 318 1430 294 1430 c 0,41,42
 260 1430 260 1430 235 1457 c 128,-1,43
 210 1484 210 1484 210 1519 c 0,44,45
 210 1563 210 1563 251 1588 c 2,46,-1
 402 1680 l 2,47,48
 421 1692 421 1692 447 1692 c 2,49,-1
 501 1692 l 2,50,51
 515 1692 515 1692 527 1688 c 2,52,-1
 789 1600 l 1,53,-1
 804 1600 l 1,54,-1
 935 1680 l 2,55,56
 958 1694 958 1694 981 1694 c 0,57,58
 1016 1694 1016 1694 1041 1667 c 128,-1,59
 1066 1640 1066 1640 1066 1605 c 0,60,61
 1066 1561 1066 1561 1025 1536 c 2,30,-1
EndSplineSet
EndChar

StartChar: utilde
Encoding: 361 361 101
Width: 1237
Flags: W
LayerCount: 2
Fore
SplineSet
606 170 m 1,0,-1
 889 350 l 1,1,-1
 889 881 l 2,2,3
 889 916 889 916 913.5 941.5 c 128,-1,4
 938 967 938 967 973 967 c 256,5,6
 1008 967 1008 967 1032.5 941.5 c 128,-1,7
 1057 916 1057 916 1057 881 c 2,8,-1
 1057 84 l 2,9,10
 1057 50 1057 50 1032 25 c 128,-1,11
 1007 0 1007 0 973 0 c 256,12,13
 939 0 939 0 914 25 c 128,-1,14
 889 50 889 50 889 84 c 2,15,-1
 889 150 l 1,16,-1
 743 55 l 2,17,18
 657 0 657 0 569 0 c 2,19,-1
 491 0 l 2,20,21
 388 0 388 0 314 72 c 128,-1,22
 240 144 240 144 235 248 c 2,23,-1
 211 881 l 2,24,25
 209 914 209 914 234.5 939.5 c 128,-1,26
 260 965 260 965 295 965 c 0,27,28
 329 965 329 965 353.5 940 c 128,-1,29
 378 915 378 915 379 881 c 2,30,-1
 401 260 l 2,31,32
 404 170 404 170 504 170 c 2,33,-1
 606 170 l 1,0,-1
1020 1171 m 2,34,-1
 868 1079 l 2,35,36
 840 1065 840 1065 823 1065 c 2,37,-1
 770 1065 l 2,38,39
 762 1065 762 1065 743 1071 c 2,40,-1
 487 1157 l 1,41,-1
 463 1157 l 1,42,-1
 336 1079 l 2,43,44
 313 1065 313 1065 289 1065 c 0,45,46
 255 1065 255 1065 230 1092 c 128,-1,47
 205 1119 205 1119 205 1154 c 0,48,49
 205 1198 205 1198 246 1223 c 2,50,-1
 397 1315 l 2,51,52
 416 1327 416 1327 442 1327 c 2,53,-1
 496 1327 l 2,54,55
 510 1327 510 1327 522 1323 c 2,56,-1
 784 1235 l 1,57,-1
 799 1235 l 1,58,-1
 930 1315 l 2,59,60
 953 1329 953 1329 976 1329 c 0,61,62
 1011 1329 1011 1329 1036 1302 c 128,-1,63
 1061 1275 1061 1275 1061 1240 c 0,64,65
 1061 1196 1061 1196 1020 1171 c 2,34,-1
EndSplineSet
EndChar

StartChar: Umacron
Encoding: 362 362 102
Width: 1237
Flags: W
LayerCount: 2
Fore
SplineSet
889 1598 m 2,0,1
 924 1598 924 1598 949.5 1573 c 128,-1,2
 975 1548 975 1548 975 1514 c 0,3,4
 975 1478 975 1478 949.5 1454 c 128,-1,5
 924 1430 924 1430 889 1430 c 2,6,-1
 369 1430 l 2,7,8
 335 1430 335 1430 310 1455 c 128,-1,9
 285 1480 285 1480 285 1514 c 256,10,11
 285 1548 285 1548 310 1573 c 128,-1,12
 335 1598 335 1598 369 1598 c 2,13,-1
 889 1598 l 2,0,1
205 252 m 2,14,-1
 205 1243 l 2,15,16
 205 1278 205 1278 230 1303.5 c 128,-1,17
 255 1329 255 1329 289 1329 c 256,18,19
 323 1329 323 1329 348 1304 c 128,-1,20
 373 1279 373 1279 373 1245 c 2,21,-1
 373 252 l 2,22,23
 373 219 373 219 398 194.5 c 128,-1,24
 423 170 423 170 457 170 c 2,25,-1
 801 170 l 2,26,27
 836 170 836 170 860.5 194 c 128,-1,28
 885 218 885 218 885 252 c 2,29,-1
 885 1243 l 2,30,31
 885 1279 885 1279 909.5 1304 c 128,-1,32
 934 1329 934 1329 969 1329 c 256,33,34
 1004 1329 1004 1329 1028.5 1304 c 128,-1,35
 1053 1279 1053 1279 1053 1243 c 2,36,-1
 1053 254 l 2,37,38
 1053 150 1053 150 978.5 75 c 128,-1,39
 904 0 904 0 801 0 c 2,40,-1
 457 0 l 2,41,42
 353 0 353 0 279 74 c 128,-1,43
 205 148 205 148 205 252 c 2,14,-1
EndSplineSet
EndChar

StartChar: umacron
Encoding: 363 363 103
Width: 1237
Flags: W
LayerCount: 2
Fore
SplineSet
889 1283 m 2,0,1
 924 1283 924 1283 949.5 1258.5 c 128,-1,2
 975 1234 975 1234 975 1199 c 256,3,4
 975 1164 975 1164 949.5 1139.5 c 128,-1,5
 924 1115 924 1115 889 1115 c 2,6,-1
 369 1115 l 2,7,8
 335 1115 335 1115 310 1140 c 128,-1,9
 285 1165 285 1165 285 1199 c 0,10,11
 285 1234 285 1234 310 1258.5 c 128,-1,12
 335 1283 335 1283 369 1283 c 2,13,-1
 889 1283 l 2,0,1
606 170 m 1,14,-1
 889 350 l 1,15,-1
 889 881 l 2,16,17
 889 916 889 916 913.5 941.5 c 128,-1,18
 938 967 938 967 973 967 c 256,19,20
 1008 967 1008 967 1032.5 941.5 c 128,-1,21
 1057 916 1057 916 1057 881 c 2,22,-1
 1057 84 l 2,23,24
 1057 50 1057 50 1032 25 c 128,-1,25
 1007 0 1007 0 973 0 c 256,26,27
 939 0 939 0 914 25 c 128,-1,28
 889 50 889 50 889 84 c 2,29,-1
 889 150 l 1,30,-1
 743 55 l 2,31,32
 657 0 657 0 569 0 c 2,33,-1
 491 0 l 2,34,35
 388 0 388 0 314 72 c 128,-1,36
 240 144 240 144 235 248 c 2,37,-1
 211 881 l 2,38,39
 209 914 209 914 234.5 939.5 c 128,-1,40
 260 965 260 965 295 965 c 0,41,42
 329 965 329 965 353.5 940 c 128,-1,43
 378 915 378 915 379 881 c 2,44,-1
 401 260 l 2,45,46
 404 170 404 170 504 170 c 2,47,-1
 606 170 l 1,14,-1
EndSplineSet
EndChar

StartChar: Ubreve
Encoding: 364 364 104
Width: 1237
Flags: W
LayerCount: 2
Fore
SplineSet
941 1747 m 0,0,1
 976 1747 976 1747 1001.5 1725.5 c 128,-1,2
 1027 1704 1027 1704 1027 1675 c 0,3,4
 1027 1608 1027 1608 906 1522 c 128,-1,5
 785 1436 785 1436 637 1436 c 0,6,7
 490 1436 490 1436 369 1522 c 128,-1,8
 248 1608 248 1608 248 1675 c 0,9,10
 248 1704 248 1704 273.5 1725.5 c 128,-1,11
 299 1747 299 1747 334 1747 c 0,12,13
 375 1747 375 1747 400 1723 c 0,14,15
 509 1606 509 1606 637 1606 c 0,16,17
 766 1606 766 1606 875 1723 c 0,18,19
 900 1747 900 1747 941 1747 c 0,0,1
205 252 m 2,20,-1
 205 1243 l 2,21,22
 205 1278 205 1278 230 1303.5 c 128,-1,23
 255 1329 255 1329 289 1329 c 256,24,25
 323 1329 323 1329 348 1304 c 128,-1,26
 373 1279 373 1279 373 1245 c 2,27,-1
 373 252 l 2,28,29
 373 219 373 219 398 194.5 c 128,-1,30
 423 170 423 170 457 170 c 2,31,-1
 801 170 l 2,32,33
 836 170 836 170 860.5 194 c 128,-1,34
 885 218 885 218 885 252 c 2,35,-1
 885 1243 l 2,36,37
 885 1279 885 1279 909.5 1304 c 128,-1,38
 934 1329 934 1329 969 1329 c 256,39,40
 1004 1329 1004 1329 1028.5 1304 c 128,-1,41
 1053 1279 1053 1279 1053 1243 c 2,42,-1
 1053 254 l 2,43,44
 1053 150 1053 150 978.5 75 c 128,-1,45
 904 0 904 0 801 0 c 2,46,-1
 457 0 l 2,47,48
 353 0 353 0 279 74 c 128,-1,49
 205 148 205 148 205 252 c 2,20,-1
EndSplineSet
EndChar

StartChar: ubreve
Encoding: 365 365 105
Width: 1237
Flags: W
LayerCount: 2
Fore
SplineSet
941 1408 m 0,0,1
 976 1408 976 1408 1001.5 1386.5 c 128,-1,2
 1027 1365 1027 1365 1027 1336 c 0,3,4
 1027 1269 1027 1269 906 1183 c 128,-1,5
 785 1097 785 1097 637 1097 c 0,6,7
 490 1097 490 1097 369 1183 c 128,-1,8
 248 1269 248 1269 248 1336 c 0,9,10
 248 1365 248 1365 273.5 1386.5 c 128,-1,11
 299 1408 299 1408 334 1408 c 0,12,13
 375 1408 375 1408 400 1384 c 0,14,15
 509 1267 509 1267 637 1267 c 0,16,17
 766 1267 766 1267 875 1384 c 0,18,19
 900 1408 900 1408 941 1408 c 0,0,1
606 170 m 1,20,-1
 889 350 l 1,21,-1
 889 881 l 2,22,23
 889 916 889 916 913.5 941.5 c 128,-1,24
 938 967 938 967 973 967 c 256,25,26
 1008 967 1008 967 1032.5 941.5 c 128,-1,27
 1057 916 1057 916 1057 881 c 2,28,-1
 1057 84 l 2,29,30
 1057 50 1057 50 1032 25 c 128,-1,31
 1007 0 1007 0 973 0 c 256,32,33
 939 0 939 0 914 25 c 128,-1,34
 889 50 889 50 889 84 c 2,35,-1
 889 150 l 1,36,-1
 743 55 l 2,37,38
 657 0 657 0 569 0 c 2,39,-1
 491 0 l 2,40,41
 388 0 388 0 314 72 c 128,-1,42
 240 144 240 144 235 248 c 2,43,-1
 211 881 l 2,44,45
 209 914 209 914 234.5 939.5 c 128,-1,46
 260 965 260 965 295 965 c 0,47,48
 329 965 329 965 353.5 940 c 128,-1,49
 378 915 378 915 379 881 c 2,50,-1
 401 260 l 2,51,52
 404 170 404 170 504 170 c 2,53,-1
 606 170 l 1,20,-1
EndSplineSet
EndChar

StartChar: Uring
Encoding: 366 366 106
Width: 1237
Flags: W
LayerCount: 2
Fore
SplineSet
205 252 m 2,0,-1
 205 1243 l 2,1,2
 205 1278 205 1278 230 1303.5 c 128,-1,3
 255 1329 255 1329 289 1329 c 256,4,5
 323 1329 323 1329 348 1304 c 128,-1,6
 373 1279 373 1279 373 1245 c 2,7,-1
 373 252 l 2,8,9
 373 219 373 219 398 194.5 c 128,-1,10
 423 170 423 170 457 170 c 2,11,-1
 801 170 l 2,12,13
 836 170 836 170 860.5 194 c 128,-1,14
 885 218 885 218 885 252 c 2,15,-1
 885 1243 l 2,16,17
 885 1279 885 1279 909.5 1304 c 128,-1,18
 934 1329 934 1329 969 1329 c 256,19,20
 1004 1329 1004 1329 1028.5 1304 c 128,-1,21
 1053 1279 1053 1279 1053 1243 c 2,22,-1
 1053 254 l 2,23,24
 1053 150 1053 150 978.5 75 c 128,-1,25
 904 0 904 0 801 0 c 2,26,-1
 457 0 l 2,27,28
 353 0 353 0 279 74 c 128,-1,29
 205 148 205 148 205 252 c 2,0,-1
816 1529 m 2,30,31
 816 1473 816 1473 762.5 1424.5 c 128,-1,32
 709 1376 709 1376 652 1376 c 2,33,-1
 595 1376 l 2,34,35
 538 1376 538 1376 485.5 1424 c 128,-1,36
 433 1472 433 1472 433 1529 c 2,37,-1
 433 1603 l 2,38,39
 433 1660 433 1660 484.5 1708.5 c 128,-1,40
 536 1757 536 1757 595 1757 c 2,41,-1
 652 1757 l 2,42,43
 710 1757 710 1757 763 1708 c 128,-1,44
 816 1659 816 1659 816 1603 c 2,45,-1
 816 1529 l 2,30,31
705 1542 m 2,46,-1
 705 1591 l 2,47,48
 705 1610 705 1610 680.5 1628 c 128,-1,49
 656 1646 656 1646 646 1646 c 2,50,-1
 609 1646 l 2,51,52
 590 1646 590 1646 567 1626.5 c 128,-1,53
 544 1607 544 1607 544 1593 c 2,54,-1
 544 1542 l 2,55,56
 544 1522 544 1522 556 1513 c 2,57,-1
 580 1494 l 2,58,59
 589 1486 589 1486 603 1486 c 2,60,-1
 646 1486 l 2,61,62
 664 1486 664 1486 693 1517 c 1,63,64
 705 1521 705 1521 705 1542 c 2,46,-1
EndSplineSet
EndChar

StartChar: uring
Encoding: 367 367 107
Width: 1237
Flags: W
LayerCount: 2
Fore
SplineSet
606 170 m 1,0,-1
 889 350 l 1,1,-1
 889 881 l 2,2,3
 889 916 889 916 913.5 941.5 c 128,-1,4
 938 967 938 967 973 967 c 256,5,6
 1008 967 1008 967 1032.5 941.5 c 128,-1,7
 1057 916 1057 916 1057 881 c 2,8,-1
 1057 84 l 2,9,10
 1057 50 1057 50 1032 25 c 128,-1,11
 1007 0 1007 0 973 0 c 256,12,13
 939 0 939 0 914 25 c 128,-1,14
 889 50 889 50 889 84 c 2,15,-1
 889 150 l 1,16,-1
 743 55 l 2,17,18
 657 0 657 0 569 0 c 2,19,-1
 491 0 l 2,20,21
 388 0 388 0 314 72 c 128,-1,22
 240 144 240 144 235 248 c 2,23,-1
 211 881 l 2,24,25
 209 914 209 914 234.5 939.5 c 128,-1,26
 260 965 260 965 295 965 c 0,27,28
 329 965 329 965 353.5 940 c 128,-1,29
 378 915 378 915 379 881 c 2,30,-1
 401 260 l 2,31,32
 404 170 404 170 504 170 c 2,33,-1
 606 170 l 1,0,-1
811 1165 m 2,34,35
 811 1109 811 1109 757.5 1060.5 c 128,-1,36
 704 1012 704 1012 647 1012 c 2,37,-1
 590 1012 l 2,38,39
 533 1012 533 1012 480.5 1060 c 128,-1,40
 428 1108 428 1108 428 1165 c 2,41,-1
 428 1239 l 2,42,43
 428 1296 428 1296 479.5 1344.5 c 128,-1,44
 531 1393 531 1393 590 1393 c 2,45,-1
 647 1393 l 2,46,47
 705 1393 705 1393 758 1344 c 128,-1,48
 811 1295 811 1295 811 1239 c 2,49,-1
 811 1165 l 2,34,35
700 1178 m 2,50,-1
 700 1227 l 2,51,52
 700 1246 700 1246 675.5 1264 c 128,-1,53
 651 1282 651 1282 641 1282 c 2,54,-1
 604 1282 l 2,55,56
 585 1282 585 1282 562 1262.5 c 128,-1,57
 539 1243 539 1243 539 1229 c 2,58,-1
 539 1178 l 2,59,60
 539 1158 539 1158 551 1149 c 2,61,-1
 575 1130 l 2,62,63
 584 1122 584 1122 598 1122 c 2,64,-1
 641 1122 l 2,65,66
 659 1122 659 1122 688 1153 c 1,67,68
 700 1157 700 1157 700 1178 c 2,50,-1
EndSplineSet
EndChar

StartChar: Uhungarumlaut
Encoding: 368 368 108
Width: 1237
Flags: W
LayerCount: 2
Fore
SplineSet
946 1605 m 2,0,-1
 798 1457 l 2,1,2
 774 1433 774 1433 739 1433 c 256,3,4
 704 1433 704 1433 679.5 1457.5 c 128,-1,5
 655 1482 655 1482 655 1517 c 256,6,7
 655 1552 655 1552 679 1576 c 2,8,-1
 827 1724 l 2,9,10
 851 1748 851 1748 886 1748 c 256,11,12
 921 1748 921 1748 945.5 1723.5 c 128,-1,13
 970 1699 970 1699 970 1664 c 256,14,15
 970 1629 970 1629 946 1605 c 2,0,-1
606 1605 m 2,16,-1
 458 1457 l 2,17,18
 434 1433 434 1433 399 1433 c 256,19,20
 364 1433 364 1433 339.5 1457.5 c 128,-1,21
 315 1482 315 1482 315 1517 c 256,22,23
 315 1552 315 1552 339 1576 c 2,24,-1
 487 1724 l 2,25,26
 511 1748 511 1748 546 1748 c 256,27,28
 581 1748 581 1748 605.5 1723.5 c 128,-1,29
 630 1699 630 1699 630 1664 c 256,30,31
 630 1629 630 1629 606 1605 c 2,16,-1
205 252 m 2,32,-1
 205 1243 l 2,33,34
 205 1278 205 1278 230 1303.5 c 128,-1,35
 255 1329 255 1329 289 1329 c 256,36,37
 323 1329 323 1329 348 1304 c 128,-1,38
 373 1279 373 1279 373 1245 c 2,39,-1
 373 252 l 2,40,41
 373 219 373 219 398 194.5 c 128,-1,42
 423 170 423 170 457 170 c 2,43,-1
 801 170 l 2,44,45
 836 170 836 170 860.5 194 c 128,-1,46
 885 218 885 218 885 252 c 2,47,-1
 885 1243 l 2,48,49
 885 1279 885 1279 909.5 1304 c 128,-1,50
 934 1329 934 1329 969 1329 c 256,51,52
 1004 1329 1004 1329 1028.5 1304 c 128,-1,53
 1053 1279 1053 1279 1053 1243 c 2,54,-1
 1053 254 l 2,55,56
 1053 150 1053 150 978.5 75 c 128,-1,57
 904 0 904 0 801 0 c 2,58,-1
 457 0 l 2,59,60
 353 0 353 0 279 74 c 128,-1,61
 205 148 205 148 205 252 c 2,32,-1
EndSplineSet
EndChar

StartChar: uhungarumlaut
Encoding: 369 369 109
Width: 1237
Flags: W
LayerCount: 2
Fore
SplineSet
946 1283 m 2,0,-1
 798 1135 l 2,1,2
 774 1111 774 1111 739 1111 c 256,3,4
 704 1111 704 1111 679.5 1135.5 c 128,-1,5
 655 1160 655 1160 655 1195 c 256,6,7
 655 1230 655 1230 679 1254 c 2,8,-1
 827 1402 l 2,9,10
 851 1426 851 1426 886 1426 c 256,11,12
 921 1426 921 1426 945.5 1401.5 c 128,-1,13
 970 1377 970 1377 970 1342 c 256,14,15
 970 1307 970 1307 946 1283 c 2,0,-1
606 1283 m 2,16,-1
 458 1135 l 2,17,18
 434 1111 434 1111 399 1111 c 256,19,20
 364 1111 364 1111 339.5 1135.5 c 128,-1,21
 315 1160 315 1160 315 1195 c 256,22,23
 315 1230 315 1230 339 1254 c 2,24,-1
 487 1402 l 2,25,26
 511 1426 511 1426 546 1426 c 256,27,28
 581 1426 581 1426 605.5 1401.5 c 128,-1,29
 630 1377 630 1377 630 1342 c 256,30,31
 630 1307 630 1307 606 1283 c 2,16,-1
606 170 m 1,32,-1
 889 350 l 1,33,-1
 889 881 l 2,34,35
 889 916 889 916 913.5 941.5 c 128,-1,36
 938 967 938 967 973 967 c 256,37,38
 1008 967 1008 967 1032.5 941.5 c 128,-1,39
 1057 916 1057 916 1057 881 c 2,40,-1
 1057 84 l 2,41,42
 1057 50 1057 50 1032 25 c 128,-1,43
 1007 0 1007 0 973 0 c 256,44,45
 939 0 939 0 914 25 c 128,-1,46
 889 50 889 50 889 84 c 2,47,-1
 889 150 l 1,48,-1
 743 55 l 2,49,50
 657 0 657 0 569 0 c 2,51,-1
 491 0 l 2,52,53
 388 0 388 0 314 72 c 128,-1,54
 240 144 240 144 235 248 c 2,55,-1
 211 881 l 2,56,57
 209 914 209 914 234.5 939.5 c 128,-1,58
 260 965 260 965 295 965 c 0,59,60
 329 965 329 965 353.5 940 c 128,-1,61
 378 915 378 915 379 881 c 2,62,-1
 401 260 l 2,63,64
 404 170 404 170 504 170 c 2,65,-1
 606 170 l 1,32,-1
EndSplineSet
EndChar

StartChar: Uogonek
Encoding: 370 370 110
Width: 1237
Flags: W
LayerCount: 2
Fore
SplineSet
721 0 m 1,0,-1
 721 -190 l 1,1,-1
 841 -190 l 2,2,3
 876 -190 876 -190 900.5 -215.5 c 128,-1,4
 925 -241 925 -241 925 -276 c 0,5,6
 925 -310 925 -310 900 -335 c 128,-1,7
 875 -360 875 -360 841 -360 c 2,8,-1
 637 -360 l 2,9,10
 622 -360 622 -360 578 -335 c 0,11,12
 553 -321 553 -321 553 -274 c 2,13,-1
 553 0 l 1,14,-1
 721 0 l 1,0,-1
205 252 m 2,15,-1
 205 1243 l 2,16,17
 205 1278 205 1278 230 1303.5 c 128,-1,18
 255 1329 255 1329 289 1329 c 256,19,20
 323 1329 323 1329 348 1304 c 128,-1,21
 373 1279 373 1279 373 1245 c 2,22,-1
 373 252 l 2,23,24
 373 219 373 219 398 194.5 c 128,-1,25
 423 170 423 170 457 170 c 2,26,-1
 801 170 l 2,27,28
 836 170 836 170 860.5 194 c 128,-1,29
 885 218 885 218 885 252 c 2,30,-1
 885 1243 l 2,31,32
 885 1279 885 1279 909.5 1304 c 128,-1,33
 934 1329 934 1329 969 1329 c 256,34,35
 1004 1329 1004 1329 1028.5 1304 c 128,-1,36
 1053 1279 1053 1279 1053 1243 c 2,37,-1
 1053 254 l 2,38,39
 1053 150 1053 150 978.5 75 c 128,-1,40
 904 0 904 0 801 0 c 2,41,-1
 457 0 l 2,42,43
 353 0 353 0 279 74 c 128,-1,44
 205 148 205 148 205 252 c 2,15,-1
EndSplineSet
EndChar

StartChar: uogonek
Encoding: 371 371 111
Width: 1237
Flags: W
LayerCount: 2
Fore
SplineSet
1057 118 m 1,0,-1
 1057 -190 l 1,1,-1
 1177 -190 l 2,2,3
 1212 -190 1212 -190 1236.5 -215.5 c 128,-1,4
 1261 -241 1261 -241 1261 -276 c 0,5,6
 1261 -310 1261 -310 1236 -335 c 128,-1,7
 1211 -360 1211 -360 1177 -360 c 2,8,-1
 973 -360 l 2,9,10
 958 -360 958 -360 914 -335 c 0,11,12
 889 -321 889 -321 889 -274 c 2,13,-1
 889 118 l 1,14,-1
 1057 118 l 1,0,-1
606 170 m 1,15,-1
 889 350 l 1,16,-1
 889 881 l 2,17,18
 889 916 889 916 913.5 941.5 c 128,-1,19
 938 967 938 967 973 967 c 256,20,21
 1008 967 1008 967 1032.5 941.5 c 128,-1,22
 1057 916 1057 916 1057 881 c 2,23,-1
 1057 84 l 2,24,25
 1057 50 1057 50 1032 25 c 128,-1,26
 1007 0 1007 0 973 0 c 256,27,28
 939 0 939 0 914 25 c 128,-1,29
 889 50 889 50 889 84 c 2,30,-1
 889 150 l 1,31,-1
 743 55 l 2,32,33
 657 0 657 0 569 0 c 2,34,-1
 491 0 l 2,35,36
 388 0 388 0 314 72 c 128,-1,37
 240 144 240 144 235 248 c 2,38,-1
 211 881 l 2,39,40
 209 914 209 914 234.5 939.5 c 128,-1,41
 260 965 260 965 295 965 c 0,42,43
 329 965 329 965 353.5 940 c 128,-1,44
 378 915 378 915 379 881 c 2,45,-1
 401 260 l 2,46,47
 404 170 404 170 504 170 c 2,48,-1
 606 170 l 1,15,-1
EndSplineSet
EndChar

StartChar: Wcircumflex
Encoding: 372 372 112
Width: 1237
Flags: W
LayerCount: 2
Fore
SplineSet
715 809 m 2,0,-1
 715 250 l 1,1,-1
 764 168 l 1,2,-1
 834 168 l 1,3,-1
 885 252 l 1,4,-1
 885 1243 l 2,5,6
 885 1278 885 1278 910.5 1303.5 c 128,-1,7
 936 1329 936 1329 971 1329 c 0,8,9
 1005 1329 1005 1329 1030 1304 c 128,-1,10
 1055 1279 1055 1279 1055 1245 c 2,11,-1
 1055 225 l 2,12,13
 1055 206 1055 206 1034 172 c 2,14,-1
 956 43 l 2,15,16
 932 0 932 0 883 0 c 2,17,-1
 725 0 l 2,18,19
 650 0 650 0 629 68 c 1,20,21
 606 0 606 0 537 0 c 2,22,-1
 389 0 l 2,23,24
 325 0 325 0 297 47 c 2,25,-1
 225 168 l 2,26,27
 205 201 205 201 205 225 c 2,28,-1
 205 1243 l 2,29,30
 205 1278 205 1278 230.5 1303.5 c 128,-1,31
 256 1329 256 1329 291 1329 c 0,32,33
 324 1329 324 1329 348.5 1303.5 c 128,-1,34
 373 1278 373 1278 373 1243 c 2,35,-1
 373 248 l 1,36,-1
 422 168 l 1,37,-1
 494 168 l 1,38,-1
 547 252 l 1,39,-1
 547 809 l 2,40,41
 547 844 547 844 571.5 868.5 c 128,-1,42
 596 893 596 893 631 893 c 256,43,44
 666 893 666 893 690.5 868.5 c 128,-1,45
 715 844 715 844 715 809 c 2,0,-1
618 1515 m 1,46,-1
 348 1390 l 2,47,48
 331 1382 331 1382 312 1382 c 0,49,50
 276 1382 276 1382 252.5 1408.5 c 128,-1,51
 229 1435 229 1435 229 1468 c 0,52,53
 229 1522 229 1522 276 1544 c 2,54,-1
 582 1685 l 2,55,56
 602 1693 602 1693 618 1693 c 0,57,58
 638 1693 638 1693 655 1685 c 2,59,-1
 961 1544 l 2,60,61
 1008 1520 1008 1520 1008 1468 c 0,62,63
 1008 1435 1008 1435 984.5 1408.5 c 128,-1,64
 961 1382 961 1382 925 1382 c 0,65,66
 907 1382 907 1382 889 1390 c 2,67,-1
 618 1515 l 1,46,-1
EndSplineSet
EndChar

StartChar: wcircumflex
Encoding: 373 373 113
Width: 1237
Flags: W
LayerCount: 2
Fore
SplineSet
714 592 m 2,0,-1
 714 391 l 1,1,-1
 826 199 l 1,2,-1
 884 391 l 1,3,-1
 902 881 l 2,4,5
 904 915 904 915 928.5 940 c 128,-1,6
 953 965 953 965 986 965 c 0,7,8
 1021 965 1021 965 1046 940.5 c 128,-1,9
 1071 916 1071 916 1070 881 c 2,10,-1
 1052 358 l 1,11,-1
 962 61 l 2,12,13
 943 0 943 0 884 0 c 2,14,-1
 794 0 l 2,15,16
 747 0 747 0 720 47 c 2,17,-1
 628 205 l 1,18,-1
 536 49 l 2,19,20
 505 0 505 0 462 0 c 2,21,-1
 374 0 l 2,22,23
 345 0 345 0 321.5 17 c 128,-1,24
 298 34 298 34 292 57 c 2,25,-1
 204 365 l 1,26,-1
 185 881 l 2,27,28
 184 914 184 914 210 939.5 c 128,-1,29
 236 965 236 965 271 965 c 0,30,31
 303 965 303 965 327.5 941.5 c 128,-1,32
 352 918 352 918 353 881 c 2,33,-1
 372 389 l 1,34,-1
 427 201 l 1,35,-1
 544 397 l 1,36,-1
 544 592 l 2,37,38
 544 627 544 627 569 651.5 c 128,-1,39
 594 676 594 676 630 676 c 0,40,41
 664 676 664 676 689 651.5 c 128,-1,42
 714 627 714 627 714 592 c 2,0,-1
620 1151 m 1,43,-1
 350 1026 l 2,44,45
 333 1018 333 1018 314 1018 c 0,46,47
 278 1018 278 1018 254.5 1044.5 c 128,-1,48
 231 1071 231 1071 231 1104 c 0,49,50
 231 1158 231 1158 278 1180 c 2,51,-1
 584 1321 l 2,52,53
 604 1329 604 1329 620 1329 c 0,54,55
 640 1329 640 1329 657 1321 c 2,56,-1
 963 1180 l 2,57,58
 1010 1156 1010 1156 1010 1104 c 0,59,60
 1010 1071 1010 1071 986.5 1044.5 c 128,-1,61
 963 1018 963 1018 927 1018 c 0,62,63
 909 1018 909 1018 891 1026 c 2,64,-1
 620 1151 l 1,43,-1
EndSplineSet
EndChar

StartChar: Ycircumflex
Encoding: 374 374 114
Width: 1237
Flags: W
LayerCount: 2
Fore
SplineSet
717 637 m 1,0,-1
 717 84 l 2,1,2
 717 49 717 49 692 24.5 c 128,-1,3
 667 0 667 0 633 0 c 0,4,5
 597 0 597 0 572 24.5 c 128,-1,6
 547 49 547 49 547 84 c 2,7,-1
 547 637 l 1,8,-1
 209 1065 l 1,9,-1
 209 1243 l 2,10,11
 209 1279 209 1279 233.5 1304 c 128,-1,12
 258 1329 258 1329 293 1329 c 256,13,14
 328 1329 328 1329 353.5 1303.5 c 128,-1,15
 379 1278 379 1278 379 1243 c 2,16,-1
 379 1128 l 1,17,-1
 631 803 l 1,18,-1
 887 1126 l 1,19,-1
 887 1243 l 2,20,21
 887 1278 887 1278 912 1303.5 c 128,-1,22
 937 1329 937 1329 971 1329 c 0,23,24
 1004 1329 1004 1329 1029.5 1305.5 c 128,-1,25
 1055 1282 1055 1282 1055 1243 c 2,26,-1
 1055 1067 l 1,27,-1
 717 637 l 1,0,-1
618 1515 m 1,28,-1
 348 1390 l 2,29,30
 331 1382 331 1382 312 1382 c 0,31,32
 276 1382 276 1382 252.5 1408.5 c 128,-1,33
 229 1435 229 1435 229 1468 c 0,34,35
 229 1522 229 1522 276 1544 c 2,36,-1
 582 1685 l 2,37,38
 602 1693 602 1693 618 1693 c 0,39,40
 638 1693 638 1693 655 1685 c 2,41,-1
 961 1544 l 2,42,43
 1008 1520 1008 1520 1008 1468 c 0,44,45
 1008 1435 1008 1435 984.5 1408.5 c 128,-1,46
 961 1382 961 1382 925 1382 c 0,47,48
 907 1382 907 1382 889 1390 c 2,49,-1
 618 1515 l 1,28,-1
EndSplineSet
EndChar

StartChar: ycircumflex
Encoding: 375 375 115
Width: 1237
Flags: W
LayerCount: 2
Fore
SplineSet
1055 719 m 1,0,-1
 602 -305 l 2,1,2
 579 -360 579 -360 522 -360 c 2,3,-1
 289 -360 l 2,4,5
 254 -360 254 -360 229.5 -336 c 128,-1,6
 205 -312 205 -312 205 -276 c 0,7,8
 205 -241 205 -241 229.5 -217 c 128,-1,9
 254 -193 254 -193 289 -193 c 2,10,-1
 469 -193 l 1,11,-1
 584 74 l 1,12,-1
 543 74 l 2,13,14
 486 74 486 74 461 133 c 2,15,-1
 209 719 l 1,16,-1
 209 881 l 2,17,18
 209 916 209 916 233 940.5 c 128,-1,19
 257 965 257 965 291 965 c 0,20,21
 326 965 326 965 351.5 940.5 c 128,-1,22
 377 916 377 916 377 881 c 2,23,-1
 377 756 l 1,24,-1
 598 244 l 1,25,-1
 657 244 l 1,26,-1
 885 754 l 1,27,-1
 885 883 l 2,28,29
 885 916 885 916 910.5 941.5 c 128,-1,30
 936 967 936 967 971 967 c 0,31,32
 1005 967 1005 967 1030 942 c 128,-1,33
 1055 917 1055 917 1055 883 c 2,34,-1
 1055 719 l 1,0,-1
620 1151 m 1,35,-1
 350 1026 l 2,36,37
 333 1018 333 1018 314 1018 c 0,38,39
 278 1018 278 1018 254.5 1044.5 c 128,-1,40
 231 1071 231 1071 231 1104 c 0,41,42
 231 1158 231 1158 278 1180 c 2,43,-1
 584 1321 l 2,44,45
 604 1329 604 1329 620 1329 c 0,46,47
 640 1329 640 1329 657 1321 c 2,48,-1
 963 1180 l 2,49,50
 1010 1156 1010 1156 1010 1104 c 0,51,52
 1010 1071 1010 1071 986.5 1044.5 c 128,-1,53
 963 1018 963 1018 927 1018 c 0,54,55
 909 1018 909 1018 891 1026 c 2,56,-1
 620 1151 l 1,35,-1
EndSplineSet
EndChar

StartChar: Zacute
Encoding: 377 377 116
Width: 1237
Flags: W
LayerCount: 2
Fore
SplineSet
287 1329 m 2,0,-1
 1053 1329 l 1,1,-1
 1053 1221 l 1,2,-1
 436 168 l 1,3,-1
 969 168 l 2,4,5
 1004 168 1004 168 1028.5 143.5 c 128,-1,6
 1053 119 1053 119 1053 84 c 0,7,8
 1053 50 1053 50 1028 25 c 128,-1,9
 1003 0 1003 0 969 0 c 2,10,-1
 205 0 l 1,11,-1
 205 111 l 1,12,-1
 821 1159 l 1,13,-1
 287 1159 l 2,14,15
 253 1159 253 1159 229 1184.5 c 128,-1,16
 205 1210 205 1210 205 1245 c 0,17,18
 205 1279 205 1279 229 1304 c 128,-1,19
 253 1329 253 1329 287 1329 c 2,0,-1
735 1685 m 2,20,21
 753 1693 753 1693 772 1693 c 0,22,23
 808 1693 808 1693 831 1666.5 c 128,-1,24
 854 1640 854 1640 854 1607 c 0,25,26
 854 1553 854 1553 807 1531 c 2,27,-1
 502 1390 l 2,28,29
 484 1382 484 1382 465 1382 c 0,30,31
 429 1382 429 1382 406 1408.5 c 128,-1,32
 383 1435 383 1435 383 1468 c 0,33,34
 383 1522 383 1522 430 1544 c 2,35,-1
 735 1685 l 2,20,21
EndSplineSet
EndChar

StartChar: zacute
Encoding: 378 378 117
Width: 1237
Flags: W
LayerCount: 2
Fore
SplineSet
1055 881 m 2,0,-1
 1055 813 l 2,1,2
 1055 773 1055 773 1026 745 c 2,3,-1
 430 168 l 1,4,-1
 969 168 l 2,5,6
 1004 168 1004 168 1028.5 143.5 c 128,-1,7
 1053 119 1053 119 1053 84 c 256,8,9
 1053 49 1053 49 1028.5 24.5 c 128,-1,10
 1004 0 1004 0 969 0 c 2,11,-1
 293 0 l 2,12,13
 257 0 257 0 232 24.5 c 128,-1,14
 207 49 207 49 207 84 c 2,15,-1
 207 156 l 2,16,17
 207 192 207 192 252 236 c 2,18,-1
 836 797 l 1,19,-1
 332 797 l 2,20,21
 297 797 297 797 272.5 822 c 128,-1,22
 248 847 248 847 248 883 c 0,23,24
 248 916 248 916 273 941.5 c 128,-1,25
 298 967 298 967 332 967 c 2,26,-1
 971 967 l 2,27,28
 1006 967 1006 967 1030.5 941.5 c 128,-1,29
 1055 916 1055 916 1055 881 c 2,0,-1
858 1321 m 2,30,31
 876 1329 876 1329 895 1329 c 0,32,33
 931 1329 931 1329 954 1302.5 c 128,-1,34
 977 1276 977 1276 977 1243 c 0,35,36
 977 1189 977 1189 930 1167 c 2,37,-1
 625 1026 l 2,38,39
 607 1018 607 1018 588 1018 c 0,40,41
 552 1018 552 1018 529 1044.5 c 128,-1,42
 506 1071 506 1071 506 1104 c 0,43,44
 506 1158 506 1158 553 1180 c 2,45,-1
 858 1321 l 2,30,31
EndSplineSet
EndChar

StartChar: Zdotaccent
Encoding: 379 379 118
Width: 1237
Flags: W
LayerCount: 2
Fore
SplineSet
731 1478 m 2,0,1
 731 1444 731 1444 707 1418 c 0,2,3
 686 1396 686 1396 647 1396 c 0,4,5
 603 1396 603 1396 588 1421 c 0,6,7
 564 1460 564 1460 564 1478 c 2,8,-1
 564 1527 l 2,9,10
 564 1562 564 1562 588 1586 c 0,11,12
 611 1611 611 1611 647 1611 c 0,13,14
 684 1612 684 1612 707 1586 c 0,15,16
 731 1560 731 1560 731 1527 c 2,17,-1
 731 1478 l 2,0,1
287 1329 m 2,18,-1
 1053 1329 l 1,19,-1
 1053 1221 l 1,20,-1
 436 168 l 1,21,-1
 969 168 l 2,22,23
 1004 168 1004 168 1028.5 143.5 c 128,-1,24
 1053 119 1053 119 1053 84 c 0,25,26
 1053 50 1053 50 1028 25 c 128,-1,27
 1003 0 1003 0 969 0 c 2,28,-1
 205 0 l 1,29,-1
 205 111 l 1,30,-1
 821 1159 l 1,31,-1
 287 1159 l 2,32,33
 253 1159 253 1159 229 1184.5 c 128,-1,34
 205 1210 205 1210 205 1245 c 0,35,36
 205 1279 205 1279 229 1304 c 128,-1,37
 253 1329 253 1329 287 1329 c 2,18,-1
EndSplineSet
EndChar

StartChar: zdotaccent
Encoding: 380 380 119
Width: 1237
Flags: W
LayerCount: 2
Fore
SplineSet
670 1118 m 2,0,1
 670 1084 670 1084 646 1058 c 0,2,3
 625 1036 625 1036 586 1036 c 0,4,5
 542 1036 542 1036 527 1061 c 0,6,7
 503 1100 503 1100 503 1118 c 2,8,-1
 503 1167 l 2,9,10
 503 1202 503 1202 527 1226 c 0,11,12
 550 1251 550 1251 586 1251 c 0,13,14
 623 1252 623 1252 646 1226 c 0,15,16
 670 1200 670 1200 670 1167 c 2,17,-1
 670 1118 l 2,0,1
1055 881 m 2,18,-1
 1055 813 l 2,19,20
 1055 773 1055 773 1026 745 c 2,21,-1
 430 168 l 1,22,-1
 969 168 l 2,23,24
 1004 168 1004 168 1028.5 143.5 c 128,-1,25
 1053 119 1053 119 1053 84 c 256,26,27
 1053 49 1053 49 1028.5 24.5 c 128,-1,28
 1004 0 1004 0 969 0 c 2,29,-1
 293 0 l 2,30,31
 257 0 257 0 232 24.5 c 128,-1,32
 207 49 207 49 207 84 c 2,33,-1
 207 156 l 2,34,35
 207 192 207 192 252 236 c 2,36,-1
 836 797 l 1,37,-1
 332 797 l 2,38,39
 297 797 297 797 272.5 822 c 128,-1,40
 248 847 248 847 248 883 c 0,41,42
 248 916 248 916 273 941.5 c 128,-1,43
 298 967 298 967 332 967 c 2,44,-1
 971 967 l 2,45,46
 1006 967 1006 967 1030.5 941.5 c 128,-1,47
 1055 916 1055 916 1055 881 c 2,18,-1
EndSplineSet
EndChar

StartChar: longs
Encoding: 383 383 120
Width: 1237
Flags: W
LayerCount: 2
Fore
SplineSet
592 965 m 1,0,-1
 592 1030 l 1,1,2
 592 1030 592 1030 632 1094 c 0,3,4
 671 1159 671 1159 731 1159 c 2,5,-1
 928 1159 l 2,6,7
 962 1159 962 1159 987 1184 c 128,-1,8
 1012 1209 1012 1209 1012 1243 c 0,9,10
 1012 1279 1012 1279 987.5 1304 c 128,-1,11
 963 1329 963 1329 928 1329 c 2,12,-1
 731 1329 l 2,13,14
 599 1329 599 1329 510.5 1244 c 128,-1,15
 422 1159 422 1159 422 1030 c 2,16,-1
 422 965 l 1,17,-1
 334 965 l 2,18,19
 295 965 295 965 272.5 939.5 c 128,-1,20
 250 914 250 914 250 881 c 0,21,22
 250 847 250 847 274.5 822 c 128,-1,23
 299 797 299 797 334 797 c 2,24,-1
 420 797 l 1,25,-1
 420 84 l 2,26,27
 420 49 420 49 445 24.5 c 128,-1,28
 470 0 470 0 506 0 c 0,29,30
 540 0 540 0 565 25 c 0,31,32
 590 49 590 49 590 84 c 2,33,-1
 592 965 l 1,0,-1
EndSplineSet
EndChar

StartChar: uni0218
Encoding: 536 536 121
Width: 1237
Flags: W
LayerCount: 2
Fore
SplineSet
684 -282 m 2,0,1
 684 -316 684 -316 660 -342 c 0,2,3
 636 -366 636 -366 600 -366 c 0,4,5
 565 -366 565 -366 541 -342 c 0,6,7
 517 -316 517 -316 517 -282 c 2,8,-1
 517 -139 l 2,9,10
 517 -104 517 -104 541 -80 c 0,11,12
 564 -56 564 -56 600 -55 c 0,13,14
 632 -54 632 -54 656 -80 c 0,15,16
 684 -108 684 -108 684 -139 c 2,17,-1
 684 -282 l 2,0,1
397 1329 m 2,18,-1
 834 1329 l 2,19,20
 914 1329 914 1329 985.5 1261.5 c 128,-1,21
 1057 1194 1057 1194 1057 1098 c 0,22,23
 1057 1062 1057 1062 1031.5 1037 c 128,-1,24
 1006 1012 1006 1012 975 1012 c 0,25,26
 932 1012 932 1012 916 1031.5 c 128,-1,27
 900 1051 900 1051 885.5 1104 c 128,-1,28
 871 1157 871 1157 821 1157 c 2,29,-1
 406 1157 l 2,30,31
 376 1157 376 1157 376 1138 c 0,32,33
 376 1126 376 1126 389 1110 c 2,34,-1
 1012 313 l 2,35,36
 1057 255 1057 255 1057 189 c 0,37,38
 1057 114 1057 114 1002.5 57 c 128,-1,39
 948 0 948 0 881 0 c 2,40,-1
 428 0 l 2,41,42
 338 0 338 0 271.5 68.5 c 128,-1,43
 205 137 205 137 205 219 c 0,44,45
 205 313 205 313 293 313 c 0,46,47
 327 313 327 313 351 288.5 c 128,-1,48
 375 264 375 264 375 231 c 0,49,50
 375 204 375 204 393.5 186 c 128,-1,51
 412 168 412 168 440 168 c 2,52,-1
 858 168 l 2,53,54
 885 168 885 168 885 189 c 0,55,56
 885 199 885 199 872 215 c 2,57,-1
 250 1012 l 2,58,59
 206 1069 206 1069 206 1136 c 0,60,61
 206 1214 206 1214 262 1271.5 c 128,-1,62
 318 1329 318 1329 397 1329 c 2,18,-1
EndSplineSet
EndChar

StartChar: uni0219
Encoding: 537 537 122
Width: 1237
Flags: W
LayerCount: 2
Fore
SplineSet
684 -282 m 2,0,1
 684 -316 684 -316 660 -342 c 0,2,3
 636 -366 636 -366 600 -366 c 0,4,5
 565 -366 565 -366 541 -342 c 0,6,7
 517 -316 517 -316 517 -282 c 2,8,-1
 517 -139 l 2,9,10
 517 -104 517 -104 541 -80 c 0,11,12
 564 -56 564 -56 600 -55 c 0,13,14
 632 -54 632 -54 656 -80 c 0,15,16
 684 -108 684 -108 684 -139 c 2,17,-1
 684 -282 l 2,0,1
442 965 m 2,18,-1
 827 965 l 2,19,20
 917 965 917 965 986 911.5 c 128,-1,21
 1055 858 1055 858 1055 807 c 0,22,23
 1055 771 1055 771 1029.5 748 c 128,-1,24
 1004 725 1004 725 973 725 c 0,25,26
 933 725 933 725 900 761 c 128,-1,27
 867 797 867 797 831 797 c 2,28,-1
 451 797 l 2,29,30
 395 797 395 797 395 750 c 0,31,32
 395 717 395 717 432 700 c 2,33,-1
 879 502 l 2,34,35
 947 472 947 472 990.5 405.5 c 128,-1,36
 1034 339 1034 339 1034 258 c 0,37,38
 1034 150 1034 150 957.5 75 c 128,-1,39
 881 0 881 0 784 0 c 2,40,-1
 444 0 l 2,41,42
 356 0 356 0 280.5 53 c 128,-1,43
 205 106 205 106 205 156 c 0,44,45
 205 189 205 189 229.5 214.5 c 128,-1,46
 254 240 254 240 293 240 c 0,47,48
 325 240 325 240 361.5 204 c 128,-1,49
 398 168 398 168 467 168 c 2,50,-1
 780 168 l 2,51,52
 817 168 817 168 842 196.5 c 128,-1,53
 867 225 867 225 867 262 c 0,54,55
 867 319 867 319 811 344 c 2,56,-1
 360 547 l 2,57,58
 295 576 295 576 260 631 c 128,-1,59
 225 686 225 686 225 743 c 0,60,61
 225 833 225 833 287.5 899 c 128,-1,62
 350 965 350 965 442 965 c 2,18,-1
EndSplineSet
EndChar

StartChar: uni021A
Encoding: 538 538 123
Width: 1237
Flags: W
LayerCount: 2
Fore
SplineSet
708 -282 m 2,0,1
 708 -316 708 -316 684 -342 c 0,2,3
 660 -366 660 -366 624 -366 c 0,4,5
 589 -366 589 -366 565 -342 c 0,6,7
 541 -316 541 -316 541 -282 c 2,8,-1
 541 -139 l 2,9,10
 541 -104 541 -104 565 -80 c 0,11,12
 588 -56 588 -56 624 -55 c 0,13,14
 656 -54 656 -54 680 -80 c 0,15,16
 708 -108 708 -108 708 -139 c 2,17,-1
 708 -282 l 2,0,1
205 1100 m 2,18,-1
 205 1327 l 1,19,-1
 1053 1327 l 1,20,-1
 1053 1098 l 2,21,22
 1053 1063 1053 1063 1028 1038.5 c 128,-1,23
 1003 1014 1003 1014 969 1014 c 0,24,25
 934 1014 934 1014 908.5 1039 c 128,-1,26
 883 1064 883 1064 883 1098 c 2,27,-1
 883 1159 l 1,28,-1
 713 1159 l 1,29,-1
 713 84 l 2,30,31
 713 49 713 49 688 24.5 c 128,-1,32
 663 0 663 0 629 0 c 0,33,34
 593 0 593 0 568 24.5 c 128,-1,35
 543 49 543 49 543 84 c 2,36,-1
 543 1159 l 1,37,-1
 373 1159 l 1,38,-1
 373 1100 l 2,39,40
 373 1065 373 1065 348.5 1040.5 c 128,-1,41
 324 1016 324 1016 289 1016 c 256,42,43
 254 1016 254 1016 229.5 1040.5 c 128,-1,44
 205 1065 205 1065 205 1100 c 2,18,-1
EndSplineSet
EndChar

StartChar: uni021B
Encoding: 539 539 124
Width: 1237
Flags: W
LayerCount: 2
Fore
SplineSet
770 -282 m 2,0,1
 770 -316 770 -316 746 -342 c 0,2,3
 722 -366 722 -366 686 -366 c 0,4,5
 651 -366 651 -366 627 -342 c 0,6,7
 603 -316 603 -316 603 -282 c 2,8,-1
 603 -139 l 2,9,10
 603 -104 603 -104 627 -80 c 0,11,12
 650 -56 650 -56 686 -55 c 0,13,14
 718 -54 718 -54 742 -80 c 0,15,16
 770 -108 770 -108 770 -139 c 2,17,-1
 770 -282 l 2,0,1
797 0 m 2,18,-1
 629 0 l 2,19,20
 525 0 525 0 450 74 c 128,-1,21
 375 148 375 148 375 252 c 2,22,-1
 375 797 l 1,23,-1
 289 797 l 2,24,25
 254 797 254 797 229.5 821 c 128,-1,26
 205 845 205 845 205 881 c 0,27,28
 205 916 205 916 229.5 940.5 c 128,-1,29
 254 965 254 965 289 965 c 2,30,-1
 377 965 l 1,31,-1
 377 1171 l 2,32,33
 377 1206 377 1206 401.5 1230.5 c 128,-1,34
 426 1255 426 1255 461 1255 c 0,35,36
 494 1255 494 1255 519.5 1230 c 128,-1,37
 545 1205 545 1205 545 1171 c 2,38,-1
 545 965 l 1,39,-1
 883 965 l 2,40,41
 917 965 917 965 942 940 c 128,-1,42
 967 915 967 915 967 881 c 0,43,44
 967 846 967 846 942 821.5 c 128,-1,45
 917 797 917 797 883 797 c 2,46,-1
 543 797 l 1,47,-1
 543 252 l 2,48,49
 543 218 543 218 568.5 193 c 128,-1,50
 594 168 594 168 629 168 c 2,51,-1
 793 168 l 2,52,53
 860 168 860 168 882 240.5 c 128,-1,54
 904 313 904 313 967 313 c 0,55,56
 1004 313 1004 313 1027.5 288.5 c 128,-1,57
 1051 264 1051 264 1051 227 c 0,58,59
 1051 151 1051 151 979.5 75.5 c 128,-1,60
 908 0 908 0 797 0 c 2,18,-1
EndSplineSet
EndChar

StartChar: circumflex
Encoding: 710 710 125
Width: 1237
Flags: W
LayerCount: 2
Fore
SplineSet
627 1151 m 1,0,-1
 357 1026 l 2,1,2
 340 1018 340 1018 321 1018 c 0,3,4
 285 1018 285 1018 261.5 1044.5 c 128,-1,5
 238 1071 238 1071 238 1104 c 0,6,7
 238 1158 238 1158 285 1180 c 2,8,-1
 591 1321 l 2,9,10
 611 1329 611 1329 627 1329 c 0,11,12
 647 1329 647 1329 664 1321 c 2,13,-1
 970 1180 l 2,14,15
 1017 1156 1017 1156 1017 1104 c 0,16,17
 1017 1071 1017 1071 993.5 1044.5 c 128,-1,18
 970 1018 970 1018 934 1018 c 0,19,20
 916 1018 916 1018 898 1026 c 2,21,-1
 627 1151 l 1,0,-1
EndSplineSet
EndChar

StartChar: caron
Encoding: 711 711 126
Width: 1237
Flags: W
LayerCount: 2
Fore
SplineSet
627 1196 m 1,0,-1
 898 1321 l 2,1,2
 915 1329 915 1329 934 1329 c 0,3,4
 970 1329 970 1329 993.5 1302.5 c 128,-1,5
 1017 1276 1017 1276 1017 1243 c 0,6,7
 1017 1189 1017 1189 970 1167 c 2,8,-1
 664 1026 l 2,9,10
 644 1018 644 1018 627 1018 c 0,11,12
 608 1018 608 1018 591 1026 c 2,13,-1
 285 1167 l 2,14,15
 238 1191 238 1191 238 1243 c 0,16,17
 238 1276 238 1276 261.5 1302.5 c 128,-1,18
 285 1329 285 1329 321 1329 c 0,19,20
 339 1329 339 1329 357 1321 c 2,21,-1
 627 1196 l 1,0,-1
EndSplineSet
EndChar

StartChar: macron
Encoding: 713 713 127
Width: 1237
Flags: W
LayerCount: 2
Fore
SplineSet
889 1329 m 2,0,1
 924 1329 924 1329 949.5 1304.5 c 128,-1,2
 975 1280 975 1280 975 1245 c 256,3,4
 975 1210 975 1210 949.5 1185.5 c 128,-1,5
 924 1161 924 1161 889 1161 c 2,6,-1
 369 1161 l 2,7,8
 335 1161 335 1161 310 1186 c 128,-1,9
 285 1211 285 1211 285 1245 c 0,10,11
 285 1280 285 1280 310 1304.5 c 128,-1,12
 335 1329 335 1329 369 1329 c 2,13,-1
 889 1329 l 2,0,1
EndSplineSet
EndChar

StartChar: breve
Encoding: 728 728 128
Width: 1237
Flags: W
LayerCount: 2
Fore
SplineSet
922 1329 m 0,0,1
 957 1329 957 1329 982.5 1307.5 c 128,-1,2
 1008 1286 1008 1286 1008 1257 c 0,3,4
 1008 1190 1008 1190 887 1104 c 128,-1,5
 766 1018 766 1018 618 1018 c 0,6,7
 471 1018 471 1018 350 1104 c 128,-1,8
 229 1190 229 1190 229 1257 c 0,9,10
 229 1286 229 1286 254.5 1307.5 c 128,-1,11
 280 1329 280 1329 315 1329 c 0,12,13
 356 1329 356 1329 381 1305 c 0,14,15
 490 1188 490 1188 618 1188 c 0,16,17
 747 1188 747 1188 856 1305 c 0,18,19
 881 1329 881 1329 922 1329 c 0,0,1
EndSplineSet
EndChar

StartChar: dotaccent
Encoding: 729 729 129
Width: 1237
Flags: W
LayerCount: 2
Fore
SplineSet
702 1102 m 2,0,1
 702 1067 702 1067 678 1042.5 c 128,-1,2
 654 1018 654 1018 618 1018 c 0,3,4
 583 1018 583 1018 559 1042.5 c 128,-1,5
 535 1067 535 1067 535 1102 c 2,6,-1
 535 1245 l 2,7,8
 535 1280 535 1280 559 1304.5 c 128,-1,9
 583 1329 583 1329 618 1329 c 0,10,11
 654 1329 654 1329 678 1304.5 c 128,-1,12
 702 1280 702 1280 702 1245 c 2,13,-1
 702 1102 l 2,0,1
EndSplineSet
EndChar

StartChar: ring
Encoding: 730 730 130
Width: 1237
Flags: W
LayerCount: 2
Fore
SplineSet
811 1165 m 2,0,1
 811 1109 811 1109 757.5 1060.5 c 128,-1,2
 704 1012 704 1012 647 1012 c 2,3,-1
 590 1012 l 2,4,5
 533 1012 533 1012 480.5 1060 c 128,-1,6
 428 1108 428 1108 428 1165 c 2,7,-1
 428 1239 l 2,8,9
 428 1296 428 1296 479.5 1344.5 c 128,-1,10
 531 1393 531 1393 590 1393 c 2,11,-1
 647 1393 l 2,12,13
 705 1393 705 1393 758 1344 c 128,-1,14
 811 1295 811 1295 811 1239 c 2,15,-1
 811 1165 l 2,0,1
700 1178 m 2,16,-1
 700 1227 l 2,17,18
 700 1246 700 1246 675.5 1264 c 128,-1,19
 651 1282 651 1282 641 1282 c 2,20,-1
 604 1282 l 2,21,22
 585 1282 585 1282 562 1262.5 c 128,-1,23
 539 1243 539 1243 539 1229 c 2,24,-1
 539 1178 l 2,25,26
 539 1158 539 1158 551 1149 c 2,27,-1
 575 1130 l 2,28,29
 584 1122 584 1122 598 1122 c 2,30,-1
 641 1122 l 2,31,32
 659 1122 659 1122 688 1153 c 1,33,34
 700 1157 700 1157 700 1178 c 2,16,-1
EndSplineSet
EndChar

StartChar: ogonek
Encoding: 731 731 131
Width: 1237
Flags: W
LayerCount: 2
Fore
SplineSet
522 -190 m 1,0,-1
 778 -190 l 2,1,2
 813 -190 813 -190 837.5 -215.5 c 128,-1,3
 862 -241 862 -241 862 -276 c 0,4,5
 862 -310 862 -310 837 -335 c 128,-1,6
 812 -360 812 -360 778 -360 c 2,7,-1
 438 -360 l 2,8,9
 403 -360 403 -360 378.5 -335 c 128,-1,10
 354 -310 354 -310 354 -274 c 2,11,-1
 354 0 l 1,12,-1
 522 0 l 1,13,-1
 522 -190 l 1,0,-1
EndSplineSet
EndChar

StartChar: tilde
Encoding: 732 732 132
Width: 1237
Flags: W
LayerCount: 2
Fore
SplineSet
1061 1171 m 2,0,-1
 909 1079 l 2,1,2
 881 1065 881 1065 864 1065 c 2,3,-1
 811 1065 l 2,4,5
 803 1065 803 1065 784 1071 c 2,6,-1
 528 1157 l 1,7,-1
 504 1157 l 1,8,-1
 377 1079 l 2,9,10
 354 1065 354 1065 330 1065 c 0,11,12
 296 1065 296 1065 271 1092 c 128,-1,13
 246 1119 246 1119 246 1154 c 0,14,15
 246 1198 246 1198 287 1223 c 2,16,-1
 438 1315 l 2,17,18
 457 1327 457 1327 483 1327 c 2,19,-1
 537 1327 l 2,20,21
 551 1327 551 1327 563 1323 c 2,22,-1
 825 1235 l 1,23,-1
 840 1235 l 1,24,-1
 971 1315 l 2,25,26
 994 1329 994 1329 1017 1329 c 0,27,28
 1052 1329 1052 1329 1077 1302 c 128,-1,29
 1102 1275 1102 1275 1102 1240 c 0,30,31
 1102 1196 1102 1196 1061 1171 c 2,0,-1
EndSplineSet
EndChar

StartChar: hungarumlaut
Encoding: 733 733 133
Width: 1237
Flags: W
LayerCount: 2
Fore
SplineSet
946 1188 m 2,0,-1
 798 1040 l 2,1,2
 774 1016 774 1016 739 1016 c 256,3,4
 704 1016 704 1016 679.5 1040.5 c 128,-1,5
 655 1065 655 1065 655 1100 c 256,6,7
 655 1135 655 1135 679 1159 c 2,8,-1
 827 1307 l 2,9,10
 851 1331 851 1331 886 1331 c 256,11,12
 921 1331 921 1331 945.5 1306.5 c 128,-1,13
 970 1282 970 1282 970 1247 c 256,14,15
 970 1212 970 1212 946 1188 c 2,0,-1
606 1188 m 2,16,-1
 458 1040 l 2,17,18
 434 1016 434 1016 399 1016 c 256,19,20
 364 1016 364 1016 339.5 1040.5 c 128,-1,21
 315 1065 315 1065 315 1100 c 256,22,23
 315 1135 315 1135 339 1159 c 2,24,-1
 487 1307 l 2,25,26
 511 1331 511 1331 546 1331 c 256,27,28
 581 1331 581 1331 605.5 1306.5 c 128,-1,29
 630 1282 630 1282 630 1247 c 256,30,31
 630 1212 630 1212 606 1188 c 2,16,-1
EndSplineSet
EndChar

StartChar: quotereversed
Encoding: 8219 8219 134
Width: 1237
Flags: W
LayerCount: 2
Fore
SplineSet
522 1159 m 1,0,-1
 778 1159 l 2,1,2
 813 1159 813 1159 837.5 1184.5 c 128,-1,3
 862 1210 862 1210 862 1245 c 0,4,5
 862 1279 862 1279 837 1304 c 128,-1,6
 812 1329 812 1329 778 1329 c 2,7,-1
 438 1329 l 2,8,9
 403 1329 403 1329 378.5 1303.5 c 128,-1,10
 354 1278 354 1278 354 1243 c 2,11,-1
 354 807 l 2,12,13
 354 772 354 772 378.5 747.5 c 128,-1,14
 403 723 403 723 438 723 c 256,15,16
 473 723 473 723 497.5 747.5 c 128,-1,17
 522 772 522 772 522 807 c 2,18,-1
 522 1159 l 1,0,-1
EndSplineSet
EndChar

StartChar: uni201F
Encoding: 8223 8223 135
Width: 1237
Flags: W
LayerCount: 2
Fore
SplineSet
907 1159 m 1,0,-1
 993 1159 l 2,1,2
 1028 1159 1028 1159 1052.5 1184.5 c 128,-1,3
 1077 1210 1077 1210 1077 1245 c 0,4,5
 1077 1279 1077 1279 1052 1304 c 128,-1,6
 1027 1329 1027 1329 993 1329 c 2,7,-1
 823 1329 l 2,8,9
 788 1329 788 1329 763.5 1303.5 c 128,-1,10
 739 1278 739 1278 739 1243 c 2,11,-1
 739 807 l 2,12,13
 739 772 739 772 763.5 747.5 c 128,-1,14
 788 723 788 723 823 723 c 256,15,16
 858 723 858 723 882.5 747.5 c 128,-1,17
 907 772 907 772 907 807 c 2,18,-1
 907 1159 l 1,0,-1
397 1159 m 1,19,-1
 483 1159 l 2,20,21
 518 1159 518 1159 542.5 1184.5 c 128,-1,22
 567 1210 567 1210 567 1245 c 0,23,24
 567 1279 567 1279 542 1304 c 128,-1,25
 517 1329 517 1329 483 1329 c 2,26,-1
 313 1329 l 2,27,28
 278 1329 278 1329 253.5 1303.5 c 128,-1,29
 229 1278 229 1278 229 1243 c 2,30,-1
 229 807 l 2,31,32
 229 772 229 772 253.5 747.5 c 128,-1,33
 278 723 278 723 313 723 c 0,34,35
 349 723 349 723 373 747.5 c 128,-1,36
 397 772 397 772 397 807 c 2,37,-1
 397 1159 l 1,19,-1
EndSplineSet
EndChar

StartChar: uni2116
Encoding: 8470 8470 136
Width: 1474
Flags: W
LayerCount: 2
Fore
SplineSet
1389 321 m 2,0,1
 1419 321 1419 321 1441 304.5 c 128,-1,2
 1463 288 1463 288 1463 264 c 256,3,4
 1463 240 1463 240 1441 223.5 c 128,-1,5
 1419 207 1419 207 1389 207 c 2,6,-1
 1002 207 l 2,7,8
 973 207 973 207 951.5 223.5 c 128,-1,9
 930 240 930 240 930 264 c 0,10,11
 930 287 930 287 951.5 304 c 128,-1,12
 973 321 973 321 1002 321 c 2,13,-1
 1389 321 l 2,0,1
1435 779 m 2,14,-1
 1435 566 l 2,15,16
 1435 499 1435 499 1371 441 c 128,-1,17
 1307 383 1307 383 1239 383 c 2,18,-1
 1121 383 l 2,19,20
 1052 383 1052 383 989 441.5 c 128,-1,21
 926 500 926 500 926 566 c 2,22,-1
 926 779 l 2,23,24
 926 845 926 845 987.5 903.5 c 128,-1,25
 1049 962 1049 962 1121 962 c 2,26,-1
 1239 962 l 2,27,28
 1307 964 1307 964 1371 906 c 128,-1,29
 1435 848 1435 848 1435 779 c 2,14,-1
1028 775 m 2,30,-1
 1028 571 l 2,31,32
 1028 544 1028 544 1048 527 c 2,33,-1
 1086 495 l 2,34,35
 1098 484 1098 484 1121 484 c 2,36,-1
 1238 484 l 2,37,38
 1264 484 1264 484 1285 503 c 2,39,-1
 1316 530 l 2,40,41
 1334 544 1334 544 1334 570 c 2,42,-1
 1334 774 l 2,43,44
 1334 804 1334 804 1316 818 c 2,45,-1
 1280 847 l 2,46,47
 1262 862 1262 862 1238 862 c 2,48,-1
 1134 862 l 2,49,50
 1100 862 1100 862 1081 845 c 2,51,-1
 1047 816 l 2,52,53
 1028 800 1028 800 1028 775 c 2,30,-1
23 84 m 2,54,-1
 23 1245 l 2,55,56
 23 1279 23 1279 47.5 1304 c 128,-1,57
 72 1329 72 1329 107 1329 c 0,58,59
 141 1329 141 1329 166 1304 c 128,-1,60
 191 1279 191 1279 191 1245 c 2,61,-1
 191 750 l 1,62,-1
 703 750 l 1,63,-1
 703 1245 l 2,64,65
 703 1279 703 1279 727.5 1304 c 128,-1,66
 752 1329 752 1329 787 1329 c 256,67,68
 822 1329 822 1329 846.5 1304 c 128,-1,69
 871 1279 871 1279 871 1243 c 2,70,-1
 871 84 l 2,71,72
 871 50 871 50 845.5 25 c 128,-1,73
 820 0 820 0 787 0 c 0,74,75
 751 0 751 0 727 24.5 c 128,-1,76
 703 49 703 49 703 84 c 2,77,-1
 703 582 l 1,78,-1
 193 582 l 1,79,-1
 193 84 l 2,80,81
 193 50 193 50 167.5 25 c 128,-1,82
 142 0 142 0 107 0 c 0,83,84
 73 0 73 0 48 24.5 c 128,-1,85
 23 49 23 49 23 84 c 2,54,-1
EndSplineSet
EndChar

StartChar: lozenge
Encoding: 9674 9674 137
Width: 1237
Flags: W
LayerCount: 2
Fore
SplineSet
1059 666 m 1,0,-1
 700 61 l 2,1,2
 663 0 663 0 618 0 c 0,3,4
 571 0 571 0 535 61 c 2,5,-1
 176 664 l 1,6,-1
 535 1268 l 2,7,8
 571 1329 571 1329 618 1329 c 0,9,10
 664 1329 664 1329 700 1268 c 2,11,-1
 1059 666 l 1,0,-1
864 664 m 1,12,-1
 618 1073 l 1,13,-1
 373 666 l 1,14,-1
 618 256 l 1,15,-1
 864 664 l 1,12,-1
EndSplineSet
EndChar

StartChar: uniF000
Encoding: 61440 61440 138
Width: 1237
Flags: W
LayerCount: 2
Fore
SplineSet
961 502 m 2,0,1
 961 432 961 432 910.5 381 c 128,-1,2
 860 330 860 330 793 330 c 2,3,-1
 444 330 l 2,4,5
 378 330 378 330 329.5 380 c 128,-1,6
 281 430 281 430 281 498 c 2,7,-1
 281 793 l 2,8,9
 281 862 281 862 331 913.5 c 128,-1,10
 381 965 381 965 449 965 c 2,11,-1
 788 965 l 2,12,13
 859 965 859 965 910 914 c 128,-1,14
 961 863 961 863 961 793 c 2,15,-1
 961 502 l 2,0,1
EndSplineSet
EndChar

StartChar: uniF001
Encoding: 61441 61441 139
Width: 1237
Flags: W
LayerCount: 2
Fore
SplineSet
1053 84 m 2,0,1
 1053 49 1053 49 1028 24.5 c 128,-1,2
 1003 0 1003 0 969 0 c 0,3,4
 933 0 933 0 908 24.5 c 128,-1,5
 883 49 883 49 883 84 c 2,6,-1
 883 797 l 1,7,-1
 375 797 l 1,8,-1
 375 84 l 2,9,10
 375 49 375 49 350 24.5 c 128,-1,11
 325 0 325 0 291 0 c 0,12,13
 255 0 255 0 230 24.5 c 128,-1,14
 205 49 205 49 205 84 c 2,15,-1
 205 797 l 1,16,-1
 119 797 l 2,17,18
 84 797 84 797 59.5 822 c 128,-1,19
 35 847 35 847 35 881 c 0,20,21
 35 914 35 914 57.5 939.5 c 128,-1,22
 80 965 80 965 119 965 c 2,23,-1
 207 965 l 1,24,-1
 207 1030 l 2,25,26
 207 1159 207 1159 295.5 1244 c 128,-1,27
 384 1329 384 1329 516 1329 c 2,28,-1
 713 1329 l 2,29,30
 748 1329 748 1329 772.5 1304 c 128,-1,31
 797 1279 797 1279 797 1243 c 0,32,33
 797 1209 797 1209 772 1184 c 128,-1,34
 747 1159 747 1159 713 1159 c 2,35,-1
 516 1159 l 2,36,37
 456 1159 456 1159 416.5 1123 c 128,-1,38
 377 1087 377 1087 377 1030 c 2,39,-1
 377 965 l 1,40,-1
 969 965 l 2,41,42
 1004 965 1004 965 1028.5 939.5 c 128,-1,43
 1053 914 1053 914 1053 879 c 2,44,-1
 1053 84 l 2,0,1
EndSplineSet
EndChar

StartChar: uniF002
Encoding: 61442 61442 140
Width: 1237
Flags: W
LayerCount: 2
Fore
SplineSet
1053 84 m 2,0,1
 1053 49 1053 49 1028 24.5 c 128,-1,2
 1003 0 1003 0 969 0 c 0,3,4
 933 0 933 0 908 24.5 c 128,-1,5
 883 49 883 49 883 84 c 2,6,-1
 883 1159 l 1,7,-1
 516 1159 l 2,8,9
 456 1159 456 1159 416.5 1123 c 128,-1,10
 377 1087 377 1087 377 1030 c 2,11,-1
 377 965 l 1,12,-1
 545 965 l 2,13,14
 579 966 579 966 604 941 c 128,-1,15
 629 916 629 916 629 881 c 0,16,17
 629 847 629 847 604 822 c 128,-1,18
 579 797 579 797 545 797 c 2,19,-1
 375 797 l 1,20,-1
 375 84 l 2,21,22
 375 49 375 49 350 24.5 c 128,-1,23
 325 0 325 0 291 0 c 0,24,25
 255 0 255 0 230 24.5 c 128,-1,26
 205 49 205 49 205 84 c 2,27,-1
 205 797 l 1,28,-1
 119 797 l 2,29,30
 84 797 84 797 59.5 822 c 128,-1,31
 35 847 35 847 35 881 c 0,32,33
 35 914 35 914 57.5 939.5 c 128,-1,34
 80 965 80 965 119 965 c 2,35,-1
 207 965 l 1,36,-1
 207 1030 l 2,37,38
 207 1159 207 1159 295.5 1244 c 128,-1,39
 384 1329 384 1329 516 1329 c 2,40,-1
 969 1329 l 2,41,42
 1003 1329 1003 1329 1028 1304 c 128,-1,43
 1053 1279 1053 1279 1053 1245 c 2,44,-1
 1053 84 l 2,0,1
EndSplineSet
EndChar

StartChar: uniF003
Encoding: 61443 61443 141
Width: 1237
Flags: W
LayerCount: 2
Fore
SplineSet
901 841 m 2,0,-1
 881 841 l 1,1,-1
 881 768 l 2,2,3
 881 734 881 734 859.5 714 c 128,-1,4
 838 694 838 694 807 694 c 256,5,6
 776 694 776 694 754.5 714 c 128,-1,7
 733 734 733 734 733 768 c 2,8,-1
 733 841 l 1,9,-1
 469 841 l 2,10,11
 395 841 395 841 395 915 c 2,12,-1
 395 1255 l 2,13,14
 395 1289 395 1289 416.5 1309 c 128,-1,15
 438 1329 438 1329 469 1329 c 256,16,17
 500 1329 500 1329 521.5 1309 c 128,-1,18
 543 1289 543 1289 543 1255 c 2,19,-1
 543 989 l 1,20,-1
 733 989 l 1,21,-1
 733 1235 l 2,22,23
 733 1268 733 1268 754.5 1288 c 128,-1,24
 776 1308 776 1308 807 1308 c 256,25,26
 838 1308 838 1308 859.5 1288 c 128,-1,27
 881 1268 881 1268 881 1235 c 2,28,-1
 881 989 l 1,29,-1
 901 989 l 2,30,31
 935 989 935 989 955 967.5 c 128,-1,32
 975 946 975 946 975 915 c 256,33,34
 975 884 975 884 955 862.5 c 128,-1,35
 935 841 935 841 901 841 c 2,0,-1
EndSplineSet
EndChar

StartChar: uni0415
Encoding: 1045 1045 142
Width: 1237
Flags: W
LayerCount: 2
Fore
SplineSet
969 1159 m 2,0,-1
 375 1159 l 1,1,-1
 375 750 l 1,2,-1
 631 750 l 2,3,4
 665 750 665 750 690 725 c 128,-1,5
 715 700 715 700 715 666 c 0,6,7
 715 630 715 630 690.5 605 c 128,-1,8
 666 580 666 580 631 580 c 2,9,-1
 375 580 l 1,10,-1
 375 168 l 1,11,-1
 971 168 l 2,12,13
 1005 168 1005 168 1030 143.5 c 128,-1,14
 1055 119 1055 119 1055 84 c 256,15,16
 1055 49 1055 49 1029.5 24.5 c 128,-1,17
 1004 0 1004 0 969 0 c 2,18,-1
 207 0 l 1,19,-1
 207 1329 l 1,20,-1
 969 1329 l 2,21,22
 1004 1329 1004 1329 1029.5 1303.5 c 128,-1,23
 1055 1278 1055 1278 1055 1243 c 0,24,25
 1055 1209 1055 1209 1029.5 1184 c 128,-1,26
 1004 1159 1004 1159 969 1159 c 2,0,-1
EndSplineSet
EndChar

StartChar: uni041C
Encoding: 1052 1052 143
Width: 1237
Flags: W
LayerCount: 2
Fore
SplineSet
545 807 m 2,0,-1
 545 850 l 1,1,-1
 371 1098 l 1,2,-1
 371 84 l 2,3,4
 371 49 371 49 346.5 24.5 c 128,-1,5
 322 0 322 0 287 0 c 256,6,7
 252 0 252 0 227.5 25 c 128,-1,8
 203 50 203 50 203 84 c 2,9,-1
 203 1329 l 1,10,-1
 420 1329 l 1,11,-1
 627 1028 l 1,12,-1
 840 1329 l 1,13,-1
 1053 1329 l 1,14,-1
 1053 84 l 2,15,16
 1053 49 1053 49 1027.5 24.5 c 128,-1,17
 1002 0 1002 0 967 0 c 0,18,19
 933 0 933 0 908 25 c 128,-1,20
 883 50 883 50 883 84 c 2,21,-1
 883 1094 l 1,22,-1
 713 854 l 1,23,-1
 713 807 l 2,24,25
 713 773 713 773 688 748 c 128,-1,26
 663 723 663 723 629 723 c 0,27,28
 594 723 594 723 569.5 748 c 128,-1,29
 545 773 545 773 545 807 c 2,0,-1
EndSplineSet
EndChar

StartChar: uni041D
Encoding: 1053 1053 144
Width: 1237
Flags: W
LayerCount: 2
Fore
SplineSet
203 84 m 2,0,-1
 203 1245 l 2,1,2
 203 1279 203 1279 227.5 1304 c 128,-1,3
 252 1329 252 1329 287 1329 c 0,4,5
 321 1329 321 1329 346 1304 c 128,-1,6
 371 1279 371 1279 371 1245 c 2,7,-1
 371 750 l 1,8,-1
 883 750 l 1,9,-1
 883 1245 l 2,10,11
 883 1279 883 1279 907.5 1304 c 128,-1,12
 932 1329 932 1329 967 1329 c 256,13,14
 1002 1329 1002 1329 1026.5 1304 c 128,-1,15
 1051 1279 1051 1279 1051 1243 c 2,16,-1
 1051 84 l 2,17,18
 1051 50 1051 50 1025.5 25 c 128,-1,19
 1000 0 1000 0 967 0 c 0,20,21
 931 0 931 0 907 24.5 c 128,-1,22
 883 49 883 49 883 84 c 2,23,-1
 883 582 l 1,24,-1
 373 582 l 1,25,-1
 373 84 l 2,26,27
 373 50 373 50 347.5 25 c 128,-1,28
 322 0 322 0 287 0 c 0,29,30
 253 0 253 0 228 24.5 c 128,-1,31
 203 49 203 49 203 84 c 2,0,-1
EndSplineSet
EndChar

StartChar: uni0406
Encoding: 1030 1030 145
Width: 1237
Flags: W
LayerCount: 2
Fore
SplineSet
289 1329 m 2,0,-1
 969 1329 l 2,1,2
 1002 1329 1002 1329 1027.5 1304 c 128,-1,3
 1053 1279 1053 1279 1053 1245 c 0,4,5
 1053 1210 1053 1210 1028 1184.5 c 128,-1,6
 1003 1159 1003 1159 969 1159 c 2,7,-1
 715 1159 l 1,8,-1
 715 168 l 1,9,-1
 969 168 l 2,10,11
 1004 168 1004 168 1028.5 143.5 c 128,-1,12
 1053 119 1053 119 1053 84 c 256,13,14
 1053 49 1053 49 1028 24.5 c 128,-1,15
 1003 0 1003 0 969 0 c 2,16,-1
 289 0 l 2,17,18
 254 0 254 0 229.5 24.5 c 128,-1,19
 205 49 205 49 205 84 c 256,20,21
 205 119 205 119 229.5 143.5 c 128,-1,22
 254 168 254 168 289 168 c 2,23,-1
 547 168 l 1,24,-1
 547 1159 l 1,25,-1
 289 1159 l 2,26,27
 254 1159 254 1159 229.5 1184 c 128,-1,28
 205 1209 205 1209 205 1243 c 0,29,30
 205 1279 205 1279 229.5 1304 c 128,-1,31
 254 1329 254 1329 289 1329 c 2,0,-1
EndSplineSet
EndChar

StartChar: uni0418
Encoding: 1048 1048 146
Width: 1237
Flags: W
LayerCount: 2
Fore
SplineSet
207 1243 m 2,0,-1
 207 0 l 1,1,-1
 433 0 l 1,2,-1
 885 1032 l 1,3,-1
 885 84 l 2,4,5
 885 49 885 49 909.5 24.5 c 128,-1,6
 934 0 934 0 969 0 c 256,7,8
 1004 0 1004 0 1028.5 24.5 c 128,-1,9
 1053 49 1053 49 1053 84 c 2,10,-1
 1053 1329 l 1,11,-1
 830 1329 l 1,12,-1
 377 299 l 1,13,-1
 377 1243 l 2,14,15
 377 1278 377 1278 351.5 1303.5 c 128,-1,16
 326 1329 326 1329 291 1329 c 256,17,18
 256 1329 256 1329 231.5 1304 c 128,-1,19
 207 1279 207 1279 207 1243 c 2,0,-1
EndSplineSet
EndChar

StartChar: uni0412
Encoding: 1042 1042 147
Width: 1237
Flags: W
LayerCount: 2
Fore
SplineSet
1053 412 m 2,0,-1
 1053 338 l 2,1,2
 1053 199 1053 199 954.5 99.5 c 128,-1,3
 856 0 856 0 717 0 c 2,4,-1
 203 0 l 1,5,-1
 203 1329 l 1,6,-1
 717 1329 l 2,7,8
 856 1329 856 1329 954.5 1230 c 128,-1,9
 1053 1131 1053 1131 1053 991 c 2,10,-1
 1053 920 l 2,11,12
 1053 771 1053 771 938 666 c 1,13,14
 1053 559 1053 559 1053 412 c 2,0,-1
881 922 m 2,15,-1
 881 991 l 2,16,17
 881 1061 881 1061 831.5 1111 c 128,-1,18
 782 1161 782 1161 713 1161 c 2,19,-1
 371 1161 l 1,20,-1
 371 754 l 1,21,-1
 713 754 l 2,22,23
 781 754 781 754 831 803.5 c 128,-1,24
 881 853 881 853 881 922 c 2,15,-1
881 338 m 2,25,-1
 881 408 l 2,26,27
 881 478 881 478 831.5 528 c 128,-1,28
 782 578 782 578 713 578 c 2,29,-1
 373 578 l 1,30,-1
 373 170 l 1,31,-1
 713 170 l 2,32,33
 781 170 781 170 831 219.5 c 128,-1,34
 881 269 881 269 881 338 c 2,25,-1
EndSplineSet
EndChar

StartChar: uni0421
Encoding: 1057 1057 148
Width: 1237
Flags: W
LayerCount: 2
Fore
SplineSet
668 168 m 2,0,-1
 971 168 l 2,1,2
 1006 168 1006 168 1031.5 143.5 c 128,-1,3
 1057 119 1057 119 1057 84 c 256,4,5
 1057 49 1057 49 1031.5 24.5 c 128,-1,6
 1006 0 1006 0 971 0 c 2,7,-1
 657 0 l 2,8,9
 597 0 597 0 533 38 c 128,-1,10
 469 76 469 76 444 123 c 2,11,-1
 250 498 l 2,12,13
 211 579 211 579 211 664 c 0,14,15
 211 758 211 758 248 827 c 2,16,-1
 444 1198 l 2,17,18
 472 1250 472 1250 531 1289.5 c 128,-1,19
 590 1329 590 1329 645 1329 c 2,20,-1
 977 1329 l 2,21,22
 1012 1329 1012 1329 1036.5 1304 c 128,-1,23
 1061 1279 1061 1279 1061 1245 c 0,24,25
 1061 1210 1061 1210 1036.5 1184.5 c 128,-1,26
 1012 1159 1012 1159 977 1159 c 2,27,-1
 657 1159 l 2,28,29
 617 1159 617 1159 592 1112 c 2,30,-1
 406 764 l 2,31,32
 384 723 384 723 384 667 c 0,33,34
 384 608 384 608 408 563 c 2,35,-1
 586 221 l 2,36,37
 611 168 611 168 668 168 c 2,0,-1
EndSplineSet
EndChar

StartChar: uni042D
Encoding: 1069 1069 149
Width: 1237
Flags: W
LayerCount: 2
Fore
SplineSet
897 579 m 1,0,-1
 526 579 l 2,1,-1
 467 604 l 0,2,3
 442 614 442 614 442 663 c 0,4,5
 442 699 442 699 466.5 724 c 128,-1,6
 491 749 491 749 526 749 c 1,7,-1
 899 749 l 1,8,-1
 897 579 l 1,0,-1
604 1161 m 2,9,-1
 301 1161 l 2,10,11
 266 1161 266 1161 240.5 1185.5 c 128,-1,12
 215 1210 215 1210 215 1245 c 256,13,14
 215 1280 215 1280 240.5 1304.5 c 128,-1,15
 266 1329 266 1329 301 1329 c 2,16,-1
 615 1329 l 2,17,18
 675 1329 675 1329 739 1291 c 128,-1,19
 803 1253 803 1253 828 1206 c 2,20,-1
 1022 831 l 2,21,22
 1061 750 1061 750 1061 665 c 0,23,24
 1061 571 1061 571 1024 502 c 2,25,-1
 828 131 l 2,26,27
 800 79 800 79 741 39.5 c 128,-1,28
 682 0 682 0 627 0 c 2,29,-1
 295 0 l 2,30,31
 260 0 260 0 235.5 25 c 128,-1,32
 211 50 211 50 211 84 c 0,33,34
 211 119 211 119 235.5 144.5 c 128,-1,35
 260 170 260 170 295 170 c 2,36,-1
 615 170 l 2,37,38
 655 170 655 170 680 217 c 2,39,-1
 866 565 l 2,40,41
 888 606 888 606 888 662 c 0,42,43
 888 721 888 721 864 766 c 2,44,-1
 686 1108 l 2,45,46
 661 1161 661 1161 604 1161 c 2,9,-1
EndSplineSet
EndChar

StartChar: uni0422
Encoding: 1058 1058 150
Width: 1237
Flags: W
LayerCount: 2
Fore
SplineSet
205 1100 m 2,0,-1
 205 1327 l 1,1,-1
 1053 1327 l 1,2,-1
 1053 1098 l 2,3,4
 1053 1063 1053 1063 1028 1038.5 c 128,-1,5
 1003 1014 1003 1014 969 1014 c 0,6,7
 934 1014 934 1014 908.5 1039 c 128,-1,8
 883 1064 883 1064 883 1098 c 2,9,-1
 883 1159 l 1,10,-1
 713 1159 l 1,11,-1
 713 84 l 2,12,13
 713 49 713 49 688 24.5 c 128,-1,14
 663 0 663 0 629 0 c 0,15,16
 593 0 593 0 568 24.5 c 128,-1,17
 543 49 543 49 543 84 c 2,18,-1
 543 1159 l 1,19,-1
 373 1159 l 1,20,-1
 373 1100 l 2,21,22
 373 1065 373 1065 348.5 1040.5 c 128,-1,23
 324 1016 324 1016 289 1016 c 256,24,25
 254 1016 254 1016 229.5 1040.5 c 128,-1,26
 205 1065 205 1065 205 1100 c 2,0,-1
EndSplineSet
EndChar

StartChar: uni0423
Encoding: 1059 1059 151
Width: 1237
Flags: W
LayerCount: 2
Fore
SplineSet
717 637 m 1,0,-1
 717 84 l 2,1,2
 717 49 717 49 692 24.5 c 128,-1,3
 667 0 667 0 633 0 c 0,4,5
 597 0 597 0 572 24.5 c 128,-1,6
 547 49 547 49 547 84 c 2,7,-1
 547 637 l 1,8,-1
 209 1065 l 1,9,-1
 209 1243 l 2,10,11
 209 1279 209 1279 233.5 1304 c 128,-1,12
 258 1329 258 1329 293 1329 c 256,13,14
 328 1329 328 1329 353.5 1303.5 c 128,-1,15
 379 1278 379 1278 379 1243 c 2,16,-1
 379 1128 l 1,17,-1
 631 803 l 1,18,-1
 887 1126 l 1,19,-1
 887 1243 l 2,20,21
 887 1278 887 1278 912 1303.5 c 128,-1,22
 937 1329 937 1329 971 1329 c 0,23,24
 1004 1329 1004 1329 1029.5 1305.5 c 128,-1,25
 1055 1282 1055 1282 1055 1243 c 2,26,-1
 1055 1067 l 1,27,-1
 717 637 l 1,0,-1
EndSplineSet
EndChar

StartChar: uni0410
Encoding: 1040 1040 152
Width: 1237
Flags: W
LayerCount: 2
Fore
SplineSet
212 117 m 2,0,-1
 552 1266 l 2,1,2
 572 1329 572 1329 636 1329 c 0,3,4
 698 1329 698 1329 714 1276 c 2,5,-1
 1049 109 l 2,6,7
 1053 96 1053 96 1053 84 c 0,8,9
 1053 49 1053 49 1029 24.5 c 128,-1,10
 1005 0 1005 0 974 0 c 0,11,12
 908 0 908 0 890 61 c 2,13,-1
 822 289 l 1,14,-1
 439 289 l 1,15,-1
 365 45 l 2,16,17
 362 29 362 29 340 14.5 c 128,-1,18
 318 0 318 0 292 0 c 0,19,20
 255 0 255 0 231 25 c 128,-1,21
 207 50 207 50 207 86 c 0,22,23
 207 101 207 101 212 117 c 2,0,-1
634 940 m 1,24,-1
 490 459 l 1,25,-1
 773 459 l 1,26,-1
 634 940 l 1,24,-1
EndSplineSet
EndChar

StartChar: uni0430
Encoding: 1072 1072 153
Width: 1237
Flags: W
LayerCount: 2
Fore
SplineSet
457 606 m 2,0,-1
 786 606 l 2,1,2
 813 606 813 606 864 594 c 1,3,-1
 862 713 l 2,4,5
 862 748 862 748 837.5 772.5 c 128,-1,6
 813 797 813 797 778 797 c 2,7,-1
 459 797 l 2,8,9
 425 797 425 797 400 822 c 128,-1,10
 375 847 375 847 375 881 c 0,11,12
 375 916 375 916 399.5 940.5 c 128,-1,13
 424 965 424 965 459 965 c 2,14,-1
 778 965 l 2,15,16
 882 965 882 965 955.5 892 c 128,-1,17
 1029 819 1029 819 1032 713 c 2,18,-1
 1053 84 l 2,19,20
 1053 49 1053 49 1028 24.5 c 128,-1,21
 1003 0 1003 0 969 0 c 0,22,23
 933 0 933 0 908 24.5 c 128,-1,24
 883 49 883 49 883 84 c 1,25,-1
 741 0 l 1,26,-1
 457 0 l 2,27,28
 351 0 351 0 277 74 c 128,-1,29
 203 148 203 148 203 254 c 2,30,-1
 203 352 l 2,31,32
 203 457 203 457 277.5 531.5 c 128,-1,33
 352 606 352 606 457 606 c 2,0,-1
877 279 m 1,34,-1
 872 350 l 2,35,36
 871 386 871 386 847 410 c 128,-1,37
 823 434 823 434 788 434 c 2,38,-1
 457 434 l 2,39,40
 422 434 422 434 397.5 409.5 c 128,-1,41
 373 385 373 385 373 350 c 2,42,-1
 373 256 l 2,43,44
 373 222 373 222 398 197 c 128,-1,45
 423 172 423 172 457 172 c 2,46,-1
 694 172 l 1,47,-1
 877 279 l 1,34,-1
EndSplineSet
EndChar

StartChar: uni0400
Encoding: 1024 1024 154
Width: 1237
Flags: W
LayerCount: 2
Fore
SplineSet
807 1544 m 2,0,1
 854 1520 854 1520 854 1468 c 0,2,3
 854 1435 854 1435 831 1408.5 c 0,4,5
 808 1382 808 1382 772 1382 c 0,6,7
 753 1382 753 1382 735 1390 c 2,8,-1
 430 1531 l 2,9,10
 383 1555 383 1555 383 1607 c 0,11,12
 383 1640 383 1640 406 1666.5 c 0,13,14
 429 1693 429 1693 465 1693 c 0,15,16
 484 1693 484 1693 502 1685 c 2,17,-1
 807 1544 l 2,0,1
969 1159 m 2,18,-1
 375 1159 l 1,19,-1
 375 750 l 1,20,-1
 631 750 l 2,21,22
 665 750 665 750 690 725 c 0,23,24
 715 700 715 700 715 666 c 0,25,26
 715 630 715 630 690.5 605 c 0,27,28
 666 580 666 580 631 580 c 2,29,-1
 375 580 l 1,30,-1
 375 168 l 1,31,-1
 971 168 l 2,32,33
 1005 168 1005 168 1030 143.5 c 0,34,35
 1055 119 1055 119 1055 84 c 256,36,37
 1055 49 1055 49 1029.5 24.5 c 0,38,39
 1004 0 1004 0 969 0 c 2,40,-1
 207 0 l 1,41,-1
 207 1329 l 1,42,-1
 969 1329 l 2,43,44
 1004 1329 1004 1329 1029.5 1303.5 c 0,45,46
 1055 1278 1055 1278 1055 1243 c 0,47,48
 1055 1209 1055 1209 1029.5 1184 c 0,49,50
 1004 1159 1004 1159 969 1159 c 2,18,-1
EndSplineSet
EndChar

StartChar: uni0401
Encoding: 1025 1025 155
Width: 1237
Flags: W
LayerCount: 2
Fore
SplineSet
1049 1466 m 2,0,1
 1049 1431 1049 1431 1024.5 1406.5 c 0,2,3
 1000 1382 1000 1382 965 1382 c 0,4,5
 929 1382 929 1382 905 1406.5 c 0,6,7
 881 1431 881 1431 881 1466 c 2,8,-1
 881 1609 l 2,9,10
 881 1645 881 1645 905.5 1670 c 0,11,12
 930 1695 930 1695 965 1695 c 0,13,14
 999 1695 999 1695 1024 1670 c 0,15,16
 1049 1645 1049 1645 1049 1609 c 2,17,-1
 1049 1466 l 2,0,1
371 1466 m 2,18,19
 371 1431 371 1431 346.5 1406.5 c 0,20,21
 322 1382 322 1382 287 1382 c 256,22,23
 252 1382 252 1382 227.5 1406.5 c 0,24,25
 203 1431 203 1431 203 1466 c 2,26,-1
 203 1609 l 2,27,28
 203 1644 203 1644 227.5 1668.5 c 0,29,30
 252 1693 252 1693 287 1693 c 256,31,32
 322 1693 322 1693 346.5 1668.5 c 0,33,34
 371 1644 371 1644 371 1609 c 2,35,-1
 371 1466 l 2,18,19
969 1159 m 2,36,-1
 375 1159 l 1,37,-1
 375 750 l 1,38,-1
 631 750 l 2,39,40
 665 750 665 750 690 725 c 0,41,42
 715 700 715 700 715 666 c 0,43,44
 715 630 715 630 690.5 605 c 0,45,46
 666 580 666 580 631 580 c 2,47,-1
 375 580 l 1,48,-1
 375 168 l 1,49,-1
 971 168 l 2,50,51
 1005 168 1005 168 1030 143.5 c 0,52,53
 1055 119 1055 119 1055 84 c 256,54,55
 1055 49 1055 49 1029.5 24.5 c 0,56,57
 1004 0 1004 0 969 0 c 2,58,-1
 207 0 l 1,59,-1
 207 1329 l 1,60,-1
 969 1329 l 2,61,62
 1004 1329 1004 1329 1029.5 1303.5 c 0,63,64
 1055 1278 1055 1278 1055 1243 c 0,65,66
 1055 1209 1055 1209 1029.5 1184 c 0,67,68
 1004 1159 1004 1159 969 1159 c 2,36,-1
EndSplineSet
EndChar

